# WaveFront *.obj file (generated by Autodesk ATF)

mtllib body_Pillars & Battery v1_Arducam IMX219 Autofocus v3 v1_1_Body5.mtl

g Body5

v 0.002750 -0.070000 0.080750
v -0.005200 -0.070000 0.080750
v -0.005200 -0.070000 0.083750
v 0.002750 -0.070000 0.083750
v -0.003000 -0.070000 0.069000
v -0.003000 -0.070000 0.074000
v 0.003000 -0.070000 0.074000
v 0.003000 -0.070000 0.069000
v -0.004250 -0.071800 0.076700
v 0.004250 -0.071800 0.076700
v 0.004250 -0.070600 0.076700
v 0.003250 -0.070600 0.076700
v 0.003250 -0.071700 0.076700
v -0.003950 -0.071700 0.076700
v -0.003950 -0.070600 0.076700
v -0.004250 -0.070600 0.076700
v 0.002750 -0.070600 0.080750
v -0.005200 -0.070600 0.080750
v 0.002750 -0.070600 0.083750
v -0.005200 -0.070600 0.083750
v -0.005700 -0.071800 0.080250
v 0.003250 -0.071800 0.080250
v 0.003250 -0.071800 0.084250
v -0.005700 -0.071800 0.084250
v 0.003250 -0.071700 0.080250
v -0.003950 -0.071700 0.080250
v -0.005700 -0.070600 0.080250
v -0.003950 -0.070600 0.080250
v -0.005700 -0.070600 0.084250
v 0.003250 -0.070600 0.084250
v 0.004250 -0.070600 0.068200
v -0.004250 -0.070600 0.068200
v -0.003000 -0.070600 0.074000
v -0.003000 -0.070600 0.069000
v 0.003000 -0.070600 0.069000
v 0.003000 -0.070600 0.074000
v -0.004250 -0.071800 0.068200
v 0.004250 -0.071800 0.068200
vt -0.275000 0.575000 0.000000
vt 0.520000 0.575000 0.000000
vt -0.275000 0.875000 0.000000
vt 0.520000 0.875000 0.000000
vt 0.300000 -0.100000 0.000000
vt -0.300000 -0.100000 0.000000
vt 0.300000 -0.600000 0.000000
vt -0.300000 -0.600000 0.000000
vt 0.000000 0.020000 0.000000
vt 0.100000 0.010000 0.000000
vt 0.850000 0.020000 0.000000
vt 0.820000 0.010000 0.000000
vt 0.850000 -0.100000 0.000000
vt 0.820000 -0.100000 0.000000
vt 0.000000 -0.100000 0.000000
vt 0.100000 -0.100000 0.000000
vt 0.000000 0.100000 0.000000
vt 0.795000 0.100000 0.000000
vt 0.000000 0.160000 0.000000
vt 0.795000 0.160000 0.000000
vt 0.000000 0.100000 0.000000
vt 0.300000 0.100000 0.000000
vt 0.000000 0.160000 0.000000
vt 0.300000 0.160000 0.000000
vt 0.000000 0.100000 0.000000
vt 0.795000 0.100000 0.000000
vt 0.000000 0.160000 0.000000
vt 0.795000 0.160000 0.000000
vt 0.000000 0.100000 0.000000
vt 0.300000 0.100000 0.000000
vt 0.000000 0.160000 0.000000
vt 0.300000 0.160000 0.000000
vt -0.447500 -0.200000 0.000000
vt 0.447500 -0.200000 0.000000
vt -0.447500 0.200000 0.000000
vt 0.447500 0.200000 0.000000
vt 0.447500 -0.022500 0.000000
vt -0.272500 -0.022500 0.000000
vt 0.447500 -0.377500 0.000000
vt -0.272500 -0.377500 0.000000
vt 0.175000 -0.100000 0.000000
vt 0.175000 0.010000 0.000000
vt -0.000000 -0.100000 0.000000
vt 0.000000 0.020000 0.000000
vt 0.895000 0.020000 0.000000
vt 0.895000 0.010000 0.000000
vt 0.000000 -0.100000 0.000000
vt 0.400000 -0.100000 0.000000
vt 0.000000 0.020000 0.000000
vt 0.400000 0.020000 0.000000
vt 0.000000 -0.100000 0.000000
vt 0.895000 -0.100000 0.000000
vt 0.000000 0.020000 0.000000
vt 0.895000 0.020000 0.000000
vt 0.000000 0.010000 0.000000
vt 0.000000 -0.100000 0.000000
vt 0.355000 0.010000 0.000000
vt 0.755000 -0.100000 0.000000
vt 0.755000 0.020000 0.000000
vt 0.355000 0.020000 0.000000
vt 0.000000 -0.100000 0.000000
vt 0.355000 -0.100000 0.000000
vt 0.000000 0.010000 0.000000
vt 0.355000 0.010000 0.000000
vt 0.425000 -0.425000 0.000000
vt -0.300000 -0.345000 0.000000
vt -0.425000 -0.425000 0.000000
vt -0.300000 0.155000 0.000000
vt -0.425000 0.425000 0.000000
vt -0.325000 0.425000 0.000000
vt 0.300000 0.155000 0.000000
vt -0.275000 0.830000 0.000000
vt 0.395000 0.425000 0.000000
vt 0.395000 0.780000 0.000000
vt 0.425000 0.425000 0.000000
vt 0.300000 -0.345000 0.000000
vt 0.520000 0.830000 0.000000
vt 0.570000 0.780000 0.000000
vt 0.520000 1.130000 0.000000
vt 0.570000 1.180000 0.000000
vt -0.325000 1.180000 0.000000
vt -0.275000 1.130000 0.000000
vt 0.850000 0.020000 0.000000
vt 0.000000 0.020000 0.000000
vt 0.850000 -0.100000 0.000000
vt 0.000000 -0.100000 0.000000
vt 0.000000 0.000000 0.000000
vt 0.500000 0.000000 0.000000
vt 0.000000 0.060000 0.000000
vt 0.500000 0.060000 0.000000
vt 0.000000 0.000000 0.000000
vt 0.600000 0.000000 0.000000
vt 0.000000 0.060000 0.000000
vt 0.600000 0.060000 0.000000
vt 0.000000 0.000000 0.000000
vt 0.500000 0.000000 0.000000
vt 0.000000 0.060000 0.000000
vt 0.500000 0.060000 0.000000
vt 0.000000 0.000000 0.000000
vt 0.600000 0.000000 0.000000
vt 0.000000 0.060000 0.000000
vt 0.600000 0.060000 0.000000
vt 0.850000 0.020000 0.000000
vt 0.000000 0.020000 0.000000
vt 0.850000 -0.100000 0.000000
vt 0.000000 -0.100000 0.000000
vt 0.850000 0.020000 0.000000
vt 0.000000 0.020000 0.000000
vt 0.850000 -0.100000 0.000000
vt 0.000000 -0.100000 0.000000
vt -0.425000 -0.680000 0.000000
vt 0.425000 -0.680000 0.000000
vt -0.425000 0.170000 0.000000
vt 0.425000 0.170000 0.000000
vn -0.000000 100.000000 -0.000000
vn -0.000000 100.000000 -0.000000
vn -0.000000 100.000000 -0.000000
vn -0.000000 100.000000 -0.000000
vn -0.000000 100.000000 -0.000000
vn -0.000000 100.000000 -0.000000
vn -0.000000 100.000000 -0.000000
vn -0.000000 100.000000 -0.000000
vn 0.000000 -0.000000 100.000000
vn 0.000000 -0.000000 100.000000
vn 0.000000 -0.000000 100.000000
vn 0.000000 -0.000000 100.000000
vn 0.000000 -0.000000 100.000000
vn 0.000000 -0.000000 100.000000
vn 0.000000 -0.000000 100.000000
vn 0.000000 -0.000000 100.000000
vn -0.000000 0.000000 -100.000000
vn -0.000000 0.000000 -100.000000
vn -0.000000 0.000000 -100.000000
vn -0.000000 0.000000 -100.000000
vn 100.000000 0.000000 -0.000000
vn 100.000000 0.000000 -0.000000
vn 100.000000 0.000000 -0.000000
vn 100.000000 0.000000 -0.000000
vn 0.000000 -0.000000 100.000000
vn 0.000000 -0.000000 100.000000
vn 0.000000 -0.000000 100.000000
vn 0.000000 -0.000000 100.000000
vn -100.000000 -0.000000 0.000000
vn -100.000000 -0.000000 0.000000
vn -100.000000 -0.000000 0.000000
vn -100.000000 -0.000000 0.000000
vn 0.000000 -100.000000 0.000000
vn 0.000000 -100.000000 0.000000
vn 0.000000 -100.000000 0.000000
vn 0.000000 -100.000000 0.000000
vn 0.000000 -100.000000 0.000000
vn 0.000000 -100.000000 0.000000
vn 0.000000 -100.000000 0.000000
vn 0.000000 -100.000000 0.000000
vn -0.000000 0.000000 -100.000000
vn -0.000000 0.000000 -100.000000
vn -0.000000 0.000000 -100.000000
vn -0.000000 0.000000 -100.000000
vn -0.000000 0.000000 -100.000000
vn -0.000000 0.000000 -100.000000
vn -100.000000 -0.000000 0.000000
vn -100.000000 -0.000000 0.000000
vn -100.000000 -0.000000 0.000000
vn -100.000000 -0.000000 0.000000
vn 0.000000 -0.000000 100.000000
vn 0.000000 -0.000000 100.000000
vn 0.000000 -0.000000 100.000000
vn 0.000000 -0.000000 100.000000
vn 100.000000 0.000000 -0.000000
vn 100.000000 0.000000 -0.000000
vn 100.000000 0.000000 -0.000000
vn 100.000000 0.000000 -0.000000
vn 100.000000 0.000000 -0.000000
vn 100.000000 0.000000 -0.000000
vn -100.000000 -0.000000 0.000000
vn -100.000000 -0.000000 0.000000
vn -100.000000 -0.000000 0.000000
vn -100.000000 -0.000000 0.000000
vn -0.000000 100.000000 -0.000000
vn -0.000000 100.000000 -0.000000
vn -0.000000 100.000000 -0.000000
vn -0.000000 100.000000 -0.000000
vn -0.000000 100.000000 -0.000000
vn -0.000000 100.000000 -0.000000
vn -0.000000 100.000000 -0.000000
vn -0.000000 100.000000 -0.000000
vn -0.000000 100.000000 -0.000000
vn -0.000000 100.000000 -0.000000
vn -0.000000 100.000000 -0.000000
vn -0.000000 100.000000 -0.000000
vn -0.000000 100.000000 -0.000000
vn -0.000000 100.000000 -0.000000
vn -0.000000 100.000000 -0.000000
vn -0.000000 100.000000 -0.000000
vn -0.000000 100.000000 -0.000000
vn -0.000000 100.000000 -0.000000
vn -100.000000 -0.000000 0.000000
vn -100.000000 -0.000000 0.000000
vn -100.000000 -0.000000 0.000000
vn -100.000000 -0.000000 0.000000
vn -100.000000 -0.000000 0.000000
vn -100.000000 -0.000000 0.000000
vn -100.000000 -0.000000 0.000000
vn -100.000000 -0.000000 0.000000
vn 0.000000 -0.000000 100.000000
vn 0.000000 -0.000000 100.000000
vn 0.000000 -0.000000 100.000000
vn 0.000000 -0.000000 100.000000
vn 100.000000 0.000000 -0.000000
vn 100.000000 0.000000 -0.000000
vn 100.000000 0.000000 -0.000000
vn 100.000000 0.000000 -0.000000
vn -0.000000 0.000000 -100.000000
vn -0.000000 0.000000 -100.000000
vn -0.000000 0.000000 -100.000000
vn -0.000000 0.000000 -100.000000
vn -0.000000 0.000000 -100.000000
vn -0.000000 0.000000 -100.000000
vn -0.000000 0.000000 -100.000000
vn -0.000000 0.000000 -100.000000
vn 100.000000 0.000000 -0.000000
vn 100.000000 0.000000 -0.000000
vn 100.000000 0.000000 -0.000000
vn 100.000000 0.000000 -0.000000
vn 0.000000 -100.000000 0.000000
vn 0.000000 -100.000000 0.000000
vn 0.000000 -100.000000 0.000000
vn 0.000000 -100.000000 0.000000
usemtl Opaque(25,25,25)
f 1/1/1 2/2/2 4/3/3
f 4/3/3 2/2/2 3/4/4
f 6/5/5 7/6/6 5/7/7
f 5/7/7 7/6/6 8/8/8
f 10/9/9 13/10/10 9/11/11
f 9/11/11 13/10/10 14/12/12
f 9/11/11 14/12/12 16/13/13
f 16/13/13 14/12/12 15/14/14
f 10/9/9 11/15/15 13/10/10
f 13/10/10 11/15/15 12/16/16
f 17/17/17 18/18/18 1/19/19
f 1/19/19 18/18/18 2/20/20
f 19/21/21 17/22/22 4/23/23
f 4/23/23 17/22/22 1/24/24
f 20/25/25 19/26/26 3/27/27
f 3/27/27 19/26/26 4/28/28
f 18/29/29 20/30/30 2/31/31
f 2/31/31 20/30/30 3/32/32
f 21/33/33 22/34/34 24/35/35
f 24/35/35 22/34/34 23/36/36
f 25/37/37 26/38/38 13/39/39
f 13/39/39 26/38/38 14/40/40
f 28/41/41 26/42/42 27/43/43
f 27/43/43 26/42/42 21/44/44
f 21/44/44 26/42/42 22/45/45
f 22/45/45 26/42/42 25/46/46
f 29/47/47 27/48/48 24/49/49
f 24/49/49 27/48/48 21/50/50
f 30/51/51 29/52/52 23/53/53
f 23/53/53 29/52/52 24/54/54
f 13/55/55 12/56/56 25/57/57
f 25/57/57 12/56/56 30/58/58
f 25/57/57 30/58/58 23/59/59
f 23/59/59 22/60/60 25/57/57
f 28/61/61 15/62/62 26/63/63
f 26/63/63 15/62/62 14/64/64
f 32/65/65 35/66/66 31/67/67
f 31/67/67 35/66/66 36/68/68
f 31/67/67 36/68/68 11/69/69
f 11/69/69 36/68/68 12/70/70
f 12/70/70 36/68/68 33/71/71
f 12/70/70 33/71/71 17/72/72
f 17/72/72 33/71/71 15/73/73
f 17/72/72 15/73/73 28/74/74
f 16/75/75 33/71/71 32/65/65
f 32/65/65 33/71/71 34/76/76
f 32/65/65 34/76/76 35/66/66
f 16/75/75 15/73/73 33/71/71
f 17/72/72 28/74/74 18/77/77
f 18/77/77 28/74/74 27/78/78
f 18/77/77 27/78/78 20/79/79
f 20/79/79 27/78/78 29/80/80
f 20/79/79 29/80/80 30/81/81
f 12/70/70 17/72/72 30/81/81
f 30/81/81 17/72/72 19/82/82
f 30/81/81 19/82/82 20/79/79
f 37/83/83 9/84/84 32/85/85
f 32/85/85 9/84/84 16/86/86
f 6/87/87 5/88/88 33/89/89
f 33/89/89 5/88/88 34/90/90
f 7/91/91 6/92/92 36/93/93
f 36/93/93 6/92/92 33/94/94
f 8/95/95 7/96/96 35/97/97
f 35/97/97 7/96/96 36/98/98
f 5/99/99 8/100/100 34/101/101
f 34/101/101 8/100/100 35/102/102
f 38/103/103 37/104/104 31/105/105
f 31/105/105 37/104/104 32/106/106
f 10/107/107 38/108/108 11/109/109
f 11/109/109 38/108/108 31/110/110
f 37/111/111 38/112/112 9/113/113
f 9/113/113 38/112/112 10/114/114
# 38 vertices
# 114 texture params
# 114 normals
# 72 facets

# 1 groups
