# WaveFront *.obj file (generated by Autodesk ATF)

mtllib body_Pillars & Battery v1_Arducam IMX219 Autofocus v3 v1_1_Body4.mtl

g Body4

v -0.003625 -0.075400 0.072450
v -0.003380 -0.075400 0.071140
v -0.002679 -0.075400 0.070008
v -0.001616 -0.075400 0.069205
v -0.000334 -0.075400 0.068840
v 0.000992 -0.075400 0.068963
v 0.002185 -0.075400 0.069557
v 0.003082 -0.075400 0.070542
v 0.003563 -0.075400 0.071784
v 0.003563 -0.075400 0.073116
v 0.003082 -0.075400 0.074358
v 0.002185 -0.075400 0.075343
v 0.000992 -0.075400 0.075937
v -0.000334 -0.075400 0.076060
v -0.001616 -0.075400 0.075695
v -0.002679 -0.075400 0.074892
v -0.003380 -0.075400 0.073760
v -0.003625 -0.071800 0.072450
v -0.003380 -0.071800 0.073760
v -0.002679 -0.071800 0.074892
v -0.001616 -0.071800 0.075695
v -0.000334 -0.071800 0.076060
v 0.000992 -0.071800 0.075937
v 0.002185 -0.071800 0.075343
v 0.003082 -0.071800 0.074358
v 0.003563 -0.071800 0.073116
v 0.003563 -0.071800 0.071784
v 0.003082 -0.071800 0.070542
v 0.002185 -0.071800 0.069557
v 0.000992 -0.071800 0.068963
v -0.000334 -0.071800 0.068840
v -0.001616 -0.071800 0.069205
v -0.002679 -0.071800 0.070008
v -0.003380 -0.071800 0.071140
v 0.004250 -0.071800 0.068200
v -0.004250 -0.071800 0.068200
v -0.004250 -0.071800 0.076700
v 0.004250 -0.071800 0.076700
v -0.004250 -0.075200 0.076700
v -0.002750 -0.075200 0.076700
v -0.002750 -0.075400 0.076700
v 0.002750 -0.075400 0.076700
v 0.002750 -0.075200 0.076700
v 0.004250 -0.075200 0.076700
v -0.004250 -0.075200 0.068200
v -0.004250 -0.075200 0.069700
v -0.004250 -0.075400 0.069700
v -0.004250 -0.075400 0.075200
v -0.004250 -0.075200 0.075200
v 0.004250 -0.075200 0.068200
v 0.002750 -0.075200 0.068200
v 0.002750 -0.075400 0.068200
v -0.002750 -0.075400 0.068200
v -0.002750 -0.075200 0.068200
v -0.002750 -0.075400 0.075700
v -0.002817 -0.075400 0.075450
v -0.003000 -0.075400 0.075267
v -0.003250 -0.075400 0.075200
v -0.003250 -0.075400 0.069700
v -0.003000 -0.075400 0.069633
v -0.002817 -0.075400 0.069450
v -0.002750 -0.075400 0.069200
v 0.002750 -0.075400 0.069200
v 0.002817 -0.075400 0.069450
v 0.003000 -0.075400 0.069633
v 0.003250 -0.075400 0.069700
v 0.004250 -0.075400 0.069700
v 0.004250 -0.075400 0.075200
v 0.003250 -0.075400 0.075200
v 0.003000 -0.075400 0.075267
v 0.002817 -0.075400 0.075450
v 0.002750 -0.075400 0.075700
v 0.004250 -0.075200 0.075200
v 0.004250 -0.075200 0.069700
v 0.003250 -0.075200 0.069700
v 0.003000 -0.075200 0.069633
v 0.002817 -0.075200 0.069450
v 0.002750 -0.075200 0.069200
v 0.002750 -0.075200 0.075700
v 0.002817 -0.075200 0.075450
v 0.003000 -0.075200 0.075267
v 0.003250 -0.075200 0.075200
v -0.002750 -0.075200 0.069200
v -0.002817 -0.075200 0.069450
v -0.003000 -0.075200 0.069633
v -0.003250 -0.075200 0.069700
v -0.003250 -0.075200 0.075200
v -0.003000 -0.075200 0.075267
v -0.002817 -0.075200 0.075450
v -0.002750 -0.075200 0.075700
vt 0.230000 -1.004848 0.000000
vt -0.130000 -1.004848 0.000000
vt 0.230000 -1.138827 0.000000
vt -0.130000 -1.138827 0.000000
vt 0.230000 1.138827 0.000000
vt -0.130000 1.138827 0.000000
vt 0.230000 1.004848 0.000000
vt -0.130000 1.004848 0.000000
vt 0.230000 0.870868 0.000000
vt -0.130000 0.870868 0.000000
vt 0.230000 0.736888 0.000000
vt -0.130000 0.736888 0.000000
vt 0.230000 0.602909 0.000000
vt -0.130000 0.602909 0.000000
vt 0.230000 0.468929 0.000000
vt -0.130000 0.468929 0.000000
vt 0.230000 0.334949 0.000000
vt -0.130000 0.334949 0.000000
vt 0.230000 0.200970 0.000000
vt -0.130000 0.200970 0.000000
vt 0.230000 0.066990 0.000000
vt -0.130000 0.066990 0.000000
vt 0.230000 -0.066990 0.000000
vt -0.130000 -0.066990 0.000000
vt 0.230000 -0.200970 0.000000
vt -0.130000 -0.200970 0.000000
vt 0.230000 -0.334949 0.000000
vt -0.130000 -0.334949 0.000000
vt 0.230000 -0.468929 0.000000
vt -0.130000 -0.468929 0.000000
vt 0.230000 -0.602909 0.000000
vt -0.130000 -0.602909 0.000000
vt 0.230000 -0.736888 0.000000
vt -0.130000 -0.736888 0.000000
vt 0.230000 -0.870868 0.000000
vt -0.130000 -0.870868 0.000000
vt 0.425000 -0.680000 0.000000
vt 0.033447 -0.615954 0.000000
vt -0.425000 -0.680000 0.000000
vt -0.099203 -0.603662 0.000000
vt -0.218455 -0.544281 0.000000
vt 0.425000 0.170000 0.000000
vt 0.362500 -0.255000 0.000000
vt 0.338021 -0.385950 0.000000
vt 0.267891 -0.499215 0.000000
vt -0.425000 0.170000 0.000000
vt 0.033447 0.105954 0.000000
vt 0.161580 0.069497 0.000000
vt 0.267891 -0.010785 0.000000
vt -0.356328 -0.188391 0.000000
vt -0.308204 -0.064168 0.000000
vt -0.218455 0.034281 0.000000
vt 0.161580 -0.579497 0.000000
vt -0.308204 -0.445832 0.000000
vt -0.356328 -0.321609 0.000000
vt -0.099203 0.093662 0.000000
vt 0.338021 -0.124050 0.000000
vt 0.000000 0.130000 0.000000
vt 0.000000 -0.210000 0.000000
vt 0.150000 0.130000 0.000000
vt 0.850000 -0.210000 0.000000
vt 0.700000 0.130000 0.000000
vt 0.850000 0.130000 0.000000
vt 0.700000 0.150000 0.000000
vt 0.150000 0.150000 0.000000
vt 0.000000 0.130000 0.000000
vt 0.000000 -0.210000 0.000000
vt 0.150000 0.130000 0.000000
vt 0.850000 -0.210000 0.000000
vt 0.700000 0.130000 0.000000
vt 0.850000 0.130000 0.000000
vt 0.700000 0.150000 0.000000
vt 0.150000 0.150000 0.000000
vt 0.000000 0.130000 0.000000
vt 0.000000 -0.210000 0.000000
vt 0.150000 0.130000 0.000000
vt 0.850000 -0.210000 0.000000
vt 0.700000 0.130000 0.000000
vt 0.850000 0.130000 0.000000
vt 0.700000 0.150000 0.000000
vt 0.150000 0.150000 0.000000
vt -0.275000 0.325000 0.000000
vt -0.161580 0.324497 0.000000
vt -0.275000 0.425000 0.000000
vt -0.033447 0.360954 0.000000
vt 0.275000 0.425000 0.000000
vt 0.099203 0.348662 0.000000
vt 0.218455 0.289281 0.000000
vt -0.281699 0.300000 0.000000
vt -0.267891 0.244215 0.000000
vt -0.300000 0.281699 0.000000
vt -0.325000 0.275000 0.000000
vt -0.338021 0.130950 0.000000
vt -0.425000 0.275000 0.000000
vt -0.362500 0.000000 0.000000
vt -0.425000 -0.275000 0.000000
vt -0.338021 -0.130950 0.000000
vt -0.325000 -0.275000 0.000000
vt -0.267891 -0.244215 0.000000
vt -0.300000 -0.281699 0.000000
vt -0.281699 -0.300000 0.000000
vt -0.161580 -0.324497 0.000000
vt -0.275000 -0.325000 0.000000
vt -0.275000 -0.425000 0.000000
vt -0.033447 -0.360954 0.000000
vt 0.275000 -0.425000 0.000000
vt 0.099203 -0.348662 0.000000
vt 0.218455 -0.289281 0.000000
vt 0.275000 -0.325000 0.000000
vt 0.281699 -0.300000 0.000000
vt 0.300000 -0.281699 0.000000
vt 0.308204 -0.190832 0.000000
vt 0.325000 -0.275000 0.000000
vt 0.425000 -0.275000 0.000000
vt 0.425000 0.275000 0.000000
vt 0.356328 0.066609 0.000000
vt 0.356328 -0.066609 0.000000
vt 0.308204 0.190832 0.000000
vt 0.325000 0.275000 0.000000
vt 0.300000 0.281699 0.000000
vt 0.281699 0.300000 0.000000
vt 0.275000 0.325000 0.000000
vt 0.000000 0.130000 0.000000
vt 0.000000 -0.210000 0.000000
vt 0.150000 0.130000 0.000000
vt 0.850000 -0.210000 0.000000
vt 0.700000 0.130000 0.000000
vt 0.850000 0.130000 0.000000
vt 0.700000 0.150000 0.000000
vt 0.150000 0.150000 0.000000
vt -0.075000 -0.075000 0.000000
vt 0.075000 -0.075000 0.000000
vt -0.075000 0.025000 0.000000
vt -0.025000 0.075000 0.000000
vt -0.068301 0.050000 0.000000
vt -0.050000 0.068301 0.000000
vt 0.075000 0.075000 0.000000
vt -0.100000 0.000000 0.000000
vt -0.000000 0.000000 0.000000
vt -0.100000 0.020000 0.000000
vt -0.000000 0.020000 0.000000
vt 0.020000 -0.000000 0.000000
vt 0.000000 -0.000000 0.000000
vt 0.020000 -0.026180 0.000000
vt 0.000000 -0.026180 0.000000
vt 0.020000 -0.052360 0.000000
vt 0.000000 -0.052360 0.000000
vt 0.020000 -0.078540 0.000000
vt 0.000000 -0.078540 0.000000
vt -0.100000 0.000000 0.000000
vt -0.000000 0.000000 0.000000
vt -0.100000 0.020000 0.000000
vt -0.000000 0.020000 0.000000
vt -0.068301 -0.050000 0.000000
vt -0.050000 -0.068301 0.000000
vt -0.075000 -0.025000 0.000000
vt -0.025000 -0.075000 0.000000
vt 0.075000 0.075000 0.000000
vt 0.075000 -0.075000 0.000000
vt -0.075000 0.075000 0.000000
vt 0.020000 0.000000 0.000000
vt 0.000000 0.000000 0.000000
vt 0.020000 -0.026180 0.000000
vt 0.000000 -0.026180 0.000000
vt 0.020000 -0.052360 0.000000
vt 0.000000 -0.052360 0.000000
vt 0.020000 -0.078540 0.000000
vt 0.000000 -0.078540 0.000000
vt -0.100000 0.000000 0.000000
vt -0.000000 0.000000 0.000000
vt -0.100000 0.020000 0.000000
vt -0.000000 0.020000 0.000000
vt -0.100000 0.000000 0.000000
vt -0.000000 0.000000 0.000000
vt -0.100000 0.020000 0.000000
vt -0.000000 0.020000 0.000000
vt -0.075000 0.075000 0.000000
vt -0.075000 -0.075000 0.000000
vt 0.025000 0.075000 0.000000
vt 0.075000 0.025000 0.000000
vt 0.068301 0.050000 0.000000
vt 0.075000 -0.075000 0.000000
vt 0.050000 0.068301 0.000000
vt -0.100000 0.000000 0.000000
vt -0.000000 0.000000 0.000000
vt -0.100000 0.020000 0.000000
vt -0.000000 0.020000 0.000000
vt 0.020000 -0.000000 0.000000
vt 0.000000 -0.000000 0.000000
vt 0.020000 -0.026180 0.000000
vt 0.000000 -0.026180 0.000000
vt 0.020000 -0.052360 0.000000
vt 0.000000 -0.052360 0.000000
vt 0.020000 -0.078540 0.000000
vt 0.000000 -0.078540 0.000000
vt -0.100000 0.000000 0.000000
vt -0.000000 0.000000 0.000000
vt -0.100000 0.020000 0.000000
vt -0.000000 0.020000 0.000000
vt 0.075000 0.075000 0.000000
vt -0.075000 0.075000 0.000000
vt 0.075000 -0.025000 0.000000
vt 0.025000 -0.075000 0.000000
vt 0.050000 -0.068301 0.000000
vt -0.075000 -0.075000 0.000000
vt 0.068301 -0.050000 0.000000
vt -0.100000 -0.000000 0.000000
vt -0.000000 0.000000 0.000000
vt -0.100000 0.020000 0.000000
vt 0.000000 0.020000 0.000000
vt 0.020000 0.000000 0.000000
vt 0.000000 0.000000 0.000000
vt 0.020000 -0.026180 0.000000
vt 0.000000 -0.026180 0.000000
vt 0.020000 -0.052360 0.000000
vt -0.000000 -0.052360 0.000000
vt 0.020000 -0.078540 0.000000
vt 0.000000 -0.078540 0.000000
vt -0.100000 0.000000 0.000000
vt -0.000000 0.000000 0.000000
vt -0.100000 0.020000 0.000000
vt -0.000000 0.020000 0.000000
vn 93.247223 0.000000 36.124167
vn 93.247223 0.000000 36.124167
vn 100.000000 0.000000 -0.000000
vn 100.000000 0.000000 -0.000000
vn 93.247223 0.000000 -36.124167
vn 93.247223 0.000000 -36.124167
vn 73.900892 0.000000 -67.369564
vn 73.900892 0.000000 -67.369564
vn 44.573836 0.000000 -89.516329
vn 44.573836 0.000000 -89.516329
vn 9.226836 0.000000 -99.573418
vn 9.226836 0.000000 -99.573418
vn -27.366299 -0.000000 -96.182564
vn -27.366299 -0.000000 -96.182564
vn -60.263464 -0.000000 -79.801723
vn -60.263464 -0.000000 -79.801723
vn -85.021714 -0.000000 -52.643216
vn -85.021714 -0.000000 -52.643216
vn -98.297310 -0.000000 -18.374952
vn -98.297310 -0.000000 -18.374952
vn -98.297310 -0.000000 18.374952
vn -98.297310 -0.000000 18.374952
vn -85.021714 -0.000000 52.643216
vn -85.021714 -0.000000 52.643216
vn -60.263464 -0.000000 79.801723
vn -60.263464 -0.000000 79.801723
vn -27.366299 -0.000000 96.182564
vn -27.366299 -0.000000 96.182564
vn 9.226836 0.000000 99.573418
vn 9.226836 0.000000 99.573418
vn 44.573836 0.000000 89.516329
vn 44.573836 0.000000 89.516329
vn 73.900892 0.000000 67.369564
vn 73.900892 0.000000 67.369564
vn -0.000000 100.000000 -0.000000
vn -0.000000 100.000000 -0.000000
vn -0.000000 100.000000 -0.000000
vn -0.000000 100.000000 -0.000000
vn -0.000000 100.000000 -0.000000
vn -0.000000 100.000000 -0.000000
vn -0.000000 100.000000 -0.000000
vn -0.000000 100.000000 -0.000000
vn -0.000000 100.000000 -0.000000
vn -0.000000 100.000000 -0.000000
vn -0.000000 100.000000 -0.000000
vn -0.000000 100.000000 -0.000000
vn -0.000000 100.000000 -0.000000
vn -0.000000 100.000000 -0.000000
vn -0.000000 100.000000 -0.000000
vn -0.000000 100.000000 -0.000000
vn -0.000000 100.000000 -0.000000
vn -0.000000 100.000000 -0.000000
vn -0.000000 100.000000 -0.000000
vn -0.000000 100.000000 -0.000000
vn -0.000000 100.000000 -0.000000
vn 0.000000 -0.000000 100.000000
vn 0.000000 -0.000000 100.000000
vn 0.000000 -0.000000 100.000000
vn 0.000000 -0.000000 100.000000
vn 0.000000 -0.000000 100.000000
vn 0.000000 -0.000000 100.000000
vn 0.000000 -0.000000 100.000000
vn 0.000000 -0.000000 100.000000
vn -100.000000 -0.000000 0.000000
vn -100.000000 -0.000000 0.000000
vn -100.000000 -0.000000 0.000000
vn -100.000000 -0.000000 0.000000
vn -100.000000 -0.000000 0.000000
vn -100.000000 -0.000000 0.000000
vn -100.000000 -0.000000 0.000000
vn -100.000000 -0.000000 0.000000
vn -0.000000 0.000000 -100.000000
vn -0.000000 0.000000 -100.000000
vn -0.000000 0.000000 -100.000000
vn -0.000000 0.000000 -100.000000
vn -0.000000 0.000000 -100.000000
vn -0.000000 0.000000 -100.000000
vn -0.000000 0.000000 -100.000000
vn -0.000000 0.000000 -100.000000
vn 0.000000 -100.000000 0.000000
vn 0.000000 -100.000000 0.000000
vn 0.000000 -100.000000 0.000000
vn 0.000000 -100.000000 0.000000
vn 0.000000 -100.000000 0.000000
vn 0.000000 -100.000000 0.000000
vn 0.000000 -100.000000 0.000000
vn 0.000000 -100.000000 0.000000
vn 0.000000 -100.000000 0.000000
vn 0.000000 -100.000000 0.000000
vn 0.000000 -100.000000 0.000000
vn 0.000000 -100.000000 0.000000
vn 0.000000 -100.000000 0.000000
vn 0.000000 -100.000000 0.000000
vn 0.000000 -100.000000 0.000000
vn 0.000000 -100.000000 0.000000
vn 0.000000 -100.000000 0.000000
vn 0.000000 -100.000000 0.000000
vn 0.000000 -100.000000 0.000000
vn 0.000000 -100.000000 0.000000
vn 0.000000 -100.000000 0.000000
vn 0.000000 -100.000000 0.000000
vn 0.000000 -100.000000 0.000000
vn 0.000000 -100.000000 0.000000
vn 0.000000 -100.000000 0.000000
vn 0.000000 -100.000000 0.000000
vn 0.000000 -100.000000 0.000000
vn 0.000000 -100.000000 0.000000
vn 0.000000 -100.000000 0.000000
vn 0.000000 -100.000000 0.000000
vn 0.000000 -100.000000 0.000000
vn 0.000000 -100.000000 0.000000
vn 0.000000 -100.000000 0.000000
vn 0.000000 -100.000000 0.000000
vn 0.000000 -100.000000 0.000000
vn 0.000000 -100.000000 0.000000
vn 0.000000 -100.000000 0.000000
vn 0.000000 -100.000000 0.000000
vn 0.000000 -100.000000 0.000000
vn 0.000000 -100.000000 0.000000
vn 0.000000 -100.000000 0.000000
vn 100.000000 0.000000 -0.000000
vn 100.000000 0.000000 -0.000000
vn 100.000000 0.000000 -0.000000
vn 100.000000 0.000000 -0.000000
vn 100.000000 0.000000 -0.000000
vn 100.000000 0.000000 -0.000000
vn 100.000000 0.000000 -0.000000
vn 100.000000 0.000000 -0.000000
vn 0.000000 -100.000000 0.000000
vn 0.000000 -100.000000 0.000000
vn 0.000000 -100.000000 0.000000
vn 0.000000 -100.000000 0.000000
vn 0.000000 -100.000000 0.000000
vn 0.000000 -100.000000 0.000000
vn 0.000000 -100.000000 0.000000
vn 100.000000 0.000000 -0.000000
vn 100.000000 0.000000 -0.000000
vn 100.000000 0.000000 -0.000000
vn 100.000000 0.000000 -0.000000
vn -0.000000 0.000000 -100.000000
vn -0.000000 0.000000 -100.000000
vn 50.000000 0.000000 -86.602540
vn 50.000000 0.000000 -86.602540
vn 86.602540 0.000000 -50.000000
vn 86.602540 0.000000 -50.000000
vn -0.000000 0.000000 -100.000000
vn -0.000000 0.000000 -100.000000
vn 0.000000 -100.000000 0.000000
vn 0.000000 -100.000000 0.000000
vn 0.000000 -100.000000 0.000000
vn 0.000000 -100.000000 0.000000
vn 0.000000 -100.000000 0.000000
vn 0.000000 -100.000000 0.000000
vn 0.000000 -100.000000 0.000000
vn 100.000000 0.000000 -0.000000
vn 100.000000 0.000000 -0.000000
vn 86.602540 0.000000 50.000000
vn 86.602540 0.000000 50.000000
vn 50.000000 0.000000 86.602540
vn 50.000000 0.000000 86.602540
vn 0.000000 -0.000000 100.000000
vn 0.000000 -0.000000 100.000000
vn 100.000000 0.000000 -0.000000
vn 100.000000 0.000000 -0.000000
vn 0.000000 -0.000000 100.000000
vn 0.000000 -0.000000 100.000000
vn 0.000000 -100.000000 0.000000
vn 0.000000 -100.000000 0.000000
vn 0.000000 -100.000000 0.000000
vn 0.000000 -100.000000 0.000000
vn 0.000000 -100.000000 0.000000
vn 0.000000 -100.000000 0.000000
vn 0.000000 -100.000000 0.000000
vn -0.000000 0.000000 -100.000000
vn -0.000000 0.000000 -100.000000
vn -0.000000 0.000000 -100.000000
vn -0.000000 0.000000 -100.000000
vn -100.000000 -0.000000 0.000000
vn -100.000000 -0.000000 0.000000
vn -86.602540 -0.000000 -50.000000
vn -86.602540 -0.000000 -50.000000
vn -50.000000 -0.000000 -86.602540
vn -50.000000 -0.000000 -86.602540
vn -100.000000 -0.000000 0.000000
vn -100.000000 -0.000000 0.000000
vn 0.000000 -100.000000 0.000000
vn 0.000000 -100.000000 0.000000
vn 0.000000 -100.000000 0.000000
vn 0.000000 -100.000000 0.000000
vn 0.000000 -100.000000 0.000000
vn 0.000000 -100.000000 0.000000
vn 0.000000 -100.000000 0.000000
vn -100.000000 -0.000000 0.000000
vn -100.000000 -0.000000 0.000000
vn -100.000000 -0.000000 0.000000
vn -100.000000 -0.000000 0.000000
vn 0.000000 -0.000000 100.000000
vn 0.000000 -0.000000 100.000000
vn -50.000000 -0.000000 86.602540
vn -50.000000 -0.000000 86.602540
vn -86.602540 -0.000000 50.000000
vn -86.602540 -0.000000 50.000000
vn 0.000000 -0.000000 100.000000
vn 0.000000 -0.000000 100.000000
usemtl Opaque(245,245,246)
f 2/1/1 34/2/2 1/3/3
f 1/3/3 34/2/2 18/4/4
f 1/5/3 18/6/4 17/7/5
f 17/7/5 18/6/4 19/8/6
f 17/7/5 19/8/6 16/9/7
f 16/9/7 19/8/6 20/10/8
f 16/9/7 20/10/8 15/11/9
f 15/11/9 20/10/8 21/12/10
f 15/11/9 21/12/10 14/13/11
f 14/13/11 21/12/10 22/14/12
f 14/13/11 22/14/12 13/15/13
f 13/15/13 22/14/12 23/16/14
f 13/15/13 23/16/14 12/17/15
f 12/17/15 23/16/14 24/18/16
f 12/17/15 24/18/16 11/19/17
f 11/19/17 24/18/16 25/20/18
f 11/19/17 25/20/18 10/21/19
f 10/21/19 25/20/18 26/22/20
f 10/21/19 26/22/20 9/23/21
f 9/23/21 26/22/20 27/24/22
f 9/23/21 27/24/22 8/25/23
f 8/25/23 27/24/22 28/26/24
f 8/25/23 28/26/24 7/27/25
f 7/27/25 28/26/24 29/28/26
f 7/27/25 29/28/26 6/29/27
f 6/29/27 29/28/26 30/30/28
f 6/29/27 30/30/28 5/31/29
f 5/31/29 30/30/28 31/32/30
f 5/31/29 31/32/30 4/33/31
f 4/33/31 31/32/30 32/34/32
f 4/33/31 32/34/32 3/35/33
f 3/35/33 32/34/32 33/36/34
f 3/35/33 33/36/34 2/1/1
f 2/1/1 33/36/34 34/2/2
f 36/37/35 31/38/36 35/39/37
f 35/39/37 31/38/36 30/40/38
f 35/39/37 30/40/38 29/41/39
f 37/42/40 18/43/41 36/37/35
f 36/37/35 18/43/41 34/44/42
f 36/37/35 34/44/42 33/45/43
f 38/46/44 22/47/45 37/42/40
f 37/42/40 22/47/45 21/48/46
f 37/42/40 21/48/46 20/49/47
f 35/39/37 26/50/48 38/46/44
f 38/46/44 26/50/48 25/51/49
f 38/46/44 25/51/49 24/52/50
f 33/45/43 32/53/51 36/37/35
f 36/37/35 32/53/51 31/38/36
f 29/41/39 28/54/52 35/39/37
f 35/39/37 28/54/52 27/55/53
f 35/39/37 27/55/53 26/50/48
f 24/52/50 23/56/54 38/46/44
f 38/46/44 23/56/54 22/47/45
f 20/49/47 19/57/55 37/42/40
f 37/42/40 19/57/55 18/43/41
f 44/58/56 38/59/57 43/60/58
f 43/60/58 38/59/57 37/61/59
f 43/60/58 37/61/59 40/62/60
f 40/62/60 37/61/59 39/63/61
f 41/64/62 42/65/63 40/62/60
f 40/62/60 42/65/63 43/60/58
f 39/66/64 37/67/65 49/68/66
f 49/68/66 37/67/65 36/69/67
f 49/68/66 36/69/67 46/70/68
f 46/70/68 36/69/67 45/71/69
f 47/72/70 48/73/71 46/70/68
f 46/70/68 48/73/71 49/68/66
f 45/74/72 36/75/73 54/76/74
f 54/76/74 36/75/73 35/77/75
f 54/76/74 35/77/75 51/78/76
f 51/78/76 35/77/75 50/79/77
f 52/80/78 53/81/79 51/78/76
f 51/78/76 53/81/79 54/76/74
f 55/82/80 15/83/81 41/84/82
f 41/84/82 15/83/81 14/85/83
f 41/84/82 14/85/83 42/86/84
f 42/86/84 14/85/83 13/87/85
f 42/86/84 13/87/85 12/88/86
f 55/82/80 56/89/87 15/83/81
f 15/83/81 56/89/87 16/90/88
f 16/90/88 56/89/87 57/91/89
f 16/90/88 57/91/89 58/92/90
f 16/90/88 58/92/90 17/93/91
f 17/93/91 58/92/90 48/94/92
f 17/93/91 48/94/92 1/95/93
f 1/95/93 48/94/92 47/96/94
f 1/95/93 47/96/94 2/97/95
f 2/97/95 47/96/94 59/98/96
f 2/97/95 59/98/96 3/99/97
f 3/99/97 59/98/96 60/100/98
f 3/99/97 60/100/98 61/101/99
f 3/99/97 61/101/99 4/102/100
f 4/102/100 61/101/99 62/103/101
f 4/102/100 62/103/101 53/104/102
f 4/102/100 53/104/102 5/105/103
f 5/105/103 53/104/102 52/106/104
f 5/105/103 52/106/104 6/107/105
f 6/107/105 52/106/104 7/108/106
f 7/108/106 52/106/104 63/109/107
f 7/108/106 63/109/107 64/110/108
f 64/110/108 65/111/109 7/108/106
f 7/108/106 65/111/109 8/112/110
f 8/112/110 65/111/109 66/113/111
f 8/112/110 66/113/111 67/114/112
f 68/115/113 10/116/114 67/114/112
f 67/114/112 10/116/114 9/117/115
f 67/114/112 9/117/115 8/112/110
f 10/116/114 68/115/113 11/118/116
f 11/118/116 68/115/113 69/119/117
f 11/118/116 69/119/117 70/120/118
f 11/118/116 70/120/118 12/88/86
f 12/88/86 70/120/118 71/121/119
f 12/88/86 71/121/119 72/122/120
f 72/122/120 42/86/84 12/88/86
f 50/123/121 35/124/122 74/125/123
f 74/125/123 35/124/122 38/126/124
f 74/125/123 38/126/124 73/127/125
f 73/127/125 38/126/124 44/128/126
f 68/129/127 67/130/128 73/127/125
f 73/127/125 67/130/128 74/125/123
f 51/131/129 50/132/130 78/133/131
f 78/133/131 50/132/130 75/134/132
f 78/133/131 75/134/132 77/135/133
f 77/135/133 75/134/132 76/136/134
f 50/132/130 74/137/135 75/134/132
f 63/138/136 52/139/137 78/140/138
f 78/140/138 52/139/137 51/141/139
f 75/142/140 66/143/141 76/144/142
f 76/144/142 66/143/141 65/145/143
f 76/144/142 65/145/143 77/146/144
f 77/146/144 65/145/143 64/147/145
f 77/146/144 64/147/145 78/148/138
f 78/148/138 64/147/145 63/149/136
f 67/150/146 66/151/141 74/152/147
f 74/152/147 66/151/141 75/153/140
f 80/154/148 81/155/149 79/156/150
f 79/156/150 81/155/149 82/157/151
f 79/156/150 82/157/151 44/158/152
f 44/158/152 82/157/151 73/159/153
f 44/158/152 43/160/154 79/156/150
f 79/161/155 72/162/156 80/163/157
f 80/163/157 72/162/156 71/164/158
f 80/163/157 71/164/158 81/165/159
f 81/165/159 71/164/158 70/166/160
f 81/165/159 70/166/160 82/167/161
f 82/167/161 70/166/160 69/168/162
f 42/169/163 72/170/156 43/171/164
f 43/171/164 72/170/156 79/172/155
f 69/173/162 68/174/165 82/175/161
f 82/175/161 68/174/165 73/176/166
f 46/177/167 45/178/168 86/179/169
f 86/179/169 45/178/168 83/180/170
f 86/179/169 83/180/170 84/181/171
f 45/178/168 54/182/172 83/180/170
f 84/181/171 85/183/173 86/179/169
f 59/184/174 47/185/175 86/186/176
f 86/186/176 47/185/175 46/187/177
f 83/188/178 62/189/179 84/190/180
f 84/190/180 62/189/179 61/191/181
f 84/190/180 61/191/181 85/192/182
f 85/192/182 61/191/181 60/193/183
f 85/192/182 60/193/183 86/194/176
f 86/194/176 60/193/183 59/195/174
f 53/196/184 62/197/179 54/198/185
f 54/198/185 62/197/179 83/199/178
f 40/200/186 39/201/187 90/202/188
f 90/202/188 39/201/187 87/203/189
f 90/202/188 87/203/189 88/204/190
f 39/201/187 49/205/191 87/203/189
f 88/204/190 89/206/192 90/202/188
f 55/207/193 41/208/194 90/209/195
f 90/209/195 41/208/194 40/210/196
f 87/211/197 58/212/198 88/213/199
f 88/213/199 58/212/198 57/214/200
f 88/213/199 57/214/200 89/215/201
f 89/215/201 57/214/200 56/216/202
f 89/215/201 56/216/202 90/217/195
f 90/217/195 56/216/202 55/218/193
f 48/219/203 58/220/198 49/221/204
f 49/221/204 58/220/198 87/222/197
# 90 vertices
# 222 texture params
# 204 normals
# 180 facets

# 1 groups
