# WaveFront *.obj file (generated by Autodesk ATF)

mtllib Chasis and Pillars_Pillars & Battery v1_Hex Spacer FF M3 L60mm v2_5_Body1.mtl

g Body1

v 0.060300 0.056443 0.080000
v 0.060300 0.053557 0.080000
v 0.062800 0.052113 0.080000
v 0.065300 0.053557 0.080000
v 0.065300 0.056443 0.080000
v 0.062800 0.057887 0.080000
v 0.062800 0.056200 0.080000
v 0.063400 0.056039 0.080000
v 0.063839 0.055600 0.080000
v 0.064000 0.055000 0.080000
v 0.063839 0.054400 0.080000
v 0.063400 0.053961 0.080000
v 0.062800 0.053800 0.080000
v 0.062200 0.053961 0.080000
v 0.061761 0.054400 0.080000
v 0.061600 0.055000 0.080000
v 0.061761 0.055600 0.080000
v 0.062200 0.056039 0.080000
v 0.062800 0.053800 0.073000
v 0.063265 0.053894 0.073000
v 0.063648 0.054152 0.073000
v 0.063911 0.054547 0.073000
v 0.064000 0.055000 0.073000
v 0.063906 0.055465 0.073000
v 0.063648 0.055848 0.073000
v 0.063253 0.056111 0.073000
v 0.062800 0.056200 0.073000
v 0.062335 0.056106 0.073000
v 0.061952 0.055848 0.073000
v 0.061689 0.055453 0.073000
v 0.061600 0.055000 0.073000
v 0.061694 0.054535 0.073000
v 0.061952 0.054152 0.073000
v 0.062347 0.053889 0.073000
v 0.062800 0.055000 0.072000
v 0.062800 0.057887 0.000000
v 0.060300 0.056443 0.000000
v 0.060300 0.053557 0.000000
v 0.062800 0.052113 0.000000
v 0.065300 0.053557 0.000000
v 0.065300 0.056443 0.000000
v 0.062800 0.053800 0.000000
v 0.063400 0.053961 0.000000
v 0.063839 0.054400 0.000000
v 0.064000 0.055000 0.000000
v 0.063839 0.055600 0.000000
v 0.063400 0.056039 0.000000
v 0.062800 0.056200 0.000000
v 0.062200 0.056039 0.000000
v 0.061761 0.055600 0.000000
v 0.061600 0.055000 0.000000
v 0.061761 0.054400 0.000000
v 0.062200 0.053961 0.000000
v 0.062800 0.056200 0.033000
v 0.062335 0.056106 0.033000
v 0.061952 0.055848 0.033000
v 0.061689 0.055453 0.033000
v 0.061600 0.055000 0.033000
v 0.061694 0.054535 0.033000
v 0.061952 0.054152 0.033000
v 0.062347 0.053889 0.033000
v 0.062800 0.053800 0.033000
v 0.063265 0.053894 0.033000
v 0.063648 0.054152 0.033000
v 0.063911 0.054547 0.033000
v 0.064000 0.055000 0.033000
v 0.063906 0.055465 0.033000
v 0.063648 0.055848 0.033000
v 0.063253 0.056111 0.033000
v 0.062800 0.053800 0.022000
v 0.062800 0.053800 0.011000
v 0.062200 0.056039 0.022000
v 0.062200 0.056039 0.011000
v 0.062800 0.056200 0.011000
v 0.062800 0.056200 0.022000
v 0.061761 0.055600 0.022000
v 0.061761 0.055600 0.011000
v 0.061600 0.055000 0.022000
v 0.061600 0.055000 0.011000
v 0.061761 0.054400 0.022000
v 0.061761 0.054400 0.011000
v 0.062200 0.053961 0.022000
v 0.062200 0.053961 0.011000
v 0.063400 0.053961 0.022000
v 0.063400 0.053961 0.011000
v 0.063839 0.054400 0.022000
v 0.063839 0.054400 0.011000
v 0.064000 0.055000 0.022000
v 0.064000 0.055000 0.011000
v 0.063839 0.055600 0.022000
v 0.063839 0.055600 0.011000
v 0.063400 0.056039 0.022000
v 0.063400 0.056039 0.011000
v 0.062800 0.055000 0.034000
vt -0.005000 -0.110662 0.000000
vt -0.135000 -0.255000 0.000000
vt -0.005000 -0.399338 0.000000
vt -0.151077 -0.315000 0.000000
vt -0.195000 -0.358923 0.000000
vt -0.255000 0.033675 0.000000
vt -0.195000 -0.151077 0.000000
vt -0.151077 -0.195000 0.000000
vt -0.505000 -0.110662 0.000000
vt -0.315000 -0.151077 0.000000
vt -0.255000 -0.135000 0.000000
vt -0.505000 -0.399338 0.000000
vt -0.375000 -0.255000 0.000000
vt -0.358923 -0.195000 0.000000
vt -0.255000 -0.543675 0.000000
vt -0.315000 -0.358923 0.000000
vt -0.358923 -0.315000 0.000000
vt -0.255000 -0.375000 0.000000
vt 0.140560 0.175189 0.000000
vt -0.015621 0.157080 0.000000
vt 0.140584 0.151290 0.000000
vt 0.140560 -0.154679 0.000000
vt -0.015621 -0.157080 0.000000
vt 0.140560 -0.178577 0.000000
vt 0.140560 -0.131453 0.000000
vt 0.140560 -0.107555 0.000000
vt -0.015621 -0.125664 0.000000
vt 0.140560 -0.084329 0.000000
vt -0.015621 -0.094248 0.000000
vt 0.140560 -0.060431 0.000000
vt -0.015621 -0.062832 0.000000
vt 0.140560 -0.037205 0.000000
vt 0.140560 -0.013307 0.000000
vt -0.015621 -0.031416 0.000000
vt 0.140560 0.009918 0.000000
vt -0.015621 0.000000 0.000000
vt 0.140560 0.033817 0.000000
vt -0.015621 0.031416 0.000000
vt 0.140560 0.057042 0.000000
vt 0.140560 0.080941 0.000000
vt -0.015621 0.062832 0.000000
vt 0.140560 0.104166 0.000000
vt -0.015621 0.094248 0.000000
vt 0.140560 0.128065 0.000000
vt -0.015621 0.125664 0.000000
vt -0.015621 -0.188496 0.000000
vt 0.140560 -0.201803 0.000000
vt 0.487832 -0.047797 0.000000
vt 0.487832 -0.000000 0.000000
vt -0.212168 0.000000 0.000000
vt 0.487832 0.046451 0.000000
vt -0.212168 0.062832 0.000000
vt 0.487832 0.094248 0.000000
vt -0.212168 0.125664 0.000000
vt 0.487832 0.140699 0.000000
vt -0.212168 0.188496 0.000000
vt 0.487832 0.188496 0.000000
vt 0.487832 0.234947 0.000000
vt -0.212168 0.251327 0.000000
vt 0.487832 0.282743 0.000000
vt -0.212168 0.314159 0.000000
vt 0.487832 0.329194 0.000000
vt -0.212168 0.376991 0.000000
vt 0.487832 0.376991 0.000000
vt -0.212168 -0.376991 0.000000
vt 0.487832 -0.376991 0.000000
vt 0.487832 -0.330540 0.000000
vt -0.212168 -0.314159 0.000000
vt 0.487832 -0.282743 0.000000
vt -0.212168 -0.251327 0.000000
vt 0.487832 -0.236292 0.000000
vt -0.212168 -0.188496 0.000000
vt 0.487832 -0.188496 0.000000
vt 0.487832 -0.142045 0.000000
vt -0.212168 -0.125664 0.000000
vt 0.487832 -0.094248 0.000000
vt -0.212168 -0.062832 0.000000
vt 8.300000 -0.000000 0.000000
vt 0.300000 0.000000 0.000000
vt 8.300000 -0.288675 0.000000
vt 0.300000 -0.288675 0.000000
vt -8.300000 0.000000 0.000000
vt -0.300000 0.000000 0.000000
vt -8.300000 0.288675 0.000000
vt -0.300000 0.288675 0.000000
vt -8.300000 -0.000000 0.000000
vt -0.300000 -0.000000 0.000000
vt -8.300000 0.288675 0.000000
vt -0.300000 0.288675 0.000000
vt 0.288675 8.300000 0.000000
vt 0.000000 8.300000 0.000000
vt 0.288675 0.300000 0.000000
vt 0.000000 0.300000 0.000000
vt 0.288675 8.300000 0.000000
vt 0.000000 8.300000 0.000000
vt 0.288675 0.300000 0.000000
vt 0.000000 0.300000 0.000000
vt 8.300000 0.000000 0.000000
vt 0.300000 0.000000 0.000000
vt 8.300000 -0.288675 0.000000
vt 0.300000 -0.288675 0.000000
vt 0.195000 -0.151077 0.000000
vt 0.255000 -0.135000 0.000000
vt 0.255000 0.033675 0.000000
vt 0.315000 -0.151077 0.000000
vt 0.505000 -0.110662 0.000000
vt 0.358923 -0.195000 0.000000
vt 0.375000 -0.255000 0.000000
vt 0.505000 -0.399338 0.000000
vt 0.358923 -0.315000 0.000000
vt 0.315000 -0.358923 0.000000
vt 0.255000 -0.543675 0.000000
vt 0.255000 -0.375000 0.000000
vt 0.195000 -0.358923 0.000000
vt 0.005000 -0.399338 0.000000
vt 0.151077 -0.315000 0.000000
vt 0.135000 -0.255000 0.000000
vt 0.005000 -0.110662 0.000000
vt 0.151077 -0.195000 0.000000
vt 0.975663 -0.046451 0.000000
vt 0.975663 -0.000000 0.000000
vt -0.124336 -0.000000 0.000000
vt 0.975663 0.047797 0.000000
vt -0.124336 0.062832 0.000000
vt 0.975663 0.094248 0.000000
vt -0.124336 0.125664 0.000000
vt 0.975664 0.142045 0.000000
vt -0.124336 0.188496 0.000000
vt 0.975664 0.188496 0.000000
vt 0.975664 0.236292 0.000000
vt -0.124336 0.251327 0.000000
vt 0.975664 0.282743 0.000000
vt -0.124336 0.314159 0.000000
vt 0.975664 0.330540 0.000000
vt -0.124336 0.376991 0.000000
vt 0.975664 0.376991 0.000000
vt -0.124336 -0.376991 0.000000
vt 0.975664 -0.376991 0.000000
vt 0.975664 -0.329194 0.000000
vt -0.124336 -0.314159 0.000000
vt 0.975664 -0.282743 0.000000
vt -0.124336 -0.251327 0.000000
vt 0.975664 -0.234947 0.000000
vt -0.124336 -0.188496 0.000000
vt 0.975664 -0.188496 0.000000
vt 0.975663 -0.140699 0.000000
vt -0.124336 -0.125664 0.000000
vt 0.975663 -0.094248 0.000000
vt -0.124336 -0.062832 0.000000
vt -2.324337 0.314159 0.000000
vt -1.224336 0.314159 0.000000
vt -2.324337 0.376991 0.000000
vt -1.224336 0.376991 0.000000
vt -2.324337 -0.376991 0.000000
vt -1.224336 -0.376991 0.000000
vt -2.324337 -0.314159 0.000000
vt -1.224336 -0.314159 0.000000
vt -2.324337 -0.251327 0.000000
vt -1.224336 -0.251327 0.000000
vt -1.224336 -0.188496 0.000000
vt -1.224336 0.251327 0.000000
vt -2.324337 0.251327 0.000000
vt -2.324337 0.188496 0.000000
vt -1.224336 0.188496 0.000000
vt -2.324337 0.125664 0.000000
vt -1.224336 0.125664 0.000000
vt -1.224336 0.062832 0.000000
vt -2.324337 0.062832 0.000000
vt -1.224336 -0.000000 0.000000
vt -2.324337 0.000000 0.000000
vt -1.224336 -0.062832 0.000000
vt -2.324337 -0.062832 0.000000
vt -1.224336 -0.125664 0.000000
vt -2.324337 -0.125664 0.000000
vt -2.324337 -0.188496 0.000000
vt -0.140560 -0.060431 0.000000
vt 0.015621 -0.062832 0.000000
vt -0.140584 -0.037205 0.000000
vt -0.140560 -0.084329 0.000000
vt -0.140560 -0.107555 0.000000
vt 0.015621 -0.094248 0.000000
vt -0.140560 -0.131453 0.000000
vt 0.015621 -0.125664 0.000000
vt -0.140560 -0.154679 0.000000
vt 0.015621 -0.157080 0.000000
vt -0.140560 -0.178577 0.000000
vt -0.140560 0.198414 0.000000
vt -0.140560 0.175189 0.000000
vt 0.015621 0.188496 0.000000
vt -0.140560 0.151290 0.000000
vt 0.015621 0.157080 0.000000
vt -0.140560 0.128065 0.000000
vt 0.015621 0.125664 0.000000
vt -0.140560 0.104166 0.000000
vt -0.140560 0.080941 0.000000
vt 0.015621 0.094248 0.000000
vt -0.140560 0.057042 0.000000
vt 0.015621 0.062832 0.000000
vt -0.140560 0.033817 0.000000
vt 0.015621 0.031416 0.000000
vt -0.140560 0.009918 0.000000
vt -0.140560 -0.013307 0.000000
vt 0.015621 0.000000 0.000000
vt 0.015621 -0.031416 0.000000
vn 0.000000 0.000000 100.000000
vn 0.000000 0.000000 100.000000
vn 0.000000 0.000000 100.000000
vn 0.000000 0.000000 100.000000
vn 0.000000 0.000000 100.000000
vn 0.000000 0.000000 100.000000
vn 0.000000 0.000000 100.000000
vn 0.000000 0.000000 100.000000
vn 0.000000 0.000000 100.000000
vn 0.000000 0.000000 100.000000
vn 0.000000 0.000000 100.000000
vn 0.000000 0.000000 100.000000
vn 0.000000 0.000000 100.000000
vn 0.000000 0.000000 100.000000
vn 0.000000 0.000000 100.000000
vn 0.000000 0.000000 100.000000
vn 0.000000 0.000000 100.000000
vn 0.000000 0.000000 100.000000
vn -24.830008 59.006618 76.822456
vn -6.167637 63.720231 76.822473
vn -0.000000 64.018025 76.822474
vn -59.281644 24.166431 76.822330
vn -58.267399 26.518646 76.822338
vn -45.267767 45.267507 76.822406
vn -64.018303 -0.000266 76.822242
vn -59.006896 -24.830287 76.822152
vn -63.720510 -6.167915 76.822220
vn -45.267785 -45.268046 76.822078
vn -52.099762 -37.201864 76.822107
vn -24.166709 -59.281922 76.822027
vn -26.518925 -58.267677 76.822031
vn -0.000013 -64.018581 76.822010
vn 24.830008 -59.007175 76.822028
vn 6.167637 -63.720788 76.822011
vn 45.267767 -45.268063 76.822078
vn 37.201585 -52.100040 76.822053
vn 59.281644 -24.166988 76.822154
vn 58.267399 -26.519203 76.822146
vn 64.018303 -0.000291 76.822242
vn 59.006896 24.829730 76.822332
vn 63.720510 6.167359 76.822264
vn 45.267785 45.267489 76.822406
vn 52.099762 37.201307 76.822377
vn 24.166709 59.281365 76.822457
vn 26.518925 58.267120 76.822453
vn -37.201585 52.099483 76.822431
vn -38.785796 92.171916 0.000000
vn -0.000000 100.000000 0.000000
vn 0.000000 100.000000 -0.000000
vn 37.749688 92.601086 -0.000000
vn 50.000000 86.602540 -0.000000
vn 70.710692 70.710664 -0.000000
vn 86.602540 50.000000 -0.000000
vn 92.171916 38.785796 -0.000000
vn 100.000000 0.000000 -0.000000
vn 100.000000 -0.000020 -0.000000
vn 92.601086 -37.749688 -0.000000
vn 86.602540 -50.000000 -0.000000
vn 70.710664 -70.710692 -0.000000
vn 50.000000 -86.602540 -0.000000
vn 38.785796 -92.171916 -0.000000
vn 0.000000 -100.000000 0.000000
vn 0.000000 -100.000000 0.000000
vn -37.749688 -92.601086 0.000000
vn -50.000000 -86.602540 0.000000
vn -70.710692 -70.710664 0.000000
vn -86.602540 -50.000000 0.000000
vn -92.171916 -38.785796 0.000000
vn -100.000000 0.000000 0.000000
vn -100.000000 0.000020 0.000000
vn -92.601086 37.749688 0.000000
vn -86.602540 50.000000 0.000000
vn -70.710664 70.710692 0.000000
vn -50.000000 86.602540 0.000000
vn -50.000000 86.602540 -0.000000
vn -50.000000 86.602540 -0.000000
vn -50.000000 86.602540 -0.000000
vn -50.000000 86.602540 -0.000000
vn -50.000000 -86.602540 0.000000
vn -50.000000 -86.602540 0.000000
vn -50.000000 -86.602540 0.000000
vn -50.000000 -86.602540 0.000000
vn 50.000000 -86.602540 0.000000
vn 50.000000 -86.602540 0.000000
vn 50.000000 -86.602540 0.000000
vn 50.000000 -86.602540 0.000000
vn 100.000000 -0.000000 -0.000000
vn 100.000000 -0.000000 -0.000000
vn 100.000000 -0.000000 -0.000000
vn 100.000000 -0.000000 -0.000000
vn -100.000000 0.000000 0.000000
vn -100.000000 0.000000 0.000000
vn -100.000000 0.000000 0.000000
vn -100.000000 0.000000 0.000000
vn 50.000000 86.602540 -0.000000
vn 50.000000 86.602540 -0.000000
vn 50.000000 86.602540 -0.000000
vn 50.000000 86.602540 -0.000000
vn -0.000000 -0.000000 -100.000000
vn -0.000000 -0.000000 -100.000000
vn -0.000000 -0.000000 -100.000000
vn -0.000000 -0.000000 -100.000000
vn -0.000000 -0.000000 -100.000000
vn -0.000000 -0.000000 -100.000000
vn -0.000000 -0.000000 -100.000000
vn -0.000000 -0.000000 -100.000000
vn -0.000000 -0.000000 -100.000000
vn -0.000000 -0.000000 -100.000000
vn -0.000000 -0.000000 -100.000000
vn -0.000000 -0.000000 -100.000000
vn -0.000000 -0.000000 -100.000000
vn -0.000000 -0.000000 -100.000000
vn -0.000000 -0.000000 -100.000000
vn -0.000000 -0.000000 -100.000000
vn -0.000000 -0.000000 -100.000000
vn -0.000000 -0.000000 -100.000000
vn -37.749688 -92.601086 -0.000000
vn -0.000000 -100.000000 -0.000000
vn -0.000000 -100.000000 -0.000000
vn 38.785796 -92.171916 0.000000
vn 50.000000 -86.602540 0.000000
vn 70.710664 -70.710692 0.000000
vn 86.602540 -50.000000 0.000000
vn 92.601086 -37.749688 0.000000
vn 100.000000 -0.000013 0.000000
vn 100.000000 -0.000020 0.000000
vn 92.171916 38.785796 0.000000
vn 86.602540 50.000000 0.000000
vn 70.710692 70.710664 0.000000
vn 50.000000 86.602540 0.000000
vn 37.749688 92.601086 0.000000
vn 0.000000 100.000000 0.000000
vn 0.000000 100.000000 0.000000
vn -38.785796 92.171916 -0.000000
vn -50.000000 86.602540 -0.000000
vn -70.710664 70.710692 -0.000000
vn -86.602540 50.000000 -0.000000
vn -92.601086 37.749688 -0.000000
vn -100.000000 0.000013 -0.000000
vn -100.000000 0.000020 -0.000000
vn -92.171916 -38.785796 -0.000000
vn -86.602540 -50.000000 -0.000000
vn -70.710692 -70.710664 -0.000000
vn -50.000000 -86.602540 -0.000000
vn 50.000000 86.602540 0.000000
vn 50.000000 86.602540 0.000000
vn 0.000000 100.000000 0.000000
vn 0.000000 100.000000 0.000000
vn -50.000000 86.602540 -0.000000
vn -50.000000 86.602540 -0.000000
vn -86.602540 50.000000 -0.000000
vn -86.602540 50.000000 -0.000000
vn -100.000000 0.000007 -0.000000
vn 86.602540 50.000000 0.000000
vn 86.602540 50.000000 0.000000
vn 100.000000 -0.000000 0.000000
vn 100.000000 -0.000007 0.000000
vn 86.602540 -50.000000 0.000000
vn 86.602540 -50.000000 0.000000
vn 50.000000 -86.602540 0.000000
vn 50.000000 -86.602540 0.000000
vn -0.000000 -100.000000 -0.000000
vn 0.000000 -100.000000 -0.000000
vn -50.000000 -86.602540 -0.000000
vn -50.000000 -86.602540 -0.000000
vn -86.602540 -50.000000 -0.000000
vn -86.602540 -50.000000 -0.000000
vn -100.000000 -0.000000 -0.000000
vn -24.166709 -59.281922 -76.822027
vn -26.518925 -58.267677 -76.822031
vn 0.000000 -64.018581 -76.822010
vn -45.267785 -45.268046 -76.822078
vn -59.006896 -24.830287 -76.822152
vn -52.099762 -37.201864 -76.822107
vn -64.018303 -0.000266 -76.822242
vn -63.720510 -6.167915 -76.822220
vn -59.281644 24.166431 -76.822330
vn -58.267399 26.518646 -76.822338
vn -45.267767 45.267507 -76.822406
vn -24.830008 59.006618 -76.822456
vn -37.201585 52.099483 -76.822431
vn 0.000013 64.018025 -76.822474
vn -6.167637 63.720231 -76.822473
vn 24.166709 59.281365 -76.822457
vn 26.518925 58.267120 -76.822453
vn 45.267785 45.267489 -76.822406
vn 59.006896 24.829730 -76.822332
vn 52.099762 37.201307 -76.822377
vn 64.018303 -0.000291 -76.822242
vn 63.720510 6.167359 -76.822264
vn 59.281644 -24.166988 -76.822154
vn 58.267399 -26.519203 -76.822146
vn 45.267767 -45.268063 -76.822078
vn 24.830008 -59.007175 -76.822028
vn 37.201585 -52.100040 -76.822053
vn 6.167637 -63.720788 -76.822011
usemtl Opaque(63,63,63)
f 2/1/1 16/2/2 1/3/3
f 1/3/3 16/2/2 17/4/4
f 1/3/3 17/4/4 18/5/5
f 3/6/6 14/7/7 2/1/1
f 2/1/1 14/7/7 15/8/8
f 2/1/1 15/8/8 16/2/2
f 4/9/9 12/10/10 3/6/6
f 3/6/6 12/10/10 13/11/11
f 3/6/6 13/11/11 14/7/7
f 5/12/12 10/13/13 4/9/9
f 4/9/9 10/13/13 11/14/14
f 4/9/9 11/14/14 12/10/10
f 6/15/15 8/16/16 5/12/12
f 5/12/12 8/16/16 9/17/17
f 5/12/12 9/17/17 10/13/13
f 1/3/3 18/5/5 6/15/15
f 6/15/15 18/5/5 7/18/18
f 6/15/15 7/18/18 8/16/16
f 20/19/19 35/20/20 19/21/21
f 22/22/22 35/23/23 21/24/24
f 22/22/22 23/25/25 35/23/23
f 23/25/25 24/26/26 35/27/27
f 24/26/26 25/28/28 35/29/29
f 25/28/28 26/30/30 35/31/31
f 35/31/31 26/30/30 27/32/32
f 27/32/32 28/33/33 35/34/34
f 28/33/33 29/35/35 35/36/36
f 29/35/35 30/37/37 35/38/38
f 35/38/38 30/37/37 31/39/39
f 31/39/39 32/40/40 35/41/41
f 32/40/40 33/42/42 35/43/43
f 33/42/42 34/44/44 35/45/45
f 35/45/45 34/44/44 19/21/21
f 21/24/24 35/46/46 20/47/19
f 20/48/47 19/49/48 13/50/49
f 13/50/49 19/49/48 34/51/50
f 13/50/49 34/51/50 14/52/51
f 14/52/51 34/51/50 33/53/52
f 14/52/51 33/53/52 15/54/53
f 15/54/53 33/53/52 32/55/54
f 15/54/53 32/55/54 16/56/55
f 16/56/55 32/55/54 31/57/56
f 16/56/55 31/57/56 30/58/57
f 16/56/55 30/58/57 17/59/58
f 17/59/58 30/58/57 29/60/59
f 17/59/58 29/60/59 18/61/60
f 18/61/60 29/60/59 28/62/61
f 18/61/60 28/62/61 7/63/62
f 7/63/62 28/62/61 27/64/63
f 7/65/62 27/66/63 26/67/64
f 7/65/62 26/67/64 8/68/65
f 8/68/65 26/67/64 25/69/66
f 8/68/65 25/69/66 9/70/67
f 9/70/67 25/69/66 24/71/68
f 9/70/67 24/71/68 10/72/69
f 10/72/69 24/71/68 23/73/70
f 10/72/69 23/73/70 22/74/71
f 10/72/69 22/74/71 11/75/72
f 11/75/72 22/74/71 21/76/73
f 11/75/72 21/76/73 12/77/74
f 12/77/74 21/76/73 20/48/47
f 12/77/74 20/48/47 13/50/49
f 37/78/75 1/79/76 36/80/77
f 36/80/77 1/79/76 6/81/78
f 39/82/79 3/83/80 38/84/81
f 38/84/81 3/83/80 2/85/82
f 40/86/83 4/87/84 39/88/85
f 39/88/85 4/87/84 3/89/86
f 40/90/87 41/91/88 4/92/89
f 4/92/89 41/91/88 5/93/90
f 37/94/91 38/95/92 1/96/93
f 1/96/93 38/95/92 2/97/94
f 36/98/95 6/99/96 41/100/97
f 41/100/97 6/99/96 5/101/98
f 53/102/99 42/103/100 39/104/101
f 39/104/101 42/103/100 43/105/102
f 39/104/101 43/105/102 40/106/103
f 40/106/103 43/105/102 44/107/104
f 40/106/103 44/107/104 45/108/105
f 40/106/103 45/108/105 41/109/106
f 41/109/106 45/108/105 46/110/107
f 41/109/106 46/110/107 47/111/108
f 41/109/106 47/111/108 36/112/109
f 36/112/109 47/111/108 48/113/110
f 36/112/109 48/113/110 49/114/111
f 36/112/109 49/114/111 37/115/112
f 37/115/112 49/114/111 50/116/113
f 37/115/112 50/116/113 51/117/114
f 37/115/112 51/117/114 38/118/115
f 38/118/115 51/117/114 52/119/116
f 38/118/115 52/119/116 53/102/99
f 38/118/115 53/102/99 39/104/101
f 69/120/117 54/121/118 75/122/119
f 75/122/119 54/121/118 55/123/120
f 75/122/119 55/123/120 72/124/121
f 72/124/121 55/123/120 56/125/122
f 72/124/121 56/125/122 76/126/123
f 76/126/123 56/125/122 57/127/124
f 76/126/123 57/127/124 78/128/125
f 78/128/125 57/127/124 58/129/126
f 78/128/125 58/129/126 59/130/127
f 78/128/125 59/130/127 80/131/128
f 80/131/128 59/130/127 60/132/129
f 80/131/128 60/132/129 82/133/130
f 82/133/130 60/132/129 61/134/131
f 82/133/130 61/134/131 70/135/132
f 70/135/132 61/134/131 62/136/133
f 70/137/132 62/138/133 63/139/134
f 70/137/132 63/139/134 84/140/135
f 84/140/135 63/139/134 64/141/136
f 84/140/135 64/141/136 86/142/137
f 86/142/137 64/141/136 65/143/138
f 86/142/137 65/143/138 88/144/139
f 88/144/139 65/143/138 66/145/140
f 88/144/139 66/145/140 67/146/141
f 88/144/139 67/146/141 90/147/142
f 90/147/142 67/146/141 68/148/143
f 90/147/142 68/148/143 92/149/144
f 92/149/144 68/148/143 69/120/117
f 92/149/144 69/120/117 75/122/119
f 53/150/145 83/151/146 42/152/147
f 42/152/147 83/151/146 71/153/148
f 42/154/147 71/155/148 43/156/149
f 43/156/149 71/155/148 85/157/150
f 43/156/149 85/157/150 44/158/151
f 44/158/151 85/157/150 87/159/152
f 44/158/151 87/159/152 89/160/153
f 89/160/153 87/159/152 88/144/139
f 89/160/153 88/144/139 90/147/142
f 83/151/146 53/150/145 81/161/154
f 81/161/154 53/150/145 52/162/155
f 81/161/154 52/162/155 51/163/156
f 81/161/154 51/163/156 79/164/157
f 79/164/157 51/163/156 50/165/158
f 79/164/157 50/165/158 77/166/159
f 77/166/159 50/165/158 73/167/160
f 77/166/159 73/167/160 72/124/121
f 72/124/121 73/167/160 75/122/119
f 50/165/158 49/168/161 73/167/160
f 73/167/160 49/168/161 74/169/162
f 73/167/160 74/169/162 75/122/119
f 75/122/119 74/169/162 92/149/144
f 49/168/161 48/170/163 74/169/162
f 74/169/162 48/170/163 93/171/164
f 74/169/162 93/171/164 92/149/144
f 92/149/144 93/171/164 90/147/142
f 48/170/163 47/172/165 93/171/164
f 93/171/164 47/172/165 91/173/166
f 93/171/164 91/173/166 90/147/142
f 90/147/142 91/173/166 89/160/153
f 47/172/165 46/174/167 91/173/166
f 91/173/166 46/174/167 45/175/168
f 91/173/166 45/175/168 89/160/153
f 89/160/153 45/175/168 44/158/151
f 70/135/132 71/153/148 82/133/130
f 82/133/130 71/153/148 83/151/146
f 82/133/130 83/151/146 80/131/128
f 80/131/128 83/151/146 81/161/154
f 80/131/128 81/161/154 79/164/157
f 71/155/148 70/137/132 85/157/150
f 85/157/150 70/137/132 84/140/135
f 85/157/150 84/140/135 87/159/152
f 87/159/152 84/140/135 86/142/137
f 87/159/152 86/142/137 88/144/139
f 72/124/121 76/126/123 77/166/159
f 77/166/159 76/126/123 78/128/125
f 77/166/159 78/128/125 79/164/157
f 79/164/157 78/128/125 80/131/128
f 69/176/169 94/177/170 54/178/171
f 69/176/169 68/179/172 94/177/170
f 68/179/172 67/180/173 94/181/174
f 67/180/173 66/182/175 94/183/176
f 66/182/175 65/184/177 94/185/178
f 94/185/178 65/184/177 64/186/179
f 64/187/179 63/188/180 94/189/181
f 63/188/180 62/190/182 94/191/183
f 62/190/182 61/192/184 94/193/185
f 94/193/185 61/192/184 60/194/186
f 60/194/186 59/195/187 94/196/188
f 59/195/187 58/197/189 94/198/190
f 58/197/189 57/199/191 94/200/192
f 94/200/192 57/199/191 56/201/193
f 56/201/193 55/202/194 94/203/195
f 55/202/194 54/178/171 94/204/196
# 94 vertices
# 204 texture params
# 196 normals
# 184 facets

# 1 groups
