# WaveFront *.obj file (generated by Autodesk ATF)

mtllib Chasis and Pillars_Pillars & Battery v1_hexagonal_spacer_FF_M2.5_H15_HEX5_FTD6_MTL6 v3_4_Body1.mtl

g Body1

v 0.027617 -0.008500 0.046500
v 0.027756 -0.009019 0.046500
v 0.028136 -0.009399 0.046500
v 0.028655 -0.009538 0.046500
v 0.029173 -0.009399 0.046500
v 0.029553 -0.009019 0.046500
v 0.029692 -0.008500 0.046500
v 0.029553 -0.007981 0.046500
v 0.029173 -0.007601 0.046500
v 0.028655 -0.007462 0.046500
v 0.028136 -0.007601 0.046500
v 0.027756 -0.007981 0.046500
v 0.027617 -0.008500 0.036500
v 0.027756 -0.007981 0.036500
v 0.028136 -0.007601 0.036500
v 0.028655 -0.007462 0.036500
v 0.029173 -0.007601 0.036500
v 0.029553 -0.007981 0.036500
v 0.029692 -0.008500 0.036500
v 0.029553 -0.009019 0.036500
v 0.029173 -0.009399 0.036500
v 0.028655 -0.009538 0.036500
v 0.028136 -0.009399 0.036500
v 0.027756 -0.009019 0.036500
v 0.027210 -0.011003 0.046500
v 0.030100 -0.011003 0.046500
v 0.031545 -0.008500 0.046500
v 0.030100 -0.005997 0.046500
v 0.027210 -0.005997 0.046500
v 0.025765 -0.008500 0.046500
v 0.030100 -0.011003 0.036500
v 0.031545 -0.008500 0.036500
v 0.030100 -0.005997 0.036500
v 0.027210 -0.011003 0.036500
v 0.025765 -0.008500 0.036500
v 0.027210 -0.005997 0.036500
vt -0.500000 0.271682 0.000000
vt 0.500000 0.271682 0.000000
vt -0.500000 0.326019 0.000000
vt 0.500000 0.326019 0.000000
vt -0.500000 -0.326019 0.000000
vt 0.500000 -0.326019 0.000000
vt -0.500000 -0.271682 0.000000
vt 0.500000 -0.271682 0.000000
vt -0.500000 -0.217346 0.000000
vt 0.500000 -0.217346 0.000000
vt -0.500000 -0.163009 0.000000
vt 0.500000 -0.163009 0.000000
vt -0.500000 -0.108673 0.000000
vt 0.500000 -0.108673 0.000000
vt -0.500000 -0.054336 0.000000
vt 0.500000 -0.054336 0.000000
vt -0.500000 0.000000 0.000000
vt 0.500000 0.000000 0.000000
vt -0.500000 0.054336 0.000000
vt 0.500000 0.054336 0.000000
vt -0.500000 0.108673 0.000000
vt 0.500000 0.108673 0.000000
vt -0.500000 0.163009 0.000000
vt 0.500000 0.163009 0.000000
vt -0.500000 0.217346 0.000000
vt 0.500000 0.217346 0.000000
vt -0.089872 -0.051887 0.000000
vt -0.103775 0.000000 0.000000
vt -0.289000 0.000000 0.000000
vt -0.089872 0.051888 0.000000
vt -0.144500 0.250281 0.000000
vt -0.051887 0.089872 0.000000
vt 0.000000 0.103775 0.000000
vt 0.144500 0.250281 0.000000
vt 0.051888 0.089872 0.000000
vt 0.089872 0.051887 0.000000
vt 0.289000 -0.000000 0.000000
vt 0.103775 -0.000000 0.000000
vt 0.089872 -0.051888 0.000000
vt 0.144500 -0.250281 0.000000
vt 0.051887 -0.089872 0.000000
vt -0.000000 -0.103775 0.000000
vt -0.144500 -0.250281 0.000000
vt -0.051888 -0.089872 0.000000
vt -0.289000 -2.100000 0.000000
vt -0.000000 -2.100000 0.000000
vt -0.289000 -1.100000 0.000000
vt -0.000000 -1.100000 0.000000
vt 0.089872 0.051888 0.000000
vt 0.103775 0.000000 0.000000
vt 0.289000 0.000000 0.000000
vt 0.089872 -0.051887 0.000000
vt 0.144500 -0.250281 0.000000
vt 0.051888 -0.089872 0.000000
vt -0.000000 -0.103775 0.000000
vt -0.144500 -0.250281 0.000000
vt -0.051887 -0.089872 0.000000
vt -0.089872 -0.051888 0.000000
vt -0.289000 0.000000 0.000000
vt -0.103775 0.000000 0.000000
vt -0.089872 0.051887 0.000000
vt -0.144500 0.250281 0.000000
vt -0.051888 0.089872 0.000000
vt -0.000000 0.103775 0.000000
vt 0.144500 0.250281 0.000000
vt 0.051887 0.089872 0.000000
vt -0.289000 -2.100000 0.000000
vt -0.000000 -2.100000 0.000000
vt -0.289000 -1.100000 0.000000
vt -0.000000 -1.100000 0.000000
vt -0.289000 -2.100000 0.000000
vt -0.000000 -2.100000 0.000000
vt -0.289000 -1.100000 0.000000
vt -0.000000 -1.100000 0.000000
vt -0.289000 -2.100000 0.000000
vt -0.000000 -2.100000 0.000000
vt -0.289000 -1.100000 0.000000
vt -0.000000 -1.100000 0.000000
vt -0.289000 -2.100000 0.000000
vt 0.000000 -2.100000 0.000000
vt -0.289000 -1.100000 0.000000
vt -0.000000 -1.100000 0.000000
vt -0.289000 -2.100000 0.000000
vt -0.000000 -2.100000 0.000000
vt -0.289000 -1.100000 0.000000
vt -0.000000 -1.100000 0.000000
vn 86.602540 50.000000 0.000000
vn 86.602540 50.000000 0.000000
vn 100.000000 0.000000 0.000000
vn 100.000000 0.000000 0.000000
vn 86.602540 -50.000000 -0.000000
vn 86.602540 -50.000000 -0.000000
vn 50.000000 -86.602540 -0.000000
vn 50.000000 -86.602540 -0.000000
vn -0.000000 -100.000000 -0.000000
vn -0.000000 -100.000000 -0.000000
vn -50.000000 -86.602540 -0.000000
vn -50.000000 -86.602540 -0.000000
vn -86.602540 -50.000000 -0.000000
vn -86.602540 -50.000000 -0.000000
vn -100.000000 -0.000000 0.000000
vn -100.000000 -0.000000 0.000000
vn -86.602540 50.000000 0.000000
vn -86.602540 50.000000 0.000000
vn -50.000000 86.602540 0.000000
vn -50.000000 86.602540 0.000000
vn -0.000000 100.000000 0.000000
vn -0.000000 100.000000 0.000000
vn 50.000000 86.602540 0.000000
vn 50.000000 86.602540 0.000000
vn 0.000000 -0.000000 100.000000
vn 0.000000 -0.000000 100.000000
vn 0.000000 -0.000000 100.000000
vn 0.000000 -0.000000 100.000000
vn 0.000000 -0.000000 100.000000
vn 0.000000 -0.000000 100.000000
vn 0.000000 -0.000000 100.000000
vn 0.000000 -0.000000 100.000000
vn 0.000000 -0.000000 100.000000
vn 0.000000 -0.000000 100.000000
vn 0.000000 -0.000000 100.000000
vn 0.000000 -0.000000 100.000000
vn 0.000000 -0.000000 100.000000
vn 0.000000 -0.000000 100.000000
vn 0.000000 -0.000000 100.000000
vn 0.000000 -0.000000 100.000000
vn 0.000000 -0.000000 100.000000
vn 0.000000 -0.000000 100.000000
vn 86.602540 -50.000000 -0.000000
vn 86.602540 -50.000000 -0.000000
vn 86.602540 -50.000000 -0.000000
vn 86.602540 -50.000000 -0.000000
vn -0.000000 0.000000 -100.000000
vn -0.000000 0.000000 -100.000000
vn -0.000000 0.000000 -100.000000
vn -0.000000 0.000000 -100.000000
vn -0.000000 0.000000 -100.000000
vn -0.000000 0.000000 -100.000000
vn -0.000000 0.000000 -100.000000
vn -0.000000 0.000000 -100.000000
vn -0.000000 0.000000 -100.000000
vn -0.000000 0.000000 -100.000000
vn -0.000000 0.000000 -100.000000
vn -0.000000 0.000000 -100.000000
vn -0.000000 0.000000 -100.000000
vn -0.000000 0.000000 -100.000000
vn -0.000000 0.000000 -100.000000
vn -0.000000 0.000000 -100.000000
vn -0.000000 0.000000 -100.000000
vn -0.000000 0.000000 -100.000000
vn 0.000000 100.000000 0.000000
vn 0.000000 100.000000 0.000000
vn 0.000000 100.000000 0.000000
vn 0.000000 100.000000 0.000000
vn -0.000000 -100.000000 -0.000000
vn -0.000000 -100.000000 -0.000000
vn -0.000000 -100.000000 -0.000000
vn -0.000000 -100.000000 -0.000000
vn -86.602540 50.000000 0.000000
vn -86.602540 50.000000 0.000000
vn -86.602540 50.000000 0.000000
vn -86.602540 50.000000 0.000000
vn -86.602540 -50.000000 -0.000000
vn -86.602540 -50.000000 -0.000000
vn -86.602540 -50.000000 -0.000000
vn -86.602540 -50.000000 -0.000000
vn 86.602540 50.000000 0.000000
vn 86.602540 50.000000 0.000000
vn 86.602540 50.000000 0.000000
vn 86.602540 50.000000 0.000000
usemtl Steel_-_Satin
f 2/1/1 24/2/2 1/3/3
f 1/3/3 24/2/2 13/4/4
f 1/5/3 13/6/4 12/7/5
f 12/7/5 13/6/4 14/8/6
f 12/7/5 14/8/6 11/9/7
f 11/9/7 14/8/6 15/10/8
f 11/9/7 15/10/8 10/11/9
f 10/11/9 15/10/8 16/12/10
f 10/11/9 16/12/10 9/13/11
f 9/13/11 16/12/10 17/14/12
f 9/13/11 17/14/12 8/15/13
f 8/15/13 17/14/12 18/16/14
f 8/15/13 18/16/14 7/17/15
f 7/17/15 18/16/14 19/18/16
f 7/17/15 19/18/16 6/19/17
f 6/19/17 19/18/16 20/20/18
f 6/19/17 20/20/18 5/21/19
f 5/21/19 20/20/18 21/22/20
f 5/21/19 21/22/20 4/23/21
f 4/23/21 21/22/20 22/24/22
f 4/23/21 22/24/22 3/25/23
f 3/25/23 22/24/22 23/26/24
f 3/25/23 23/26/24 2/1/1
f 2/1/1 23/26/24 24/2/2
usemtl Opaque(204,204,204)
f 2/27/25 1/28/26 30/29/27
f 30/29/27 1/28/26 12/30/28
f 30/29/27 12/30/28 29/31/29
f 29/31/29 12/30/28 11/32/30
f 29/31/29 11/32/30 10/33/31
f 29/31/29 10/33/31 28/34/32
f 28/34/32 10/33/31 9/35/33
f 28/34/32 9/35/33 8/36/34
f 28/34/32 8/36/34 27/37/35
f 27/37/35 8/36/34 7/38/36
f 27/37/35 7/38/36 6/39/37
f 27/37/35 6/39/37 26/40/38
f 26/40/38 6/39/37 5/41/39
f 26/40/38 5/41/39 4/42/40
f 26/40/38 4/42/40 25/43/41
f 25/43/41 4/42/40 3/44/42
f 25/43/41 3/44/42 2/27/25
f 25/43/41 2/27/25 30/29/27
f 27/45/43 26/46/44 32/47/45
f 32/47/45 26/46/44 31/48/46
f 14/49/47 13/50/48 35/51/49
f 35/51/49 13/50/48 24/52/50
f 35/51/49 24/52/50 34/53/51
f 34/53/51 24/52/50 23/54/52
f 34/53/51 23/54/52 22/55/53
f 34/53/51 22/55/53 31/56/54
f 31/56/54 22/55/53 21/57/55
f 31/56/54 21/57/55 20/58/56
f 31/56/54 20/58/56 32/59/57
f 32/59/57 20/58/56 19/60/58
f 32/59/57 19/60/58 18/61/59
f 32/59/57 18/61/59 33/62/60
f 33/62/60 18/61/59 17/63/61
f 33/62/60 17/63/61 16/64/62
f 33/62/60 16/64/62 36/65/63
f 36/65/63 16/64/62 15/66/64
f 36/65/63 15/66/64 14/49/47
f 36/65/63 14/49/47 35/51/49
f 29/67/65 28/68/66 36/69/67
f 36/69/67 28/68/66 33/70/68
f 26/71/69 25/72/70 31/73/71
f 31/73/71 25/72/70 34/74/72
f 30/75/73 29/76/74 35/77/75
f 35/77/75 29/76/74 36/78/76
f 25/79/77 30/80/78 34/81/79
f 34/81/79 30/80/78 35/82/80
f 28/83/81 27/84/82 33/85/83
f 33/85/83 27/84/82 32/86/84
# 36 vertices
# 86 texture params
# 84 normals
# 72 facets

# 1 groups
