# WaveFront *.obj file (generated by Autodesk ATF)

mtllib hambot_Pillars & Battery v1_RPi_4 v1_1_3.5 mm Audio_1_3.5 mm Audio.mtl

g 3.5 mm Audio

v 0.033117 0.039000 0.050500
v 0.033117 0.039228 0.051648
v 0.033117 0.039879 0.052621
v 0.033117 0.040852 0.053272
v 0.033117 0.042000 0.053500
v 0.033117 0.043148 0.053272
v 0.033117 0.044121 0.052621
v 0.033117 0.044772 0.051648
v 0.033117 0.045000 0.050500
v 0.033117 0.044772 0.049352
v 0.033117 0.044121 0.048379
v 0.033117 0.043148 0.047728
v 0.033117 0.042000 0.047500
v 0.033117 0.040852 0.047728
v 0.033117 0.039879 0.048379
v 0.033117 0.039228 0.049352
v 0.030617 0.042000 0.053500
v 0.030617 0.040852 0.053272
v 0.030617 0.039879 0.052621
v 0.030617 0.039228 0.051648
v 0.030617 0.039000 0.050500
v 0.030617 0.039228 0.049352
v 0.030617 0.039879 0.048379
v 0.030617 0.040852 0.047728
v 0.030617 0.042000 0.047500
v 0.030617 0.043148 0.047728
v 0.030617 0.044121 0.048379
v 0.030617 0.044772 0.049352
v 0.030617 0.045000 0.050500
v 0.030617 0.044772 0.051648
v 0.030617 0.044121 0.052621
v 0.030617 0.043148 0.053272
v 0.030617 0.045500 0.047500
v 0.030617 0.045500 0.053500
v 0.030617 0.038500 0.053500
v 0.030617 0.038500 0.047500
v 0.019117 0.045500 0.047500
v 0.019117 0.038500 0.047500
v 0.019117 0.038500 0.053500
v 0.019117 0.045500 0.053500
vt -0.250000 0.824668 0.000000
vt -0.000000 0.824668 0.000000
vt -0.250000 0.942478 0.000000
vt -0.000000 0.942478 0.000000
vt -0.250000 -0.942478 0.000000
vt -0.000000 -0.942478 0.000000
vt -0.250000 -0.824668 0.000000
vt 0.000000 -0.824668 0.000000
vt -0.250000 -0.706858 0.000000
vt -0.000000 -0.706858 0.000000
vt -0.250000 -0.589049 0.000000
vt 0.000000 -0.589049 0.000000
vt -0.250000 -0.471239 0.000000
vt -0.000000 -0.471239 0.000000
vt -0.250000 -0.353429 0.000000
vt -0.000000 -0.353429 0.000000
vt -0.250000 -0.235619 0.000000
vt -0.000000 -0.235619 0.000000
vt -0.250000 -0.117810 0.000000
vt -0.000000 -0.117810 0.000000
vt -0.250000 0.000000 0.000000
vt -0.000000 0.000000 0.000000
vt -0.250000 0.117810 0.000000
vt -0.000000 0.117810 0.000000
vt -0.250000 0.235619 0.000000
vt -0.000000 0.235619 0.000000
vt -0.250000 0.353429 0.000000
vt -0.000000 0.353429 0.000000
vt -0.250000 0.471239 0.000000
vt -0.000000 0.471239 0.000000
vt -0.250000 0.589049 0.000000
vt -0.000000 0.589049 0.000000
vt -0.250000 0.706858 0.000000
vt -0.000000 0.706858 0.000000
vt -0.277164 -0.114805 0.000000
vt 0.277164 -0.114805 0.000000
vt -0.300000 -0.000000 0.000000
vt 0.300000 0.000000 0.000000
vt -0.277164 0.114805 0.000000
vt 0.277164 0.114805 0.000000
vt -0.212132 0.212132 0.000000
vt 0.212132 0.212132 0.000000
vt -0.114805 0.277164 0.000000
vt 0.114805 0.277164 0.000000
vt 0.000000 0.300000 0.000000
vt 0.212132 -0.212132 0.000000
vt -0.212132 -0.212132 0.000000
vt 0.114805 -0.277164 0.000000
vt -0.114805 -0.277164 0.000000
vt 0.000000 -0.300000 0.000000
vt 0.350000 0.600000 0.000000
vt 0.464805 0.577164 0.000000
vt 0.700000 0.600000 0.000000
vt 0.562132 0.512132 0.000000
vt 0.627164 0.414805 0.000000
vt 0.650000 0.300000 0.000000
vt 0.700000 0.000000 0.000000
vt 0.627164 0.185195 0.000000
vt 0.562132 0.087868 0.000000
vt 0.464805 0.022836 0.000000
vt 0.350000 -0.000000 0.000000
vt 0.235195 0.022836 0.000000
vt 0.000000 0.000000 0.000000
vt 0.137868 0.087868 0.000000
vt 0.072836 0.185195 0.000000
vt 0.050000 0.300000 0.000000
vt 0.000000 0.600000 0.000000
vt 0.072836 0.414805 0.000000
vt 0.137868 0.512132 0.000000
vt 0.235195 0.577164 0.000000
vt 0.350000 0.600000 0.000000
vt 0.000000 0.000000 0.000000
vt 0.700000 0.000000 0.000000
vt 0.000000 0.600000 0.000000
vt 0.700000 0.600000 0.000000
vt 0.000000 0.000000 0.000000
vt 1.150000 0.000000 0.000000
vt 0.000000 0.600000 0.000000
vt 1.150000 0.600000 0.000000
vt 0.000000 0.000000 0.000000
vt 1.150000 0.000000 0.000000
vt 0.000000 0.600000 0.000000
vt 1.150000 0.600000 0.000000
vt -0.350000 -0.575000 0.000000
vt 0.000000 -0.575000 0.000000
vt -0.350000 0.575000 0.000000
vt 0.350000 0.575000 0.000000
vt 0.350000 -0.575000 0.000000
vt 0.350000 -0.575000 0.000000
vt 0.350000 0.575000 0.000000
vt -0.000000 -0.575000 0.000000
vt -0.350000 0.575000 0.000000
vt -0.350000 -0.575000 0.000000
vn -0.000000 -92.387953 38.268343
vn -0.000000 -92.387953 38.268343
vn -0.000000 -100.000000 0.000000
vn -0.000000 -100.000000 0.000000
vn -0.000000 -92.387953 -38.268343
vn -0.000000 -92.387953 -38.268343
vn -0.000000 -70.710678 -70.710678
vn -0.000000 -70.710678 -70.710678
vn -0.000000 -38.268343 -92.387953
vn -0.000000 -38.268343 -92.387953
vn 0.000000 0.000000 -100.000000
vn 0.000000 0.000000 -100.000000
vn 0.000000 38.268343 -92.387953
vn 0.000000 38.268343 -92.387953
vn 0.000000 70.710678 -70.710678
vn 0.000000 70.710678 -70.710678
vn 0.000000 92.387953 -38.268343
vn 0.000000 92.387953 -38.268343
vn 0.000000 100.000000 0.000000
vn 0.000000 100.000000 0.000000
vn 0.000000 92.387953 38.268343
vn 0.000000 92.387953 38.268343
vn 0.000000 70.710678 70.710678
vn 0.000000 70.710678 70.710678
vn 0.000000 38.268343 92.387953
vn 0.000000 38.268343 92.387953
vn 0.000000 0.000000 100.000000
vn 0.000000 0.000000 100.000000
vn -0.000000 -38.268343 92.387953
vn -0.000000 -38.268343 92.387953
vn -0.000000 -70.710678 70.710678
vn -0.000000 -70.710678 70.710678
vn 100.000000 -0.000000 -0.000000
vn 100.000000 -0.000000 -0.000000
vn 100.000000 -0.000000 -0.000000
vn 100.000000 -0.000000 -0.000000
vn 100.000000 -0.000000 -0.000000
vn 100.000000 -0.000000 -0.000000
vn 100.000000 -0.000000 -0.000000
vn 100.000000 -0.000000 -0.000000
vn 100.000000 -0.000000 -0.000000
vn 100.000000 -0.000000 -0.000000
vn 100.000000 -0.000000 -0.000000
vn 100.000000 -0.000000 -0.000000
vn 100.000000 -0.000000 -0.000000
vn 100.000000 -0.000000 -0.000000
vn 100.000000 -0.000000 -0.000000
vn 100.000000 -0.000000 -0.000000
vn 100.000000 -0.000000 -0.000000
vn 100.000000 -0.000000 -0.000000
vn 100.000000 -0.000000 -0.000000
vn 100.000000 -0.000000 -0.000000
vn 100.000000 -0.000000 -0.000000
vn 100.000000 -0.000000 -0.000000
vn 100.000000 -0.000000 -0.000000
vn 100.000000 -0.000000 -0.000000
vn 100.000000 -0.000000 -0.000000
vn 100.000000 -0.000000 -0.000000
vn 100.000000 -0.000000 -0.000000
vn 100.000000 -0.000000 -0.000000
vn 100.000000 -0.000000 -0.000000
vn 100.000000 -0.000000 -0.000000
vn 100.000000 -0.000000 -0.000000
vn 100.000000 -0.000000 -0.000000
vn 100.000000 -0.000000 -0.000000
vn 100.000000 -0.000000 -0.000000
vn 100.000000 -0.000000 -0.000000
vn 100.000000 -0.000000 -0.000000
vn -100.000000 0.000000 0.000000
vn -100.000000 0.000000 0.000000
vn -100.000000 0.000000 0.000000
vn -100.000000 0.000000 0.000000
vn 0.000000 100.000000 0.000000
vn 0.000000 100.000000 0.000000
vn 0.000000 100.000000 0.000000
vn 0.000000 100.000000 0.000000
vn -0.000000 -100.000000 -0.000000
vn -0.000000 -100.000000 -0.000000
vn -0.000000 -100.000000 -0.000000
vn -0.000000 -100.000000 -0.000000
vn 0.000000 -0.000000 100.000000
vn 0.000000 -0.000000 100.000000
vn 0.000000 -0.000000 100.000000
vn 0.000000 -0.000000 100.000000
vn -0.000000 0.000000 -100.000000
vn -0.000000 0.000000 -100.000000
vn -0.000000 0.000000 -100.000000
vn -0.000000 0.000000 -100.000000
usemtl Kunststoff_-_glänzend_(Schwarz)
f 2/1/1 20/2/2 1/3/3
f 1/3/3 20/2/2 21/4/4
f 1/5/3 21/6/4 16/7/5
f 16/7/5 21/6/4 22/8/6
f 16/7/5 22/8/6 15/9/7
f 15/9/7 22/8/6 23/10/8
f 15/9/7 23/10/8 14/11/9
f 14/11/9 23/10/8 24/12/10
f 14/11/9 24/12/10 13/13/11
f 13/13/11 24/12/10 25/14/12
f 13/13/11 25/14/12 12/15/13
f 12/15/13 25/14/12 26/16/14
f 12/15/13 26/16/14 11/17/15
f 11/17/15 26/16/14 27/18/16
f 11/17/15 27/18/16 10/19/17
f 10/19/17 27/18/16 28/20/18
f 10/19/17 28/20/18 9/21/19
f 9/21/19 28/20/18 29/22/20
f 9/21/19 29/22/20 8/23/21
f 8/23/21 29/22/20 30/24/22
f 8/23/21 30/24/22 7/25/23
f 7/25/23 30/24/22 31/26/24
f 7/25/23 31/26/24 6/27/25
f 6/27/25 31/26/24 32/28/26
f 6/27/25 32/28/26 5/29/27
f 5/29/27 32/28/26 17/30/28
f 5/29/27 17/30/28 4/31/29
f 4/31/29 17/30/28 18/32/30
f 4/31/29 18/32/30 3/33/31
f 3/33/31 18/32/30 19/34/32
f 3/33/31 19/34/32 2/1/1
f 2/1/1 19/34/32 20/2/2
f 16/35/33 10/36/34 1/37/35
f 1/37/35 10/36/34 9/38/36
f 1/37/35 9/38/36 2/39/37
f 2/39/37 9/38/36 8/40/38
f 2/39/37 8/40/38 3/41/39
f 3/41/39 8/40/38 7/42/40
f 3/41/39 7/42/40 4/43/41
f 4/43/41 7/42/40 6/44/42
f 4/43/41 6/44/42 5/45/43
f 10/36/34 16/35/33 11/46/44
f 11/46/44 16/35/33 15/47/45
f 11/46/44 15/47/45 12/48/46
f 12/48/46 15/47/45 14/49/47
f 12/48/46 14/49/47 13/50/48
f 17/51/49 32/52/50 34/53/51
f 34/53/51 32/52/50 31/54/52
f 34/53/51 31/54/52 30/55/53
f 30/55/53 29/56/54 34/53/51
f 34/53/51 29/56/54 33/57/55
f 33/57/55 29/56/54 28/58/56
f 33/57/55 28/58/56 27/59/57
f 27/59/57 26/60/58 33/57/55
f 33/57/55 26/60/58 25/61/59
f 25/61/59 24/62/60 36/63/61
f 36/63/61 24/62/60 23/64/62
f 36/63/61 23/64/62 22/65/63
f 22/65/63 21/66/64 36/63/61
f 36/63/61 21/66/64 35/67/65
f 35/67/65 21/66/64 20/68/66
f 35/67/65 20/68/66 19/69/67
f 19/69/67 18/70/68 35/67/65
f 35/67/65 18/70/68 17/71/49
f 37/72/69 38/73/70 40/74/71
f 40/74/71 38/73/70 39/75/72
f 33/76/73 37/77/74 34/78/75
f 34/78/75 37/77/74 40/79/76
f 38/80/77 36/81/78 39/82/79
f 39/82/79 36/81/78 35/83/80
f 35/84/81 17/85/28 39/86/82
f 39/86/82 17/85/28 40/87/83
f 40/87/83 17/85/28 34/88/84
f 36/89/85 38/90/86 25/91/12
f 25/91/12 38/90/86 37/92/87
f 25/91/12 37/92/87 33/93/88
# 40 vertices
# 93 texture params
# 88 normals
# 76 facets

# 1 groups
