# WaveFront *.obj file (generated by Autodesk ATF)

mtllib hambot_Pillars & Battery v1_RPi_4 v1_1_Micro HDMI 1_1_Micro HDMI 1.mtl

g Micro HDMI 1

v 0.031917 0.017550 0.048000
v 0.031917 0.017483 0.047750
v 0.031917 0.017300 0.047567
v 0.031917 0.017050 0.047500
v 0.023917 0.017050 0.047500
v 0.023917 0.017300 0.047567
v 0.023917 0.017483 0.047750
v 0.023917 0.017550 0.048000
v 0.027917 0.017483 0.047750
v 0.027917 0.017300 0.047567
v 0.031917 0.010950 0.047500
v 0.023917 0.010950 0.047500
v 0.031917 0.017550 0.050300
v 0.031917 0.017483 0.050550
v 0.031917 0.017300 0.050733
v 0.031917 0.017050 0.050800
v 0.031917 0.010950 0.050800
v 0.031917 0.010700 0.050733
v 0.031917 0.010517 0.050550
v 0.031917 0.010450 0.050300
v 0.031917 0.010450 0.048000
v 0.031917 0.010517 0.047750
v 0.031917 0.010700 0.047567
v 0.023917 0.010450 0.048000
v 0.023917 0.010517 0.047750
v 0.023917 0.010700 0.047567
v 0.027917 0.010517 0.047750
v 0.027917 0.010700 0.047567
v 0.023917 0.010450 0.050300
v 0.023917 0.017550 0.050300
v 0.023917 0.017483 0.050550
v 0.023917 0.017300 0.050733
v 0.023917 0.017050 0.050800
v 0.027917 0.017483 0.050550
v 0.027917 0.017300 0.050733
v 0.023917 0.010950 0.050800
v 0.023917 0.010700 0.050733
v 0.023917 0.010517 0.050550
v 0.027917 0.010517 0.050550
v 0.027917 0.010700 0.050733
vt 0.600000 0.039270 0.000000
vt -0.200000 0.039270 0.000000
vt 0.200000 0.013090 0.000000
vt -0.200000 0.013090 0.000000
vt 0.200000 -0.013090 0.000000
vt -0.200000 -0.013090 0.000000
vt -0.200000 -0.039270 0.000000
vt 0.600000 -0.039270 0.000000
vt 0.600000 -0.013090 0.000000
vt 0.600000 0.013090 0.000000
vt -0.305000 -0.400000 0.000000
vt 0.305000 -0.400000 0.000000
vt -0.305000 0.400000 0.000000
vt 0.305000 0.400000 0.000000
vt 0.685000 0.006699 0.000000
vt 0.703301 0.025000 0.000000
vt 0.660000 0.000000 0.000000
vt 0.710000 0.050000 0.000000
vt 0.000000 0.050000 0.000000
vt 0.000000 0.280000 0.000000
vt 0.710000 0.280000 0.000000
vt 0.050000 0.330000 0.000000
vt 0.660000 0.330000 0.000000
vt 0.703301 0.305000 0.000000
vt 0.685000 0.323301 0.000000
vt 0.025000 0.323301 0.000000
vt 0.006699 0.305000 0.000000
vt 0.050000 0.000000 0.000000
vt 0.006699 0.025000 0.000000
vt 0.025000 0.006699 0.000000
vt 0.600000 0.039270 0.000000
vt -0.200000 0.039270 0.000000
vt 0.200000 0.013090 0.000000
vt -0.200000 0.013090 0.000000
vt 0.200000 -0.013090 0.000000
vt -0.200000 -0.013090 0.000000
vt -0.200000 -0.039270 0.000000
vt 0.600000 -0.039270 0.000000
vt 0.600000 -0.013090 0.000000
vt 0.600000 0.013090 0.000000
vt -0.000000 0.050000 0.000000
vt 0.800000 0.050000 0.000000
vt -0.000000 0.280000 0.000000
vt 0.800000 0.280000 0.000000
vt 0.200000 0.039270 0.000000
vt -0.600000 0.039270 0.000000
vt -0.200000 0.013090 0.000000
vt -0.600000 0.013090 0.000000
vt -0.200000 -0.013090 0.000000
vt -0.600000 -0.013090 0.000000
vt -0.600000 -0.039270 0.000000
vt 0.200000 -0.039270 0.000000
vt 0.200000 -0.013090 0.000000
vt 0.200000 0.013090 0.000000
vt 0.305000 0.400000 0.000000
vt -0.305000 0.400000 0.000000
vt 0.305000 -0.400000 0.000000
vt -0.305000 -0.400000 0.000000
vt 0.200000 0.039270 0.000000
vt -0.600000 0.039270 0.000000
vt -0.200000 0.013090 0.000000
vt -0.600000 0.013090 0.000000
vt -0.200000 -0.013090 0.000000
vt -0.600000 -0.013090 0.000000
vt -0.600000 -0.039270 0.000000
vt 0.200000 -0.039270 0.000000
vt 0.200000 -0.013090 0.000000
vt 0.200000 0.013090 0.000000
vt 0.000000 0.050000 0.000000
vt 0.800000 0.050000 0.000000
vt 0.000000 0.280000 0.000000
vt 0.800000 0.280000 0.000000
vt 0.006699 0.025000 0.000000
vt 0.050000 0.000000 0.000000
vt -0.000000 0.050000 0.000000
vt 0.660000 0.000000 0.000000
vt 0.710000 0.050000 0.000000
vt 0.703301 0.025000 0.000000
vt 0.685000 0.006699 0.000000
vt 0.025000 0.006699 0.000000
vt -0.000000 0.280000 0.000000
vt 0.710000 0.280000 0.000000
vt 0.050000 0.330000 0.000000
vt 0.660000 0.330000 0.000000
vt 0.703301 0.305000 0.000000
vt 0.685000 0.323301 0.000000
vt 0.025000 0.323301 0.000000
vt 0.006699 0.305000 0.000000
vn 0.000000 100.000000 -0.000000
vn 0.000000 100.000000 0.000000
vn 0.000000 86.602540 -50.000000
vn 0.000000 86.602540 -50.000000
vn 0.000000 50.000000 -86.602540
vn 0.000000 50.000000 -86.602540
vn -0.000000 -0.000000 -100.000000
vn 0.000000 0.000000 -100.000000
vn 0.000000 50.000000 -86.602540
vn 0.000000 86.602540 -50.000000
vn -0.000000 0.000000 -100.000000
vn -0.000000 0.000000 -100.000000
vn 100.000000 -0.000000 -0.000000
vn 100.000000 -0.000000 -0.000000
vn 100.000000 -0.000000 -0.000000
vn 100.000000 -0.000000 -0.000000
vn 100.000000 -0.000000 -0.000000
vn 100.000000 -0.000000 -0.000000
vn 100.000000 -0.000000 -0.000000
vn 100.000000 -0.000000 -0.000000
vn 100.000000 -0.000000 -0.000000
vn 100.000000 -0.000000 -0.000000
vn 100.000000 -0.000000 -0.000000
vn 100.000000 -0.000000 -0.000000
vn 100.000000 -0.000000 -0.000000
vn 100.000000 -0.000000 -0.000000
vn 100.000000 -0.000000 -0.000000
vn 100.000000 -0.000000 -0.000000
vn -0.000000 -100.000000 -0.000000
vn -0.000000 -100.000000 0.000000
vn -0.000000 -86.602540 -50.000000
vn -0.000000 -86.602540 -50.000000
vn -0.000000 -50.000000 -86.602540
vn -0.000000 -50.000000 -86.602540
vn -0.000000 -50.000000 -86.602540
vn -0.000000 -86.602540 -50.000000
vn -0.000000 -100.000000 -0.000000
vn -0.000000 -100.000000 -0.000000
vn 0.000000 100.000000 -0.000000
vn 0.000000 100.000000 0.000000
vn 0.000000 86.602540 50.000000
vn 0.000000 86.602540 50.000000
vn 0.000000 50.000000 86.602540
vn 0.000000 50.000000 86.602540
vn 0.000000 0.000000 100.000000
vn -0.000000 -0.000000 100.000000
vn 0.000000 50.000000 86.602540
vn 0.000000 86.602540 50.000000
vn 0.000000 -0.000000 100.000000
vn 0.000000 -0.000000 100.000000
vn -0.000000 -86.602540 50.000000
vn -0.000000 -86.602540 50.000000
vn -0.000000 -50.000000 86.602540
vn -0.000000 -50.000000 86.602540
vn -0.000000 -50.000000 86.602540
vn -0.000000 -86.602540 50.000000
vn -100.000000 0.000000 0.000000
vn -100.000000 0.000000 0.000000
vn -100.000000 0.000000 0.000000
vn -100.000000 0.000000 0.000000
vn -100.000000 0.000000 0.000000
vn -100.000000 0.000000 0.000000
vn -100.000000 0.000000 0.000000
vn -100.000000 0.000000 0.000000
vn -100.000000 0.000000 0.000000
vn -100.000000 0.000000 0.000000
vn -100.000000 0.000000 0.000000
vn -100.000000 0.000000 0.000000
vn -100.000000 0.000000 0.000000
vn -100.000000 0.000000 0.000000
vn -100.000000 0.000000 0.000000
vn -100.000000 0.000000 0.000000
usemtl Edelstahl_-_poliert
f 8/1/1 1/2/2 9/3/3
f 9/3/3 1/2/2 2/4/4
f 9/3/3 2/4/4 10/5/5
f 10/5/5 2/4/4 3/6/6
f 10/5/5 3/6/6 4/7/7
f 4/7/7 5/8/8 10/5/5
f 10/5/5 5/8/8 6/9/9
f 10/5/5 6/9/9 9/3/3
f 9/3/3 6/9/9 7/10/10
f 9/3/3 7/10/10 8/1/1
f 4/11/7 11/12/11 5/13/8
f 5/13/8 11/12/11 12/14/12
f 3/15/13 2/16/14 4/17/15
f 4/17/15 2/16/14 1/18/16
f 4/17/15 1/18/16 21/19/17
f 21/19/17 1/18/16 20/20/18
f 20/20/18 1/18/16 13/21/19
f 20/20/18 13/21/19 17/22/20
f 17/22/20 13/21/19 16/23/21
f 16/23/21 13/21/19 14/24/22
f 16/23/21 14/24/22 15/25/23
f 18/26/24 19/27/25 17/22/20
f 17/22/20 19/27/25 20/20/18
f 4/17/15 21/19/17 11/28/26
f 11/28/26 21/19/17 22/29/27
f 11/28/26 22/29/27 23/30/28
f 21/31/29 24/32/30 27/33/31
f 27/33/31 24/32/30 25/34/32
f 27/33/31 25/34/32 28/35/33
f 28/35/33 25/34/32 26/36/34
f 28/35/33 26/36/34 12/37/12
f 12/37/12 11/38/11 28/35/33
f 28/35/33 11/38/11 23/39/35
f 28/35/33 23/39/35 27/33/31
f 27/33/31 23/39/35 22/40/36
f 27/33/31 22/40/36 21/31/29
f 24/41/30 21/42/29 29/43/37
f 29/43/37 21/42/29 20/44/38
f 13/45/39 30/46/40 34/47/41
f 34/47/41 30/46/40 31/48/42
f 34/47/41 31/48/42 35/49/43
f 35/49/43 31/48/42 32/50/44
f 35/49/43 32/50/44 33/51/45
f 33/51/45 16/52/46 35/49/43
f 35/49/43 16/52/46 15/53/47
f 35/49/43 15/53/47 34/47/41
f 34/47/41 15/53/47 14/54/48
f 34/47/41 14/54/48 13/45/39
f 33/55/45 36/56/49 16/57/46
f 16/57/46 36/56/49 17/58/50
f 29/59/37 20/60/38 39/61/51
f 39/61/51 20/60/38 19/62/52
f 39/61/51 19/62/52 40/63/53
f 40/63/53 19/62/52 18/64/54
f 40/63/53 18/64/54 17/65/50
f 17/65/50 36/66/49 40/63/53
f 40/63/53 36/66/49 37/67/55
f 40/63/53 37/67/55 39/61/51
f 39/61/51 37/67/55 38/68/56
f 39/61/51 38/68/56 29/59/37
f 1/69/2 8/70/1 13/71/39
f 13/71/39 8/70/1 30/72/40
f 7/73/57 5/74/58 8/75/59
f 8/75/59 5/74/58 12/76/60
f 8/75/59 12/76/60 24/77/61
f 24/77/61 12/76/60 25/78/62
f 25/78/62 12/76/60 26/79/63
f 7/73/57 6/80/64 5/74/58
f 8/75/59 24/77/61 30/81/65
f 30/81/65 24/77/61 29/82/66
f 30/81/65 29/82/66 33/83/67
f 33/83/67 29/82/66 36/84/68
f 36/84/68 29/82/66 38/85/69
f 36/84/68 38/85/69 37/86/70
f 32/87/71 31/88/72 33/83/67
f 33/83/67 31/88/72 30/81/65
# 40 vertices
# 88 texture params
# 72 normals
# 76 facets

# 1 groups
