# WaveFront *.obj file (generated by Autodesk ATF)

mtllib hambot_Pillars & Battery v1_RPi_4 v1_1_Processor_1_Processor.mtl

g Processor

v -0.008383 0.023750 0.049900
v 0.004617 0.023750 0.049900
v 0.005617 0.024750 0.048900
v -0.009383 0.024750 0.048900
v 0.004617 0.010750 0.049900
v 0.005617 0.009750 0.048900
v -0.008383 0.010750 0.049900
v -0.009383 0.009750 0.048900
v -0.009383 0.024750 0.047500
v -0.009383 0.009750 0.047500
v 0.005617 0.024750 0.047500
v 0.005617 0.009750 0.047500
vt -0.070711 -0.275000 0.000000
vt 0.070711 -0.375000 0.000000
vt -0.070711 1.025000 0.000000
vt 0.070711 1.125000 0.000000
vt 1.025000 0.070711 0.000000
vt -0.275000 0.070711 0.000000
vt 1.125000 -0.070711 0.000000
vt -0.375000 -0.070711 0.000000
vt 0.070711 -1.025000 0.000000
vt 0.070711 0.275000 0.000000
vt -0.070711 -1.125000 0.000000
vt -0.070711 0.375000 0.000000
vt 0.375000 0.070711 0.000000
vt -1.125000 0.070711 0.000000
vt 0.275000 -0.070711 0.000000
vt -1.025000 -0.070711 0.000000
vt 1.500000 0.140000 0.000000
vt 0.000000 0.140000 0.000000
vt 1.500000 0.000000 0.000000
vt 0.000000 0.000000 0.000000
vt 1.500000 0.140000 0.000000
vt 0.000000 0.140000 0.000000
vt 1.500000 0.000000 0.000000
vt 0.000000 0.000000 0.000000
vt 0.650000 0.650000 0.000000
vt -0.650000 0.650000 0.000000
vt 0.650000 -0.650000 0.000000
vt -0.650000 -0.650000 0.000000
vt 1.500000 0.140000 0.000000
vt 0.000000 0.140000 0.000000
vt 1.500000 0.000000 0.000000
vt 0.000000 0.000000 0.000000
vt 1.500000 0.140000 0.000000
vt 0.000000 0.140000 0.000000
vt 1.500000 0.000000 0.000000
vt 0.000000 0.000000 0.000000
vt 0.750000 0.750000 0.000000
vt -0.750000 0.750000 0.000000
vt 0.750000 -0.750000 0.000000
vt -0.750000 -0.750000 0.000000
vn 0.000000 70.710678 70.710678
vn 0.000000 70.710678 70.710678
vn 0.000000 70.710678 70.710678
vn 0.000000 70.710678 70.710678
vn 70.710678 -0.000000 70.710678
vn 70.710678 -0.000000 70.710678
vn 70.710678 -0.000000 70.710678
vn 70.710678 -0.000000 70.710678
vn 0.000000 -70.710678 70.710678
vn 0.000000 -70.710678 70.710678
vn 0.000000 -70.710678 70.710678
vn 0.000000 -70.710678 70.710678
vn -70.710678 0.000000 70.710678
vn -70.710678 0.000000 70.710678
vn -70.710678 0.000000 70.710678
vn -70.710678 0.000000 70.710678
vn -100.000000 0.000000 0.000000
vn -100.000000 0.000000 0.000000
vn -100.000000 0.000000 0.000000
vn -100.000000 0.000000 0.000000
vn 0.000000 100.000000 0.000000
vn 0.000000 100.000000 0.000000
vn 0.000000 100.000000 0.000000
vn 0.000000 100.000000 0.000000
vn 0.000000 -0.000000 100.000000
vn 0.000000 -0.000000 100.000000
vn 0.000000 -0.000000 100.000000
vn 0.000000 -0.000000 100.000000
vn 100.000000 -0.000000 -0.000000
vn 100.000000 -0.000000 -0.000000
vn 100.000000 -0.000000 -0.000000
vn 100.000000 -0.000000 -0.000000
vn 0.000000 -100.000000 -0.000000
vn 0.000000 -100.000000 -0.000000
vn 0.000000 -100.000000 -0.000000
vn 0.000000 -100.000000 -0.000000
vn -0.000000 0.000000 -100.000000
vn -0.000000 0.000000 -100.000000
vn -0.000000 0.000000 -100.000000
vn -0.000000 0.000000 -100.000000
usemtl Stahl_-_satiniert
f 2/1/1 3/2/2 1/3/3
f 1/3/3 3/2/2 4/4/4
f 2/5/5 5/6/6 3/7/7
f 3/7/7 5/6/6 6/8/8
f 5/9/9 7/10/10 6/11/11
f 6/11/11 7/10/10 8/12/12
f 4/13/13 8/14/14 1/15/15
f 1/15/15 8/14/14 7/16/16
f 8/17/17 4/18/18 10/19/19
f 10/19/19 4/18/18 9/20/20
f 4/21/21 3/22/22 9/23/23
f 9/23/23 3/22/22 11/24/24
f 1/25/25 7/26/26 2/27/27
f 2/27/27 7/26/26 5/28/28
f 3/29/29 6/30/30 11/31/31
f 11/31/31 6/30/30 12/32/32
f 6/33/33 8/34/34 12/35/35
f 12/35/35 8/34/34 10/36/36
f 10/37/37 9/38/38 12/39/39
f 12/39/39 9/38/38 11/40/40
# 12 vertices
# 40 texture params
# 40 normals
# 20 facets

# 1 groups
