# WaveFront *.obj file (generated by Autodesk ATF)

mtllib hambot_Pillars & Battery v1_RPi_4 v1_1_Display_1_Display.mtl

g Display

v 0.013617 -0.006750 0.047500
v -0.008383 -0.006750 0.047500
v -0.008383 -0.006750 0.053000
v 0.013617 -0.006750 0.053000
v 0.013617 -0.009250 0.047500
v 0.013617 -0.009250 0.053000
v -0.008383 -0.009250 0.047500
v -0.008383 -0.009250 0.053000
vt 0.000000 0.000000 0.000000
vt 2.200000 0.000000 0.000000
vt 0.000000 0.550000 0.000000
vt 2.200000 0.550000 0.000000
vt 0.000000 0.000000 0.000000
vt 0.250000 0.000000 0.000000
vt 0.000000 0.550000 0.000000
vt 0.250000 0.550000 0.000000
vt -0.000000 0.000000 0.000000
vt 2.200000 0.000000 0.000000
vt -0.000000 0.550000 0.000000
vt 2.200000 0.550000 0.000000
vt -0.000000 0.000000 0.000000
vt 0.250000 0.000000 0.000000
vt -0.000000 0.550000 0.000000
vt 0.250000 0.550000 0.000000
vt 0.125000 1.100000 0.000000
vt -0.125000 1.100000 0.000000
vt 0.125000 -1.100000 0.000000
vt -0.125000 -1.100000 0.000000
vt 0.125000 1.100000 0.000000
vt -0.125000 1.100000 0.000000
vt 0.125000 -1.100000 0.000000
vt -0.125000 -1.100000 0.000000
vn 0.000000 100.000000 0.000000
vn 0.000000 100.000000 0.000000
vn 0.000000 100.000000 0.000000
vn 0.000000 100.000000 0.000000
vn 100.000000 0.000000 0.000000
vn 100.000000 0.000000 0.000000
vn 100.000000 0.000000 0.000000
vn 100.000000 0.000000 0.000000
vn -0.000000 -100.000000 -0.000000
vn -0.000000 -100.000000 -0.000000
vn -0.000000 -100.000000 -0.000000
vn -0.000000 -100.000000 -0.000000
vn -100.000000 0.000000 0.000000
vn -100.000000 0.000000 0.000000
vn -100.000000 0.000000 0.000000
vn -100.000000 0.000000 0.000000
vn 0.000000 -0.000000 100.000000
vn 0.000000 -0.000000 100.000000
vn 0.000000 -0.000000 100.000000
vn 0.000000 -0.000000 100.000000
vn -0.000000 0.000000 -100.000000
vn -0.000000 0.000000 -100.000000
vn -0.000000 0.000000 -100.000000
vn -0.000000 0.000000 -100.000000
usemtl Kunststoff_-_glänzend_(Schwarz)
f 1/1/1 2/2/2 4/3/3
f 4/3/3 2/2/2 3/4/4
f 5/5/5 1/6/6 6/7/7
f 6/7/7 1/6/6 4/8/8
f 7/9/9 5/10/10 8/11/11
f 8/11/11 5/10/10 6/12/12
f 2/13/13 7/14/14 3/15/15
f 3/15/15 7/14/14 8/16/16
f 3/17/17 8/18/18 4/19/19
f 4/19/19 8/18/18 6/20/20
f 7/21/21 2/22/22 5/23/23
f 5/23/23 2/22/22 1/24/24
# 8 vertices
# 24 texture params
# 24 normals
# 12 facets

# 1 groups
