# WaveFront *.obj file (generated by Autodesk ATF)

mtllib hambot_Pillars & Battery v1_RP-lidar-A1 v1_1_RP-lidar-A1_1_motor-board_1_Body1.mtl

g Body1

v -0.001576 0.048903 0.097100
v -0.002698 0.048104 0.097100
v -0.003457 0.046953 0.097100
v -0.003748 0.045606 0.097100
v -0.003534 0.044245 0.097100
v -0.002842 0.043053 0.097100
v -0.001766 0.042192 0.097100
v -0.000452 0.041777 0.097100
v 0.000923 0.041865 0.097100
v 0.002174 0.042444 0.097100
v 0.003131 0.043436 0.097100
v 0.003665 0.044707 0.097100
v 0.003704 0.046084 0.097100
v 0.003243 0.047383 0.097100
v 0.002344 0.048427 0.097100
v 0.001128 0.049076 0.097100
v -0.000240 0.049242 0.097100
v -0.001576 0.048903 0.095500
v -0.000240 0.049242 0.095500
v 0.001128 0.049076 0.095500
v 0.002344 0.048427 0.095500
v 0.003243 0.047383 0.095500
v 0.003704 0.046084 0.095500
v 0.003665 0.044707 0.095500
v 0.003131 0.043436 0.095500
v 0.002174 0.042444 0.095500
v 0.000923 0.041865 0.095500
v -0.000452 0.041777 0.095500
v -0.001766 0.042192 0.095500
v -0.002842 0.043053 0.095500
v -0.003534 0.044245 0.095500
v -0.003748 0.045606 0.095500
v -0.003457 0.046953 0.095500
v -0.002698 0.048104 0.095500
v -0.006722 0.060019 0.097100
v -0.004022 0.060986 0.097100
v -0.001192 0.061456 0.097100
v 0.001676 0.061412 0.097100
v 0.004490 0.060857 0.097100
v 0.007160 0.059808 0.097100
v 0.009600 0.058300 0.097100
v 0.011731 0.056380 0.097100
v 0.013486 0.054110 0.097100
v 0.014806 0.051564 0.097100
v 0.015651 0.048823 0.097100
v 0.015993 0.045975 0.097100
v 0.015821 0.043112 0.097100
v 0.015140 0.040325 0.097100
v 0.013973 0.037705 0.097100
v 0.012356 0.035335 0.097100
v 0.010343 0.033292 0.097100
v 0.007997 0.031642 0.097100
v 0.005394 0.030437 0.097100
v 0.002617 0.029716 0.097100
v -0.000243 0.029502 0.097100
v -0.003096 0.029802 0.097100
v -0.005849 0.030607 0.097100
v -0.008414 0.031891 0.097100
v -0.010709 0.033612 0.097100
v -0.012659 0.035715 0.097100
v -0.014203 0.038133 0.097100
v -0.015290 0.040788 0.097100
v -0.015886 0.043593 0.097100
v -0.015971 0.046461 0.097100
v -0.015543 0.049297 0.097100
v -0.014615 0.052011 0.097100
v -0.013218 0.054516 0.097100
v -0.011395 0.056731 0.097100
v -0.009207 0.058586 0.097100
v -0.006722 0.060019 0.095500
v -0.009207 0.058586 0.095500
v -0.011395 0.056731 0.095500
v -0.013218 0.054516 0.095500
v -0.014615 0.052011 0.095500
v -0.015543 0.049297 0.095500
v -0.015971 0.046461 0.095500
v -0.015886 0.043593 0.095500
v -0.015290 0.040788 0.095500
v -0.014203 0.038133 0.095500
v -0.012659 0.035715 0.095500
v -0.010709 0.033612 0.095500
v -0.008414 0.031891 0.095500
v -0.005849 0.030607 0.095500
v -0.003096 0.029802 0.095500
v -0.000243 0.029502 0.095500
v 0.002617 0.029716 0.095500
v 0.005394 0.030437 0.095500
v 0.007997 0.031642 0.095500
v 0.010343 0.033292 0.095500
v 0.012356 0.035335 0.095500
v 0.013973 0.037705 0.095500
v 0.015140 0.040325 0.095500
v 0.015821 0.043112 0.095500
v 0.015993 0.045975 0.095500
v 0.015651 0.048823 0.095500
v 0.014806 0.051564 0.095500
v 0.013486 0.054110 0.095500
v 0.011731 0.056380 0.095500
v 0.009600 0.058300 0.095500
v 0.007160 0.059808 0.095500
v 0.004490 0.060857 0.095500
v 0.001676 0.061412 0.095500
v -0.001192 0.061456 0.095500
v -0.004022 0.060986 0.095500
vt -0.080000 1.039498 0.000000
vt 0.080000 1.039498 0.000000
vt -0.080000 1.178097 0.000000
vt 0.080000 1.178097 0.000000
vt -0.080000 -1.178097 0.000000
vt 0.080000 -1.178097 0.000000
vt -0.080000 -1.039498 0.000000
vt 0.080000 -1.039498 0.000000
vt -0.080000 -0.900898 0.000000
vt 0.080000 -0.900898 0.000000
vt -0.080000 -0.762298 0.000000
vt 0.080000 -0.762298 0.000000
vt -0.080000 -0.623699 0.000000
vt 0.080000 -0.623699 0.000000
vt -0.080000 -0.485099 0.000000
vt 0.080000 -0.485099 0.000000
vt -0.080000 -0.346499 0.000000
vt 0.080000 -0.346499 0.000000
vt -0.080000 -0.207900 0.000000
vt 0.080000 -0.207900 0.000000
vt -0.080000 -0.069300 0.000000
vt 0.080000 -0.069300 0.000000
vt -0.080000 0.069300 0.000000
vt 0.080000 0.069300 0.000000
vt -0.080000 0.207900 0.000000
vt 0.080000 0.207900 0.000000
vt -0.080000 0.346499 0.000000
vt 0.080000 0.346499 0.000000
vt -0.080000 0.485099 0.000000
vt 0.080000 0.485099 0.000000
vt -0.080000 0.623699 0.000000
vt 0.080000 0.623699 0.000000
vt -0.080000 0.762298 0.000000
vt 0.080000 0.762298 0.000000
vt -0.080000 0.900898 0.000000
vt 0.080000 0.900898 0.000000
vt 0.080000 -4.739317 0.000000
vt -0.080000 -4.739317 0.000000
vt 0.080000 -5.026548 0.000000
vt -0.080000 -5.026548 0.000000
vt 0.080000 5.026548 0.000000
vt -0.080000 5.026548 0.000000
vt 0.080000 4.739317 0.000000
vt -0.080000 4.739317 0.000000
vt 0.080000 4.452086 0.000000
vt -0.080000 4.452086 0.000000
vt 0.080000 4.164854 0.000000
vt -0.080000 4.164854 0.000000
vt 0.080000 3.877623 0.000000
vt -0.080000 3.877623 0.000000
vt 0.080000 3.590392 0.000000
vt -0.080000 3.590392 0.000000
vt 0.080000 3.303160 0.000000
vt -0.080000 3.303160 0.000000
vt 0.080000 3.015929 0.000000
vt -0.080000 3.015929 0.000000
vt 0.080000 2.728698 0.000000
vt -0.080000 2.728698 0.000000
vt 0.080000 2.441466 0.000000
vt -0.080000 2.441466 0.000000
vt 0.080000 2.154235 0.000000
vt -0.080000 2.154235 0.000000
vt 0.080000 1.867004 0.000000
vt -0.080000 1.867004 0.000000
vt 0.080000 1.579772 0.000000
vt -0.080000 1.579772 0.000000
vt 0.080000 1.292541 0.000000
vt -0.080000 1.292541 0.000000
vt 0.080000 1.005310 0.000000
vt -0.080000 1.005310 0.000000
vt 0.080000 0.718078 0.000000
vt -0.080000 0.718078 0.000000
vt 0.080000 0.430847 0.000000
vt -0.080000 0.430847 0.000000
vt 0.080000 0.143616 0.000000
vt -0.080000 0.143616 0.000000
vt 0.080000 -0.143616 0.000000
vt -0.080000 -0.143616 0.000000
vt 0.080000 -0.430847 0.000000
vt -0.080000 -0.430847 0.000000
vt 0.080000 -0.718078 0.000000
vt -0.080000 -0.718078 0.000000
vt 0.080000 -1.005310 0.000000
vt -0.080000 -1.005310 0.000000
vt 0.080000 -1.292541 0.000000
vt -0.080000 -1.292541 0.000000
vt 0.080000 -1.579772 0.000000
vt -0.080000 -1.579772 0.000000
vt 0.080000 -1.867004 0.000000
vt -0.080000 -1.867004 0.000000
vt 0.080000 -2.154235 0.000000
vt -0.080000 -2.154235 0.000000
vt 0.080000 -2.441466 0.000000
vt -0.080000 -2.441466 0.000000
vt 0.080000 -2.728698 0.000000
vt -0.080000 -2.728698 0.000000
vt 0.080000 -3.015929 0.000000
vt -0.080000 -3.015929 0.000000
vt 0.080000 -3.303160 0.000000
vt -0.080000 -3.303160 0.000000
vt 0.080000 -3.590392 0.000000
vt -0.080000 -3.590392 0.000000
vt 0.080000 -3.877623 0.000000
vt -0.080000 -3.877623 0.000000
vt 0.080000 -4.164854 0.000000
vt -0.080000 -4.164854 0.000000
vt 0.080000 -4.452086 0.000000
vt -0.080000 -4.452086 0.000000
vt -1.574287 1.886691 0.000000
vt -1.600000 1.601000 0.000000
vt -0.375000 1.601000 0.000000
vt -1.574287 1.315309 0.000000
vt -0.349677 1.465534 0.000000
vt -1.497976 1.038800 0.000000
vt -1.373518 0.780361 0.000000
vt -0.277128 1.348364 0.000000
vt -1.204914 0.548298 0.000000
vt -0.997584 0.350070 0.000000
vt -0.167152 1.265314 0.000000
vt -0.758190 0.192047 0.000000
vt -0.494427 0.079310 0.000000
vt -0.034601 1.227600 0.000000
vt -0.214773 0.015480 0.000000
vt 0.071784 0.002611 0.000000
vt 0.102624 1.240315 0.000000
vt 0.356033 0.041115 0.000000
vt 0.628840 0.129756 0.000000
vt 0.225988 1.301744 0.000000
vt 0.881435 0.265683 0.000000
vt 1.105700 0.444528 0.000000
vt 0.318831 1.403588 0.000000
vt 1.294427 0.660544 0.000000
vt 1.441550 0.906786 0.000000
vt 0.368615 1.532094 0.000000
vt 1.542341 1.175341 0.000000
vt 1.593559 1.457577 0.000000
vt 0.368615 1.669906 0.000000
vt 1.593559 1.744423 0.000000
vt 1.542341 2.026659 0.000000
vt 1.441550 2.295214 0.000000
vt 0.318831 1.798412 0.000000
vt 1.294427 2.541456 0.000000
vt 1.105700 2.757472 0.000000
vt 0.225988 1.900256 0.000000
vt 0.881435 2.936317 0.000000
vt 0.628840 3.072244 0.000000
vt 0.102624 1.961685 0.000000
vt 0.356033 3.160885 0.000000
vt 0.071784 3.199389 0.000000
vt -0.034601 1.974400 0.000000
vt -0.214773 3.186520 0.000000
vt -0.494427 3.122690 0.000000
vt -0.167152 1.936686 0.000000
vt -0.758190 3.009953 0.000000
vt -0.997584 2.851930 0.000000
vt -0.277128 1.853636 0.000000
vt -1.204914 2.653702 0.000000
vt -1.373518 2.421639 0.000000
vt -0.349677 1.736466 0.000000
vt -1.497976 2.163200 0.000000
vt 1.574287 1.315309 0.000000
vt 1.600000 1.601000 0.000000
vt 0.375000 1.601000 0.000000
vt 1.574287 1.886691 0.000000
vt 0.349677 1.736466 0.000000
vt 1.497976 2.163200 0.000000
vt 1.373518 2.421639 0.000000
vt 0.277128 1.853636 0.000000
vt 1.204914 2.653702 0.000000
vt 0.997584 2.851930 0.000000
vt 0.167152 1.936686 0.000000
vt 0.758190 3.009953 0.000000
vt 0.494427 3.122690 0.000000
vt 0.034601 1.974400 0.000000
vt 0.214773 3.186520 0.000000
vt -0.071784 3.199389 0.000000
vt -0.102624 1.961685 0.000000
vt -0.356033 3.160885 0.000000
vt -0.628840 3.072244 0.000000
vt -0.225988 1.900256 0.000000
vt -0.881435 2.936317 0.000000
vt -1.105700 2.757472 0.000000
vt -0.318831 1.798412 0.000000
vt -1.294427 2.541456 0.000000
vt -1.441550 2.295214 0.000000
vt -0.368615 1.669906 0.000000
vt -1.542341 2.026659 0.000000
vt -1.593559 1.744423 0.000000
vt -1.593559 1.457577 0.000000
vt -0.368615 1.532094 0.000000
vt -1.542341 1.175341 0.000000
vt -1.441550 0.906786 0.000000
vt -0.318831 1.403588 0.000000
vt -1.294427 0.660544 0.000000
vt -1.105700 0.444528 0.000000
vt -0.225988 1.301744 0.000000
vt -0.881435 0.265683 0.000000
vt -0.628840 0.129756 0.000000
vt -0.102624 1.240315 0.000000
vt -0.356033 0.041115 0.000000
vt -0.071784 0.002611 0.000000
vt 0.034601 1.227600 0.000000
vt 0.214773 0.015480 0.000000
vt 0.494427 0.079310 0.000000
vt 0.167152 1.265314 0.000000
vt 0.758190 0.192047 0.000000
vt 0.997584 0.350070 0.000000
vt 0.277128 1.348364 0.000000
vt 1.204914 0.548298 0.000000
vt 1.373518 0.780361 0.000000
vt 0.349677 1.465534 0.000000
vt 1.497976 1.038800 0.000000
vn 71.958233 -69.440713 0.000000
vn 71.958233 -69.440713 0.000000
vn 42.014175 -90.745849 0.000000
vn 42.014175 -90.745849 0.000000
vn 6.395870 -99.795255 0.000000
vn 6.395870 -99.795255 0.000000
vn -30.086233 -95.366758 -0.000000
vn -30.086233 -95.366758 -0.000000
vn -62.505023 -78.058453 -0.000000
vn -62.505023 -78.058453 -0.000000
vn -86.482164 -50.207921 -0.000000
vn -86.482164 -50.207921 -0.000000
vn -98.779409 -15.576531 -0.000000
vn -98.779409 -15.576531 -0.000000
vn -97.735948 21.158556 -0.000000
vn -97.735948 21.158556 -0.000000
vn -83.492705 55.036063 -0.000000
vn -83.492705 55.036063 -0.000000
vn -57.973310 81.480644 -0.000000
vn -57.973310 81.480644 -0.000000
vn -24.624298 96.920813 -0.000000
vn -24.624298 96.920813 -0.000000
vn 12.050362 99.271289 0.000000
vn 12.050362 99.271289 0.000000
vn 47.097554 88.214627 0.000000
vn 47.097554 88.214627 0.000000
vn 75.783960 65.244091 0.000000
vn 75.783960 65.244091 0.000000
vn 94.235322 33.461979 0.000000
vn 94.235322 33.461979 0.000000
vn 99.959682 -2.839358 0.000000
vn 99.959682 -2.839358 0.000000
vn 92.183933 -38.757225 0.000000
vn 92.183933 -38.757225 0.000000
vn -25.135693 96.789446 -0.000000
vn -25.135693 96.789446 -0.000000
vn -42.014175 90.745849 -0.000000
vn -42.014175 90.745849 -0.000000
vn -57.542287 81.785605 -0.000000
vn -57.542287 81.785605 -0.000000
vn -71.220942 70.196705 -0.000000
vn -71.220942 70.196705 -0.000000
vn -82.610498 56.351624 -0.000000
vn -82.610498 56.351624 -0.000000
vn -91.344885 40.695357 -0.000000
vn -91.344885 40.695357 -0.000000
vn -97.143371 23.731107 -0.000000
vn -97.143371 23.731107 -0.000000
vn -99.819590 6.004119 -0.000000
vn -99.819590 6.004119 -0.000000
vn -99.287525 -11.915845 -0.000000
vn -99.287525 -11.915845 -0.000000
vn -95.564277 -29.452825 -0.000000
vn -95.564277 -29.452825 -0.000000
vn -88.769515 -46.043167 -0.000000
vn -88.769515 -46.043167 -0.000000
vn -79.121628 -61.153643 -0.000000
vn -79.121628 -61.153643 -0.000000
vn -66.930706 -74.298591 -0.000000
vn -66.930706 -74.298591 -0.000000
vn -52.588576 -85.055521 -0.000000
vn -52.588576 -85.055521 -0.000000
vn -36.556206 -93.078697 -0.000000
vn -36.556206 -93.078697 -0.000000
vn -19.348890 -98.110246 -0.000000
vn -19.348890 -98.110246 -0.000000
vn -1.519685 -99.988452 -0.000000
vn -1.519685 -99.988452 -0.000000
vn 16.358365 -98.652947 0.000000
vn 16.358365 -98.652947 0.000000
vn 33.710643 -94.146654 0.000000
vn 33.710643 -94.146654 0.000000
vn 49.979434 -86.614411 0.000000
vn 49.979434 -86.614411 0.000000
vn 64.641844 -76.298310 0.000000
vn 64.641844 -76.298310 0.000000
vn 77.226612 -63.529917 0.000000
vn 77.226612 -63.529917 0.000000
vn 87.329253 -48.719621 0.000000
vn 87.329253 -48.719621 0.000000
vn 94.625061 -32.343437 0.000000
vn 94.625061 -32.343437 0.000000
vn 98.879541 -14.927707 0.000000
vn 98.879541 -14.927707 0.000000
vn 99.955951 2.967811 0.000000
vn 99.955951 2.967811 0.000000
vn 97.819694 20.767941 0.000000
vn 97.819694 20.767941 0.000000
vn 92.539433 37.900572 0.000000
vn 92.539433 37.900572 0.000000
vn 84.284877 53.815048 0.000000
vn 84.284877 53.815048 0.000000
vn 73.321337 67.999864 0.000000
vn 73.321337 67.999864 0.000000
vn 60.001188 79.999109 0.000000
vn 60.001188 79.999109 0.000000
vn 44.752552 89.427116 0.000000
vn 44.752552 89.427116 0.000000
vn 28.065532 95.980862 0.000000
vn 28.065532 95.980862 0.000000
vn 10.476462 99.449705 0.000000
vn 10.476462 99.449705 0.000000
vn -7.449329 99.722151 -0.000000
vn -7.449329 99.722151 -0.000000
vn -0.000000 0.000000 100.000000
vn -0.000000 0.000000 100.000000
vn -0.000000 0.000000 100.000000
vn -0.000000 0.000000 100.000000
vn -0.000000 0.000000 100.000000
vn -0.000000 0.000000 100.000000
vn -0.000000 0.000000 100.000000
vn -0.000000 0.000000 100.000000
vn -0.000000 0.000000 100.000000
vn -0.000000 0.000000 100.000000
vn -0.000000 0.000000 100.000000
vn -0.000000 0.000000 100.000000
vn -0.000000 0.000000 100.000000
vn -0.000000 0.000000 100.000000
vn -0.000000 0.000000 100.000000
vn -0.000000 0.000000 100.000000
vn -0.000000 0.000000 100.000000
vn -0.000000 0.000000 100.000000
vn -0.000000 0.000000 100.000000
vn -0.000000 0.000000 100.000000
vn -0.000000 0.000000 100.000000
vn -0.000000 0.000000 100.000000
vn -0.000000 0.000000 100.000000
vn -0.000000 0.000000 100.000000
vn -0.000000 0.000000 100.000000
vn -0.000000 0.000000 100.000000
vn -0.000000 0.000000 100.000000
vn -0.000000 0.000000 100.000000
vn -0.000000 0.000000 100.000000
vn -0.000000 0.000000 100.000000
vn -0.000000 0.000000 100.000000
vn -0.000000 0.000000 100.000000
vn -0.000000 0.000000 100.000000
vn -0.000000 0.000000 100.000000
vn -0.000000 0.000000 100.000000
vn -0.000000 0.000000 100.000000
vn -0.000000 0.000000 100.000000
vn -0.000000 0.000000 100.000000
vn -0.000000 0.000000 100.000000
vn -0.000000 0.000000 100.000000
vn -0.000000 0.000000 100.000000
vn -0.000000 0.000000 100.000000
vn -0.000000 0.000000 100.000000
vn -0.000000 0.000000 100.000000
vn -0.000000 0.000000 100.000000
vn -0.000000 0.000000 100.000000
vn -0.000000 0.000000 100.000000
vn -0.000000 0.000000 100.000000
vn -0.000000 0.000000 100.000000
vn -0.000000 0.000000 100.000000
vn -0.000000 0.000000 100.000000
vn -0.000000 0.000000 100.000000
vn 0.000000 -0.000000 -100.000000
vn 0.000000 -0.000000 -100.000000
vn 0.000000 -0.000000 -100.000000
vn 0.000000 -0.000000 -100.000000
vn 0.000000 -0.000000 -100.000000
vn 0.000000 -0.000000 -100.000000
vn 0.000000 -0.000000 -100.000000
vn 0.000000 -0.000000 -100.000000
vn 0.000000 -0.000000 -100.000000
vn 0.000000 -0.000000 -100.000000
vn 0.000000 -0.000000 -100.000000
vn 0.000000 -0.000000 -100.000000
vn 0.000000 -0.000000 -100.000000
vn 0.000000 -0.000000 -100.000000
vn 0.000000 -0.000000 -100.000000
vn 0.000000 -0.000000 -100.000000
vn 0.000000 -0.000000 -100.000000
vn 0.000000 -0.000000 -100.000000
vn 0.000000 -0.000000 -100.000000
vn 0.000000 -0.000000 -100.000000
vn 0.000000 -0.000000 -100.000000
vn 0.000000 -0.000000 -100.000000
vn 0.000000 -0.000000 -100.000000
vn 0.000000 -0.000000 -100.000000
vn 0.000000 -0.000000 -100.000000
vn 0.000000 -0.000000 -100.000000
vn 0.000000 -0.000000 -100.000000
vn 0.000000 -0.000000 -100.000000
vn 0.000000 -0.000000 -100.000000
vn 0.000000 -0.000000 -100.000000
vn 0.000000 -0.000000 -100.000000
vn 0.000000 -0.000000 -100.000000
vn 0.000000 -0.000000 -100.000000
vn 0.000000 -0.000000 -100.000000
vn 0.000000 -0.000000 -100.000000
vn 0.000000 -0.000000 -100.000000
vn 0.000000 -0.000000 -100.000000
vn 0.000000 -0.000000 -100.000000
vn 0.000000 -0.000000 -100.000000
vn 0.000000 -0.000000 -100.000000
vn 0.000000 -0.000000 -100.000000
vn 0.000000 -0.000000 -100.000000
vn 0.000000 -0.000000 -100.000000
vn 0.000000 -0.000000 -100.000000
vn 0.000000 -0.000000 -100.000000
vn 0.000000 -0.000000 -100.000000
vn 0.000000 -0.000000 -100.000000
vn 0.000000 -0.000000 -100.000000
vn 0.000000 -0.000000 -100.000000
vn 0.000000 -0.000000 -100.000000
vn 0.000000 -0.000000 -100.000000
vn 0.000000 -0.000000 -100.000000
usemtl Opaque(63,63,63)
f 2/1/1 34/2/2 1/3/3
f 1/3/3 34/2/2 18/4/4
f 1/5/3 18/6/4 17/7/5
f 17/7/5 18/6/4 19/8/6
f 17/7/5 19/8/6 16/9/7
f 16/9/7 19/8/6 20/10/8
f 16/9/7 20/10/8 15/11/9
f 15/11/9 20/10/8 21/12/10
f 15/11/9 21/12/10 14/13/11
f 14/13/11 21/12/10 22/14/12
f 14/13/11 22/14/12 13/15/13
f 13/15/13 22/14/12 23/16/14
f 13/15/13 23/16/14 12/17/15
f 12/17/15 23/16/14 24/18/16
f 12/17/15 24/18/16 11/19/17
f 11/19/17 24/18/16 25/20/18
f 11/19/17 25/20/18 10/21/19
f 10/21/19 25/20/18 26/22/20
f 10/21/19 26/22/20 9/23/21
f 9/23/21 26/22/20 27/24/22
f 9/23/21 27/24/22 8/25/23
f 8/25/23 27/24/22 28/26/24
f 8/25/23 28/26/24 7/27/25
f 7/27/25 28/26/24 29/28/26
f 7/27/25 29/28/26 6/29/27
f 6/29/27 29/28/26 30/30/28
f 6/29/27 30/30/28 5/31/29
f 5/31/29 30/30/28 31/32/30
f 5/31/29 31/32/30 4/33/31
f 4/33/31 31/32/30 32/34/32
f 4/33/31 32/34/32 3/35/33
f 3/35/33 32/34/32 33/36/34
f 3/35/33 33/36/34 2/1/1
f 2/1/1 33/36/34 34/2/2
f 36/37/35 104/38/36 35/39/37
f 35/39/37 104/38/36 70/40/38
f 35/41/37 70/42/38 69/43/39
f 69/43/39 70/42/38 71/44/40
f 69/43/39 71/44/40 68/45/41
f 68/45/41 71/44/40 72/46/42
f 68/45/41 72/46/42 67/47/43
f 67/47/43 72/46/42 73/48/44
f 67/47/43 73/48/44 66/49/45
f 66/49/45 73/48/44 74/50/46
f 66/49/45 74/50/46 65/51/47
f 65/51/47 74/50/46 75/52/48
f 65/51/47 75/52/48 64/53/49
f 64/53/49 75/52/48 76/54/50
f 64/53/49 76/54/50 63/55/51
f 63/55/51 76/54/50 77/56/52
f 63/55/51 77/56/52 62/57/53
f 62/57/53 77/56/52 78/58/54
f 62/57/53 78/58/54 61/59/55
f 61/59/55 78/58/54 79/60/56
f 61/59/55 79/60/56 60/61/57
f 60/61/57 79/60/56 80/62/58
f 60/61/57 80/62/58 59/63/59
f 59/63/59 80/62/58 81/64/60
f 59/63/59 81/64/60 58/65/61
f 58/65/61 81/64/60 82/66/62
f 58/65/61 82/66/62 57/67/63
f 57/67/63 82/66/62 83/68/64
f 57/67/63 83/68/64 56/69/65
f 56/69/65 83/68/64 84/70/66
f 56/69/65 84/70/66 55/71/67
f 55/71/67 84/70/66 85/72/68
f 55/71/67 85/72/68 54/73/69
f 54/73/69 85/72/68 86/74/70
f 54/73/69 86/74/70 53/75/71
f 53/75/71 86/74/70 87/76/72
f 53/75/71 87/76/72 52/77/73
f 52/77/73 87/76/72 88/78/74
f 52/77/73 88/78/74 51/79/75
f 51/79/75 88/78/74 89/80/76
f 51/79/75 89/80/76 50/81/77
f 50/81/77 89/80/76 90/82/78
f 50/81/77 90/82/78 49/83/79
f 49/83/79 90/82/78 91/84/80
f 49/83/79 91/84/80 48/85/81
f 48/85/81 91/84/80 92/86/82
f 48/85/81 92/86/82 47/87/83
f 47/87/83 92/86/82 93/88/84
f 47/87/83 93/88/84 46/89/85
f 46/89/85 93/88/84 94/90/86
f 46/89/85 94/90/86 45/91/87
f 45/91/87 94/90/86 95/92/88
f 45/91/87 95/92/88 44/93/89
f 44/93/89 95/92/88 96/94/90
f 44/93/89 96/94/90 43/95/91
f 43/95/91 96/94/90 97/96/92
f 43/95/91 97/96/92 42/97/93
f 42/97/93 97/96/92 98/98/94
f 42/97/93 98/98/94 41/99/95
f 41/99/95 98/98/94 99/100/96
f 41/99/95 99/100/96 40/101/97
f 40/101/97 99/100/96 100/102/98
f 40/101/97 100/102/98 39/103/99
f 39/103/99 100/102/98 101/104/100
f 39/103/99 101/104/100 38/105/101
f 38/105/101 101/104/100 102/106/102
f 38/105/101 102/106/102 37/107/103
f 37/107/103 102/106/102 103/108/104
f 37/107/103 103/108/104 36/37/35
f 36/37/35 103/108/104 104/38/36
f 36/109/105 35/110/106 1/111/107
f 1/111/107 35/110/106 69/112/108
f 1/111/107 69/112/108 2/113/109
f 2/113/109 69/112/108 68/114/110
f 2/113/109 68/114/110 67/115/111
f 2/113/109 67/115/111 3/116/112
f 3/116/112 67/115/111 66/117/113
f 3/116/112 66/117/113 65/118/114
f 3/116/112 65/118/114 4/119/115
f 4/119/115 65/118/114 64/120/116
f 4/119/115 64/120/116 63/121/117
f 4/119/115 63/121/117 5/122/118
f 5/122/118 63/121/117 62/123/119
f 5/122/118 62/123/119 61/124/120
f 5/122/118 61/124/120 6/125/121
f 6/125/121 61/124/120 60/126/122
f 6/125/121 60/126/122 59/127/123
f 6/125/121 59/127/123 7/128/124
f 7/128/124 59/127/123 58/129/125
f 7/128/124 58/129/125 57/130/126
f 7/128/124 57/130/126 8/131/127
f 8/131/127 57/130/126 56/132/128
f 8/131/127 56/132/128 55/133/129
f 8/131/127 55/133/129 9/134/130
f 9/134/130 55/133/129 54/135/131
f 9/134/130 54/135/131 53/136/132
f 9/134/130 53/136/132 10/137/133
f 10/137/133 53/136/132 52/138/134
f 10/137/133 52/138/134 51/139/135
f 51/139/135 50/140/136 10/137/133
f 10/137/133 50/140/136 11/141/137
f 11/141/137 50/140/136 49/142/138
f 11/141/137 49/142/138 48/143/139
f 11/141/137 48/143/139 12/144/140
f 12/144/140 48/143/139 47/145/141
f 12/144/140 47/145/141 46/146/142
f 12/144/140 46/146/142 13/147/143
f 13/147/143 46/146/142 45/148/144
f 13/147/143 45/148/144 44/149/145
f 13/147/143 44/149/145 14/150/146
f 14/150/146 44/149/145 43/151/147
f 14/150/146 43/151/147 42/152/148
f 14/150/146 42/152/148 15/153/149
f 15/153/149 42/152/148 41/154/150
f 15/153/149 41/154/150 40/155/151
f 15/153/149 40/155/151 16/156/152
f 16/156/152 40/155/151 39/157/153
f 16/156/152 39/157/153 38/158/154
f 16/156/152 38/158/154 17/159/155
f 17/159/155 38/158/154 37/160/156
f 17/159/155 37/160/156 36/109/105
f 17/159/155 36/109/105 1/111/107
f 71/161/157 70/162/158 18/163/159
f 18/163/159 70/162/158 104/164/160
f 18/163/159 104/164/160 19/165/161
f 19/165/161 104/164/160 103/166/162
f 19/165/161 103/166/162 102/167/163
f 19/165/161 102/167/163 20/168/164
f 20/168/164 102/167/163 101/169/165
f 20/168/164 101/169/165 100/170/166
f 20/168/164 100/170/166 21/171/167
f 21/171/167 100/170/166 99/172/168
f 21/171/167 99/172/168 98/173/169
f 21/171/167 98/173/169 22/174/170
f 22/174/170 98/173/169 97/175/171
f 22/174/170 97/175/171 96/176/172
f 22/174/170 96/176/172 23/177/173
f 23/177/173 96/176/172 95/178/174
f 23/177/173 95/178/174 94/179/175
f 23/177/173 94/179/175 24/180/176
f 24/180/176 94/179/175 93/181/177
f 24/180/176 93/181/177 92/182/178
f 24/180/176 92/182/178 25/183/179
f 25/183/179 92/182/178 91/184/180
f 25/183/179 91/184/180 90/185/181
f 25/183/179 90/185/181 26/186/182
f 26/186/182 90/185/181 89/187/183
f 26/186/182 89/187/183 88/188/184
f 88/188/184 87/189/185 26/186/182
f 26/186/182 87/189/185 27/190/186
f 27/190/186 87/189/185 86/191/187
f 27/190/186 86/191/187 85/192/188
f 27/190/186 85/192/188 28/193/189
f 28/193/189 85/192/188 84/194/190
f 28/193/189 84/194/190 83/195/191
f 28/193/189 83/195/191 29/196/192
f 29/196/192 83/195/191 82/197/193
f 29/196/192 82/197/193 81/198/194
f 29/196/192 81/198/194 30/199/195
f 30/199/195 81/198/194 80/200/196
f 30/199/195 80/200/196 79/201/197
f 30/199/195 79/201/197 31/202/198
f 31/202/198 79/201/197 78/203/199
f 31/202/198 78/203/199 77/204/200
f 31/202/198 77/204/200 32/205/201
f 32/205/201 77/204/200 76/206/202
f 32/205/201 76/206/202 75/207/203
f 32/205/201 75/207/203 33/208/204
f 33/208/204 75/207/203 74/209/205
f 33/208/204 74/209/205 73/210/206
f 33/208/204 73/210/206 34/211/207
f 34/211/207 73/210/206 72/212/208
f 34/211/207 72/212/208 71/161/157
f 34/211/207 71/161/157 18/163/159
# 104 vertices
# 212 texture params
# 208 normals
# 208 facets

# 1 groups
