# WaveFront *.obj file (generated by Autodesk ATF)

mtllib hambot_Pillars & Battery v1_4646 BNO055 Stemma v1_1_CHIPLED_0603_NOOUTLINE_1_Body5.mtl

g Body5

v -0.004138 0.066372 0.010502
v -0.004138 0.066372 0.011594
v -0.004925 0.066372 0.011594
v -0.004925 0.066372 0.010502
v -0.004925 0.066706 0.011576
v -0.004138 0.066706 0.011576
v -0.004138 0.066779 0.011500
v -0.004138 0.066779 0.010596
v -0.004925 0.066779 0.010596
v -0.004925 0.066779 0.011500
v -0.004138 0.066706 0.010520
v -0.004138 0.066743 0.010531
v -0.004138 0.066769 0.010559
v -0.004138 0.066769 0.011537
v -0.004138 0.066743 0.011565
v -0.004925 0.066769 0.011537
v -0.004925 0.066743 0.011565
v -0.004925 0.066769 0.010559
v -0.004925 0.066743 0.010531
v -0.004925 0.066706 0.010520
vt 0.079527 -0.001092 0.000000
vt 0.000787 -0.001092 0.000000
vt 0.079527 -0.110285 0.000000
vt 0.000787 -0.110285 0.000000
vt 0.034134 -0.001575 0.000000
vt 0.000669 -0.001575 0.000000
vt 0.034134 -0.080315 0.000000
vt 0.000669 -0.080315 0.000000
vt -0.080315 -0.092281 0.000000
vt -0.001575 -0.092281 0.000000
vt -0.080315 -0.001809 0.000000
vt -0.001575 -0.001809 0.000000
vt -0.002184 -0.000813 0.000000
vt -0.111377 -0.000813 0.000000
vt -0.003935 -0.034232 0.000000
vt -0.109626 -0.034232 0.000000
vt -0.011545 -0.041453 0.000000
vt -0.102016 -0.041453 0.000000
vt -0.108478 -0.037871 0.000000
vt -0.105711 -0.040497 0.000000
vt -0.007851 -0.040497 0.000000
vt -0.005083 -0.037871 0.000000
vt 0.080315 0.005785 0.000000
vt 0.001575 0.005785 0.000000
vt 0.080315 0.001928 0.000000
vt 0.001575 0.001928 0.000000
vt 0.080315 -0.001928 0.000000
vt 0.001575 -0.001928 0.000000
vt 0.080315 -0.005785 0.000000
vt 0.001575 -0.005785 0.000000
vt -0.011545 -0.041453 0.000000
vt -0.109626 -0.034232 0.000000
vt -0.102016 -0.041453 0.000000
vt -0.108478 -0.037871 0.000000
vt -0.105711 -0.040497 0.000000
vt -0.007851 -0.040497 0.000000
vt -0.005083 -0.037871 0.000000
vt -0.003935 -0.034232 0.000000
vt -0.111377 -0.000813 0.000000
vt -0.002184 -0.000813 0.000000
vt 0.080315 0.005785 0.000000
vt 0.001575 0.005785 0.000000
vt 0.080315 0.001928 0.000000
vt 0.001575 0.001928 0.000000
vt 0.080315 -0.001928 0.000000
vt 0.001575 -0.001928 0.000000
vt 0.080315 -0.005785 0.000000
vt 0.001575 -0.005785 0.000000
vt -0.034134 0.001575 0.000000
vt -0.000669 0.001575 0.000000
vt -0.034134 0.080315 0.000000
vt -0.000669 0.080315 0.000000
vn 0.000000 -100.000000 -0.000000
vn 0.000000 -100.000000 -0.000000
vn 0.000000 -100.000000 -0.000000
vn 0.000000 -100.000000 -0.000000
vn 0.000000 5.233596 99.862953
vn 0.000000 5.233596 99.862953
vn 0.000000 5.233596 99.862953
vn 0.000000 5.233596 99.862953
vn -0.000000 100.000000 0.000000
vn -0.000000 100.000000 0.000000
vn -0.000000 100.000000 0.000000
vn -0.000000 100.000000 0.000000
vn 100.000000 0.000000 -0.000000
vn 100.000000 0.000000 -0.000000
vn 100.000000 0.000000 -0.000000
vn 100.000000 0.000000 -0.000000
vn 100.000000 0.000000 -0.000000
vn 100.000000 0.000000 -0.000000
vn 100.000000 0.000000 -0.000000
vn 100.000000 0.000000 -0.000000
vn 100.000000 0.000000 -0.000000
vn 100.000000 0.000000 -0.000000
vn -0.000000 87.461971 48.480962
vn -0.000000 87.461971 48.480962
vn -0.000000 52.991926 84.804810
vn -0.000000 52.991926 84.804810
vn -100.000000 -0.000000 0.000000
vn -100.000000 -0.000000 0.000000
vn -100.000000 -0.000000 0.000000
vn -100.000000 -0.000000 0.000000
vn -100.000000 -0.000000 0.000000
vn -100.000000 -0.000000 0.000000
vn -100.000000 -0.000000 0.000000
vn -100.000000 -0.000000 0.000000
vn -100.000000 -0.000000 0.000000
vn -100.000000 -0.000000 0.000000
vn -0.000000 87.461971 -48.480962
vn -0.000000 87.461971 -48.480962
vn 0.000000 52.991926 -84.804810
vn 0.000000 52.991926 -84.804810
vn 0.000000 5.233596 -99.862953
vn 0.000000 5.233596 -99.862953
vn -0.000000 5.233596 -99.862953
vn -0.000000 5.233596 -99.862953
usemtl Opaque(68,150,72)
f 2/1/1 3/2/2 1/3/3
f 1/3/3 3/2/2 4/4/4
f 5/5/5 3/6/6 6/7/7
f 6/7/7 3/6/6 2/8/8
f 8/9/9 9/10/10 7/11/11
f 7/11/11 9/10/10 10/12/12
f 2/13/13 1/14/14 6/15/15
f 6/15/15 1/14/14 11/16/16
f 6/15/15 11/16/16 7/17/17
f 7/17/17 11/16/16 8/18/18
f 8/18/18 11/16/16 12/19/19
f 8/18/18 12/19/19 13/20/20
f 14/21/21 15/22/22 7/17/17
f 7/17/17 15/22/22 6/15/15
f 7/23/11 10/24/12 14/25/23
f 14/25/23 10/24/12 16/26/24
f 14/25/23 16/26/24 15/27/25
f 15/27/25 16/26/24 17/28/26
f 15/27/25 17/28/26 6/29/7
f 6/29/7 17/28/26 5/30/5
f 9/31/27 5/32/28 10/33/29
f 10/33/29 5/32/28 17/34/30
f 10/33/29 17/34/30 16/35/31
f 18/36/32 19/37/33 9/31/27
f 9/31/27 19/37/33 20/38/34
f 9/31/27 20/38/34 5/32/28
f 5/32/28 20/38/34 3/39/35
f 3/39/35 20/38/34 4/40/36
f 9/41/10 8/42/9 18/43/37
f 18/43/37 8/42/9 13/44/38
f 18/43/37 13/44/38 19/45/39
f 19/45/39 13/44/38 12/46/40
f 19/45/39 12/46/40 20/47/41
f 20/47/41 12/46/40 11/48/42
f 11/49/42 1/50/43 20/51/41
f 20/51/41 1/50/43 4/52/44
# 20 vertices
# 52 texture params
# 44 normals
# 36 facets

# 1 groups
