# WaveFront *.obj file (generated by Autodesk ATF)

mtllib hambot_Pillars & Battery v1_4646 BNO055 Stemma v1_1_0805-NO_2_Body1.mtl

g Body1

v -0.012302 0.067070 0.014372
v -0.012302 0.067070 0.013972
v -0.013552 0.067070 0.013972
v -0.013552 0.067070 0.014372
v -0.012302 0.066070 0.014372
v -0.012302 0.066070 0.013972
v -0.013552 0.066070 0.013972
v -0.013552 0.066070 0.014372
v -0.012302 0.066070 0.012372
v -0.013552 0.066070 0.012372
v -0.013552 0.067070 0.012372
v -0.012302 0.067070 0.012372
v -0.013552 0.066070 0.012772
v -0.013552 0.067070 0.012772
v -0.012302 0.067070 0.012772
v -0.012302 0.066070 0.012772
v -0.012303 0.066070 0.012772
v -0.012303 0.066070 0.013972
v -0.013551 0.066070 0.013972
v -0.013551 0.066070 0.012772
v -0.012303 0.067069 0.013972
v -0.013551 0.067069 0.013972
v -0.013551 0.067069 0.012772
v -0.012303 0.067069 0.012772
vt -0.100000 -0.062500 0.000000
vt -0.060000 -0.062500 0.000000
vt -0.100000 0.062500 0.000000
vt -0.060000 0.062500 0.000000
vt 0.100000 0.040000 0.000000
vt -0.000000 0.040000 0.000000
vt 0.100000 0.000000 0.000000
vt -0.000000 0.000000 0.000000
vt -0.000000 0.040000 0.000000
vt -0.100000 0.040000 0.000000
vt -0.000000 0.000000 0.000000
vt -0.100000 0.000000 0.000000
vt 0.100000 0.000000 0.000000
vt -0.000000 0.000000 0.000000
vt 0.100000 -0.125000 0.000000
vt -0.000000 -0.125000 0.000000
vt -0.100000 0.160000 0.000000
vt -0.000000 0.160000 0.000000
vt -0.100000 0.200000 0.000000
vt -0.000000 0.200000 0.000000
vt -0.100000 -0.125000 0.000000
vt -0.000000 -0.125000 0.000000
vt -0.100000 0.000000 0.000000
vt -0.000000 0.000000 0.000000
vt -0.000000 0.160000 0.000000
vt 0.100000 0.160000 0.000000
vt -0.000000 0.200000 0.000000
vt 0.100000 0.200000 0.000000
vt 0.060000 -0.062500 0.000000
vt 0.100000 -0.062500 0.000000
vt 0.060000 0.062500 0.000000
vt 0.100000 0.062500 0.000000
vt 0.060000 -0.062400 0.000000
vt -0.060000 0.062400 0.000000
vt -0.060000 -0.062400 0.000000
vt -0.100000 -0.062500 0.000000
vt -0.060000 -0.062500 0.000000
vt 0.060000 -0.062500 0.000000
vt 0.100000 -0.062500 0.000000
vt 0.060000 0.062400 0.000000
vt 0.100000 0.062500 0.000000
vt 0.060000 0.062500 0.000000
vt -0.060000 0.062500 0.000000
vt -0.100000 0.062500 0.000000
vt 0.100000 -0.000100 0.000000
vt 0.100000 0.000000 0.000000
vt 0.000100 -0.000100 0.000000
vt -0.000000 0.000000 0.000000
vt -0.000000 -0.125000 0.000000
vt 0.000100 -0.124900 0.000000
vt 0.100000 -0.125000 0.000000
vt 0.100000 -0.124900 0.000000
vt -0.100000 -0.120000 0.000000
vt -0.000100 -0.120000 0.000000
vt -0.100000 0.000000 0.000000
vt -0.000100 0.000000 0.000000
vt -0.100000 -0.000100 0.000000
vt -0.000100 -0.000100 0.000000
vt -0.100000 0.000000 0.000000
vt -0.000000 0.000000 0.000000
vt -0.000000 -0.125000 0.000000
vt -0.000100 -0.124900 0.000000
vt -0.100000 -0.125000 0.000000
vt -0.100000 -0.124900 0.000000
vt 0.100000 0.000000 0.000000
vt 0.000100 0.000000 0.000000
vt 0.100000 -0.120000 0.000000
vt 0.000100 -0.120000 0.000000
vt -0.000000 0.124900 0.000000
vt -0.120000 0.124900 0.000000
vt -0.000000 0.000100 0.000000
vt -0.120000 0.000100 0.000000
vn -0.000000 100.000000 0.000000
vn -0.000000 100.000000 0.000000
vn -0.000000 100.000000 0.000000
vn -0.000000 100.000000 0.000000
vn 100.000000 0.000000 -0.000000
vn 100.000000 0.000000 -0.000000
vn 100.000000 0.000000 -0.000000
vn 100.000000 0.000000 -0.000000
vn -100.000000 -0.000000 0.000000
vn -100.000000 -0.000000 0.000000
vn -100.000000 -0.000000 0.000000
vn -100.000000 -0.000000 0.000000
vn 0.000000 0.000000 -100.000000
vn 0.000000 0.000000 -100.000000
vn 0.000000 0.000000 -100.000000
vn 0.000000 0.000000 -100.000000
vn -100.000000 -0.000000 0.000000
vn -100.000000 -0.000000 0.000000
vn -100.000000 -0.000000 0.000000
vn -100.000000 -0.000000 0.000000
vn -0.000000 -0.000000 100.000000
vn -0.000000 -0.000000 100.000000
vn -0.000000 -0.000000 100.000000
vn -0.000000 -0.000000 100.000000
vn 100.000000 0.000000 -0.000000
vn 100.000000 0.000000 -0.000000
vn 100.000000 0.000000 -0.000000
vn 100.000000 0.000000 -0.000000
vn -0.000000 100.000000 0.000000
vn -0.000000 100.000000 0.000000
vn -0.000000 100.000000 0.000000
vn -0.000000 100.000000 0.000000
vn 0.000000 -100.000000 -0.000000
vn 0.000000 -100.000000 -0.000000
vn 0.000000 -100.000000 -0.000000
vn 0.000000 -100.000000 -0.000000
vn 0.000000 -100.000000 -0.000000
vn 0.000000 -100.000000 -0.000000
vn 0.000000 -100.000000 -0.000000
vn 0.000000 -100.000000 -0.000000
vn 0.000000 -100.000000 -0.000000
vn 0.000000 -100.000000 -0.000000
vn 0.000000 -100.000000 -0.000000
vn 0.000000 -100.000000 -0.000000
vn 0.000000 0.000000 -100.000000
vn 0.000000 0.000000 -100.000000
vn 0.000000 0.000000 -100.000000
vn 0.000000 0.000000 -100.000000
vn 0.000000 0.000000 -100.000000
vn 0.000000 0.000000 -100.000000
vn 0.000000 0.000000 -100.000000
vn 0.000000 0.000000 -100.000000
vn -100.000000 -0.000000 0.000000
vn -100.000000 -0.000000 0.000000
vn -100.000000 -0.000000 0.000000
vn -100.000000 -0.000000 0.000000
vn -0.000000 -0.000000 100.000000
vn -0.000000 -0.000000 100.000000
vn -0.000000 -0.000000 100.000000
vn -0.000000 -0.000000 100.000000
vn -0.000000 -0.000000 100.000000
vn -0.000000 -0.000000 100.000000
vn -0.000000 -0.000000 100.000000
vn -0.000000 -0.000000 100.000000
vn 100.000000 0.000000 -0.000000
vn 100.000000 0.000000 -0.000000
vn 100.000000 0.000000 -0.000000
vn 100.000000 0.000000 -0.000000
vn -0.000000 100.000000 0.000000
vn -0.000000 100.000000 0.000000
vn -0.000000 100.000000 0.000000
vn -0.000000 100.000000 0.000000
usemtl Opaque(255,255,255)
f 1/1/1 2/2/2 4/3/3
f 4/3/3 2/2/2 3/4/4
f 6/5/5 2/6/6 5/7/7
f 5/7/7 2/6/6 1/8/8
f 3/9/9 7/10/10 4/11/11
f 4/11/11 7/10/10 8/12/12
f 10/13/13 11/14/14 9/15/15
f 9/15/15 11/14/14 12/16/16
f 13/17/17 14/18/18 10/19/19
f 10/19/19 14/18/18 11/20/20
f 5/21/21 1/22/22 8/23/23
f 8/23/23 1/22/22 4/24/24
f 15/25/25 16/26/26 12/27/27
f 12/27/27 16/26/26 9/28/28
f 15/29/29 12/30/30 14/31/31
f 14/31/31 12/30/30 11/32/32
f 18/33/33 20/34/34 17/35/35
f 17/35/35 20/34/34 9/36/36
f 17/35/35 9/36/36 16/37/37
f 6/38/38 5/39/39 18/33/33
f 18/33/33 5/39/39 19/40/40
f 18/33/33 19/40/40 20/34/34
f 5/39/39 8/41/41 19/40/40
f 19/40/40 8/41/41 7/42/42
f 13/43/43 10/44/44 20/34/34
f 20/34/34 10/44/44 9/36/36
usemtl Opaque(228,180,12)
f 19/45/45 7/46/46 22/47/47
f 22/47/47 7/46/46 3/48/48
f 22/47/47 3/48/48 2/49/49
f 22/47/47 2/49/49 21/50/50
f 21/50/50 2/49/49 6/51/51
f 21/50/50 6/51/51 18/52/52
f 19/53/53 22/54/54 20/55/55
f 20/55/55 22/54/54 23/56/56
f 20/57/57 23/58/58 13/59/59
f 13/59/59 23/58/58 14/60/60
f 14/60/60 23/58/58 15/61/61
f 15/61/61 23/58/58 24/62/62
f 15/61/61 24/62/62 16/63/63
f 16/63/63 24/62/62 17/64/64
f 17/65/65 24/66/66 18/67/67
f 18/67/67 24/66/66 21/68/68
f 23/69/69 22/70/70 24/71/71
f 24/71/71 22/70/70 21/72/72
g Body1:1

v -0.007222 0.067070 0.018182
v -0.007222 0.067070 0.017782
v -0.008472 0.067070 0.017782
v -0.008472 0.067070 0.018182
v -0.007222 0.066070 0.018182
v -0.007222 0.066070 0.017782
v -0.008472 0.066070 0.017782
v -0.008472 0.066070 0.018182
v -0.007222 0.066070 0.016182
v -0.008472 0.066070 0.016182
v -0.008472 0.067070 0.016182
v -0.007222 0.067070 0.016182
v -0.008472 0.066070 0.016582
v -0.008472 0.067070 0.016582
v -0.007222 0.067070 0.016582
v -0.007222 0.066070 0.016582
v -0.007223 0.066070 0.016582
v -0.007223 0.066070 0.017782
v -0.008471 0.066070 0.017782
v -0.008471 0.066070 0.016582
v -0.007223 0.067069 0.017782
v -0.008471 0.067069 0.017782
v -0.008471 0.067069 0.016582
v -0.007223 0.067069 0.016582
vt -0.100000 -0.062500 0.000000
vt -0.060000 -0.062500 0.000000
vt -0.100000 0.062500 0.000000
vt -0.060000 0.062500 0.000000
vt 0.100000 0.040000 0.000000
vt -0.000000 0.040000 0.000000
vt 0.100000 0.000000 0.000000
vt -0.000000 0.000000 0.000000
vt -0.000000 0.040000 0.000000
vt -0.100000 0.040000 0.000000
vt -0.000000 0.000000 0.000000
vt -0.100000 0.000000 0.000000
vt 0.100000 0.000000 0.000000
vt -0.000000 0.000000 0.000000
vt 0.100000 -0.125000 0.000000
vt -0.000000 -0.125000 0.000000
vt -0.100000 0.160000 0.000000
vt -0.000000 0.160000 0.000000
vt -0.100000 0.200000 0.000000
vt -0.000000 0.200000 0.000000
vt -0.100000 -0.125000 0.000000
vt -0.000000 -0.125000 0.000000
vt -0.100000 0.000000 0.000000
vt -0.000000 0.000000 0.000000
vt -0.000000 0.160000 0.000000
vt 0.100000 0.160000 0.000000
vt -0.000000 0.200000 0.000000
vt 0.100000 0.200000 0.000000
vt 0.060000 -0.062500 0.000000
vt 0.100000 -0.062500 0.000000
vt 0.060000 0.062500 0.000000
vt 0.100000 0.062500 0.000000
vt 0.060000 -0.062400 0.000000
vt -0.060000 0.062400 0.000000
vt -0.060000 -0.062400 0.000000
vt -0.100000 -0.062500 0.000000
vt -0.060000 -0.062500 0.000000
vt 0.060000 -0.062500 0.000000
vt 0.100000 -0.062500 0.000000
vt 0.060000 0.062400 0.000000
vt 0.100000 0.062500 0.000000
vt 0.060000 0.062500 0.000000
vt -0.060000 0.062500 0.000000
vt -0.100000 0.062500 0.000000
vt 0.100000 -0.000100 0.000000
vt 0.100000 0.000000 0.000000
vt 0.000100 -0.000100 0.000000
vt -0.000000 0.000000 0.000000
vt -0.000000 -0.125000 0.000000
vt 0.000100 -0.124900 0.000000
vt 0.100000 -0.125000 0.000000
vt 0.100000 -0.124900 0.000000
vt -0.100000 -0.120000 0.000000
vt -0.000100 -0.120000 0.000000
vt -0.100000 0.000000 0.000000
vt -0.000100 0.000000 0.000000
vt -0.100000 -0.000100 0.000000
vt -0.000100 -0.000100 0.000000
vt -0.100000 0.000000 0.000000
vt -0.000000 0.000000 0.000000
vt -0.000000 -0.125000 0.000000
vt -0.000100 -0.124900 0.000000
vt -0.100000 -0.125000 0.000000
vt -0.100000 -0.124900 0.000000
vt 0.100000 0.000000 0.000000
vt 0.000100 0.000000 0.000000
vt 0.100000 -0.120000 0.000000
vt 0.000100 -0.120000 0.000000
vt -0.000000 0.124900 0.000000
vt -0.120000 0.124900 0.000000
vt -0.000000 0.000100 0.000000
vt -0.120000 0.000100 0.000000
vn -0.000000 100.000000 0.000000
vn -0.000000 100.000000 0.000000
vn -0.000000 100.000000 0.000000
vn -0.000000 100.000000 0.000000
vn 100.000000 0.000000 -0.000000
vn 100.000000 0.000000 -0.000000
vn 100.000000 0.000000 -0.000000
vn 100.000000 0.000000 -0.000000
vn -100.000000 -0.000000 0.000000
vn -100.000000 -0.000000 0.000000
vn -100.000000 -0.000000 0.000000
vn -100.000000 -0.000000 0.000000
vn 0.000000 0.000000 -100.000000
vn 0.000000 0.000000 -100.000000
vn 0.000000 0.000000 -100.000000
vn 0.000000 0.000000 -100.000000
vn -100.000000 -0.000000 0.000000
vn -100.000000 -0.000000 0.000000
vn -100.000000 -0.000000 0.000000
vn -100.000000 -0.000000 0.000000
vn -0.000000 -0.000000 100.000000
vn -0.000000 -0.000000 100.000000
vn -0.000000 -0.000000 100.000000
vn -0.000000 -0.000000 100.000000
vn 100.000000 0.000000 -0.000000
vn 100.000000 0.000000 -0.000000
vn 100.000000 0.000000 -0.000000
vn 100.000000 0.000000 -0.000000
vn -0.000000 100.000000 0.000000
vn -0.000000 100.000000 0.000000
vn -0.000000 100.000000 0.000000
vn -0.000000 100.000000 0.000000
vn 0.000000 -100.000000 -0.000000
vn 0.000000 -100.000000 -0.000000
vn 0.000000 -100.000000 -0.000000
vn 0.000000 -100.000000 -0.000000
vn 0.000000 -100.000000 -0.000000
vn 0.000000 -100.000000 -0.000000
vn 0.000000 -100.000000 -0.000000
vn 0.000000 -100.000000 -0.000000
vn 0.000000 -100.000000 -0.000000
vn 0.000000 -100.000000 -0.000000
vn 0.000000 -100.000000 -0.000000
vn 0.000000 -100.000000 -0.000000
vn 0.000000 0.000000 -100.000000
vn 0.000000 0.000000 -100.000000
vn 0.000000 0.000000 -100.000000
vn 0.000000 0.000000 -100.000000
vn 0.000000 0.000000 -100.000000
vn 0.000000 0.000000 -100.000000
vn 0.000000 0.000000 -100.000000
vn 0.000000 0.000000 -100.000000
vn -100.000000 -0.000000 0.000000
vn -100.000000 -0.000000 0.000000
vn -100.000000 -0.000000 0.000000
vn -100.000000 -0.000000 0.000000
vn -0.000000 -0.000000 100.000000
vn -0.000000 -0.000000 100.000000
vn -0.000000 -0.000000 100.000000
vn -0.000000 -0.000000 100.000000
vn -0.000000 -0.000000 100.000000
vn -0.000000 -0.000000 100.000000
vn -0.000000 -0.000000 100.000000
vn -0.000000 -0.000000 100.000000
vn 100.000000 0.000000 -0.000000
vn 100.000000 0.000000 -0.000000
vn 100.000000 0.000000 -0.000000
vn 100.000000 0.000000 -0.000000
vn -0.000000 100.000000 0.000000
vn -0.000000 100.000000 0.000000
vn -0.000000 100.000000 0.000000
vn -0.000000 100.000000 0.000000
usemtl Opaque(255,255,255)
f 25/73/73 26/74/74 28/75/75
f 28/75/75 26/74/74 27/76/76
f 30/77/77 26/78/78 29/79/79
f 29/79/79 26/78/78 25/80/80
f 27/81/81 31/82/82 28/83/83
f 28/83/83 31/82/82 32/84/84
f 34/85/85 35/86/86 33/87/87
f 33/87/87 35/86/86 36/88/88
f 37/89/89 38/90/90 34/91/91
f 34/91/91 38/90/90 35/92/92
f 29/93/93 25/94/94 32/95/95
f 32/95/95 25/94/94 28/96/96
f 39/97/97 40/98/98 36/99/99
f 36/99/99 40/98/98 33/100/100
f 39/101/101 36/102/102 38/103/103
f 38/103/103 36/102/102 35/104/104
f 42/105/105 44/106/106 41/107/107
f 41/107/107 44/106/106 33/108/108
f 41/107/107 33/108/108 40/109/109
f 30/110/110 29/111/111 42/105/105
f 42/105/105 29/111/111 43/112/112
f 42/105/105 43/112/112 44/106/106
f 29/111/111 32/113/113 43/112/112
f 43/112/112 32/113/113 31/114/114
f 37/115/115 34/116/116 44/106/106
f 44/106/106 34/116/116 33/108/108
usemtl Opaque(228,180,12)
f 43/117/117 31/118/118 46/119/119
f 46/119/119 31/118/118 27/120/120
f 46/119/119 27/120/120 26/121/121
f 46/119/119 26/121/121 45/122/122
f 45/122/122 26/121/121 30/123/123
f 45/122/122 30/123/123 42/124/124
f 43/125/125 46/126/126 44/127/127
f 44/127/127 46/126/126 47/128/128
f 44/129/129 47/130/130 37/131/131
f 37/131/131 47/130/130 38/132/132
f 38/132/132 47/130/130 39/133/133
f 39/133/133 47/130/130 48/134/134
f 39/133/133 48/134/134 40/135/135
f 40/135/135 48/134/134 41/136/136
f 41/137/137 48/138/138 42/139/139
f 42/139/139 48/138/138 45/140/140
f 47/141/141 46/142/142 48/143/143
f 48/143/143 46/142/142 45/144/144
# 48 vertices
# 144 texture params
# 144 normals
# 88 facets

# 2 groups
