# WaveFront *.obj file (generated by Autodesk ATF)

mtllib hambot_Pillars & Battery v1_4646 BNO055 Stemma v1_1_BNO055_1_Body22.mtl

g Body22

v -0.007881 0.066170 0.020748
v -0.007881 0.066170 0.020498
v -0.007881 0.066070 0.020498
v -0.007881 0.066070 0.020748
v -0.007506 0.066170 0.020498
v -0.007506 0.066070 0.020498
v -0.007506 0.066170 0.020748
v -0.007506 0.066070 0.020748
vt -0.000000 0.010000 0.000000
vt -0.025000 0.010000 0.000000
vt -0.000000 0.000000 0.000000
vt -0.025000 0.000000 0.000000
vt -0.000000 0.010000 0.000000
vt -0.037500 0.010000 0.000000
vt -0.000000 0.000000 0.000000
vt -0.037500 0.000000 0.000000
vt -0.000000 0.010000 0.000000
vt -0.025000 0.010000 0.000000
vt -0.000000 0.000000 0.000000
vt -0.025000 0.000000 0.000000
vt -0.000000 0.010000 0.000000
vt -0.037500 0.010000 0.000000
vt -0.000000 0.000000 0.000000
vt -0.037500 0.000000 0.000000
vt 0.062500 0.212500 0.000000
vt 0.087500 0.212500 0.000000
vt 0.062500 0.250000 0.000000
vt 0.087500 0.250000 0.000000
vt -0.087500 0.212500 0.000000
vt -0.062500 0.212500 0.000000
vt -0.087500 0.250000 0.000000
vt -0.062500 0.250000 0.000000
vn -100.000000 -0.000000 -0.000000
vn -100.000000 -0.000000 -0.000000
vn -100.000000 -0.000000 -0.000000
vn -100.000000 -0.000000 -0.000000
vn 0.000000 0.000000 -100.000000
vn 0.000000 0.000000 -100.000000
vn 0.000000 0.000000 -100.000000
vn 0.000000 0.000000 -100.000000
vn 100.000000 0.000000 0.000000
vn 100.000000 0.000000 0.000000
vn 100.000000 0.000000 0.000000
vn 100.000000 0.000000 0.000000
vn 0.000000 -0.000000 100.000000
vn 0.000000 -0.000000 100.000000
vn 0.000000 -0.000000 100.000000
vn 0.000000 -0.000000 100.000000
vn 0.000000 -100.000000 -0.000000
vn 0.000000 -100.000000 -0.000000
vn 0.000000 -100.000000 -0.000000
vn 0.000000 -100.000000 -0.000000
vn -0.000000 100.000000 0.000000
vn -0.000000 100.000000 0.000000
vn -0.000000 100.000000 0.000000
vn -0.000000 100.000000 0.000000
usemtl Opaque(255,255,255)
f 1/1/1 2/2/2 4/3/3
f 4/3/3 2/2/2 3/4/4
f 2/5/5 5/6/6 3/7/7
f 3/7/7 5/6/6 6/8/8
f 5/9/9 7/10/10 6/11/11
f 6/11/11 7/10/10 8/12/12
f 7/13/13 1/14/14 8/15/15
f 8/15/15 1/14/14 4/16/16
f 4/17/17 3/18/18 8/19/19
f 8/19/19 3/18/18 6/20/20
f 2/21/21 1/22/22 5/23/23
f 5/23/23 1/22/22 7/24/24
# 8 vertices
# 24 texture params
# 24 normals
# 12 facets

# 1 groups
