# WaveFront *.obj file (generated by Autodesk ATF)

mtllib hambot_Pillars & Battery v1_4646 BNO055 Stemma v1_1_CHIPLED_0603_NOOUTLINE_1_Body4.mtl

g Body4

v -0.004925 0.066370 0.011842
v -0.004925 0.066370 0.010254
v -0.004925 0.066078 0.010254
v -0.004925 0.066078 0.011842
v -0.004151 0.066078 0.010254
v -0.004151 0.066370 0.010254
v -0.004138 0.066370 0.010254
v -0.004138 0.066078 0.010254
v -0.004138 0.066370 0.011842
v -0.004138 0.066078 0.011842
v -0.004913 0.066078 0.011842
v -0.004913 0.066370 0.011842
v -0.004151 0.066078 0.010692
v -0.004913 0.066078 0.010692
v -0.004913 0.066078 0.010254
v -0.004716 0.066078 0.010254
v -0.004697 0.066078 0.010334
v -0.004646 0.066078 0.010398
v -0.004572 0.066078 0.010434
v -0.004491 0.066078 0.010434
v -0.004417 0.066078 0.010398
v -0.004366 0.066078 0.010334
v -0.004347 0.066078 0.010254
v -0.004347 0.066370 0.010254
v -0.004716 0.066370 0.010254
v -0.004697 0.066370 0.010334
v -0.004646 0.066370 0.010398
v -0.004572 0.066370 0.010434
v -0.004491 0.066370 0.010434
v -0.004417 0.066370 0.010398
v -0.004366 0.066370 0.010334
v -0.004913 0.066370 0.010254
v -0.004913 0.066370 0.010502
v -0.004151 0.066370 0.010502
v -0.004347 0.066370 0.011842
v -0.004366 0.066370 0.011762
v -0.004417 0.066370 0.011698
v -0.004491 0.066370 0.011662
v -0.004572 0.066370 0.011662
v -0.004646 0.066370 0.011698
v -0.004697 0.066370 0.011762
v -0.004716 0.066370 0.011842
v -0.004716 0.066078 0.011842
v -0.004697 0.066078 0.011762
v -0.004646 0.066078 0.011698
v -0.004572 0.066078 0.011662
v -0.004491 0.066078 0.011662
v -0.004417 0.066078 0.011698
v -0.004366 0.066078 0.011762
v -0.004347 0.066078 0.011842
v -0.004151 0.066078 0.011842
v -0.004151 0.066370 0.011842
v -0.004913 0.066370 0.011594
v -0.004151 0.066370 0.011594
v -0.004151 0.066078 0.011404
v -0.004913 0.066078 0.011404
vt 0.000000 0.000000 0.000000
vt 0.158750 0.000000 0.000000
vt 0.000000 0.029210 0.000000
vt 0.158750 0.029210 0.000000
vt 0.029210 -0.077470 0.000000
vt 0.000000 -0.077470 0.000000
vt 0.029210 -0.078740 0.000000
vt 0.000000 -0.078740 0.000000
vt 0.000000 0.000000 0.000000
vt 0.158750 0.000000 0.000000
vt 0.000000 0.029210 0.000000
vt 0.158750 0.029210 0.000000
vt -0.029210 0.077470 0.000000
vt 0.000000 0.077470 0.000000
vt -0.029210 0.078740 0.000000
vt 0.000000 0.078740 0.000000
vt 0.077470 -0.114935 0.000000
vt 0.050855 -0.144354 0.000000
vt 0.077470 -0.158750 0.000000
vt 0.055965 -0.150761 0.000000
vt 0.057785 -0.158750 0.000000
vt 0.001270 -0.114935 0.000000
vt 0.035271 -0.140798 0.000000
vt 0.043469 -0.140798 0.000000
vt 0.027885 -0.144354 0.000000
vt 0.001270 -0.158750 0.000000
vt 0.022775 -0.150761 0.000000
vt 0.020955 -0.158750 0.000000
vt 0.052082 0.000000 0.000000
vt 0.059770 0.000000 0.000000
vt 0.052082 0.029210 0.000000
vt 0.059770 0.029210 0.000000
vt 0.066883 0.000000 0.000000
vt 0.066883 0.029210 0.000000
vt 0.074179 0.000000 0.000000
vt 0.074179 0.029210 0.000000
vt 0.082114 0.000000 0.000000
vt 0.082114 0.029210 0.000000
vt 0.089411 0.000000 0.000000
vt 0.089411 0.029210 0.000000
vt 0.096523 0.000000 0.000000
vt 0.096523 0.029210 0.000000
vt 0.104209 0.000000 0.000000
vt 0.104209 0.029210 0.000000
vt 0.029210 0.000000 0.000000
vt 0.000000 0.000000 0.000000
vt 0.029210 -0.001270 0.000000
vt 0.000000 -0.001270 0.000000
vt 0.029210 -0.020955 0.000000
vt 0.029210 -0.001270 0.000000
vt 0.000000 -0.020955 0.000000
vt 0.000000 -0.001270 0.000000
vt 0.029210 -0.077470 0.000000
vt 0.029210 -0.057785 0.000000
vt 0.000000 -0.077470 0.000000
vt 0.000000 -0.057785 0.000000
vt -0.020955 -0.158750 0.000000
vt -0.001270 -0.158750 0.000000
vt -0.022775 -0.150761 0.000000
vt -0.001270 -0.133985 0.000000
vt -0.027885 -0.144354 0.000000
vt -0.035271 -0.140798 0.000000
vt -0.077470 -0.133985 0.000000
vt -0.043469 -0.140798 0.000000
vt -0.050855 -0.144354 0.000000
vt -0.055965 -0.150761 0.000000
vt -0.077470 -0.158750 0.000000
vt -0.057785 -0.158750 0.000000
vt -0.052082 0.029210 0.000000
vt -0.059770 0.029210 0.000000
vt -0.052082 0.000000 0.000000
vt -0.059770 0.000000 0.000000
vt -0.066883 0.029210 0.000000
vt -0.066883 0.000000 0.000000
vt -0.074179 0.029210 0.000000
vt -0.074179 0.000000 0.000000
vt -0.082114 0.029210 0.000000
vt -0.082114 0.000000 0.000000
vt -0.089411 0.029210 0.000000
vt -0.089411 0.000000 0.000000
vt -0.096523 0.029210 0.000000
vt -0.096523 0.000000 0.000000
vt -0.104209 0.029210 0.000000
vt -0.104209 0.000000 0.000000
vt -0.029210 0.057785 0.000000
vt 0.000000 0.057785 0.000000
vt -0.029210 0.077470 0.000000
vt 0.000000 0.077470 0.000000
vt -0.029210 0.001270 0.000000
vt 0.000000 0.001270 0.000000
vt -0.029210 0.020955 0.000000
vt 0.000000 0.020955 0.000000
vt -0.029210 0.000000 0.000000
vt 0.000000 0.000000 0.000000
vt -0.029210 0.001270 0.000000
vt 0.000000 0.001270 0.000000
vt -0.001270 0.000000 0.000000
vt -0.001270 -0.024765 0.000000
vt 0.000000 0.000000 0.000000
vt 0.000000 -0.158750 0.000000
vt -0.001270 -0.133985 0.000000
vt -0.001270 -0.158750 0.000000
vt -0.077470 -0.024765 0.000000
vt -0.077470 -0.133985 0.000000
vt -0.078740 -0.158750 0.000000
vt -0.077470 -0.158750 0.000000
vt -0.077470 0.000000 0.000000
vt -0.078740 0.000000 0.000000
vt -0.020955 0.000000 0.000000
vt -0.022775 -0.007989 0.000000
vt -0.001270 0.000000 0.000000
vt -0.001270 -0.024765 0.000000
vt -0.027885 -0.014396 0.000000
vt -0.035271 -0.017952 0.000000
vt -0.077470 -0.024765 0.000000
vt -0.043469 -0.017952 0.000000
vt -0.050855 -0.014396 0.000000
vt -0.055965 -0.007989 0.000000
vt -0.077470 0.000000 0.000000
vt -0.057785 0.000000 0.000000
vt 0.077470 0.000000 0.000000
vt 0.077470 -0.043815 0.000000
vt 0.078740 0.000000 0.000000
vt 0.078740 -0.158750 0.000000
vt 0.077470 -0.114935 0.000000
vt 0.077470 -0.158750 0.000000
vt 0.001270 -0.043815 0.000000
vt 0.001270 -0.114935 0.000000
vt 0.000000 -0.158750 0.000000
vt 0.001270 -0.158750 0.000000
vt 0.001270 0.000000 0.000000
vt 0.000000 0.000000 0.000000
vt 0.057785 0.000000 0.000000
vt 0.055965 -0.007989 0.000000
vt 0.077470 0.000000 0.000000
vt 0.050855 -0.014396 0.000000
vt 0.077470 -0.043815 0.000000
vt 0.043469 -0.017952 0.000000
vt 0.035271 -0.017952 0.000000
vt 0.001270 -0.043815 0.000000
vt 0.027885 -0.014396 0.000000
vt 0.001270 0.000000 0.000000
vt 0.022775 -0.007989 0.000000
vt 0.020955 0.000000 0.000000
vn -100.000000 -0.000000 0.000000
vn -100.000000 -0.000000 0.000000
vn -100.000000 -0.000000 0.000000
vn -100.000000 -0.000000 0.000000
vn 0.000000 0.000000 -100.000000
vn 0.000000 0.000000 -100.000000
vn 0.000000 0.000000 -100.000000
vn 0.000000 0.000000 -100.000000
vn 100.000000 0.000000 -0.000000
vn 100.000000 0.000000 -0.000000
vn 100.000000 0.000000 -0.000000
vn 100.000000 0.000000 -0.000000
vn -0.000000 -0.000000 100.000000
vn -0.000000 -0.000000 100.000000
vn -0.000000 -0.000000 100.000000
vn -0.000000 -0.000000 100.000000
vn 0.000000 -100.000000 -0.000000
vn 0.000000 -100.000000 -0.000000
vn 0.000000 -100.000000 -0.000000
vn 0.000000 -100.000000 -0.000000
vn 0.000000 -100.000000 -0.000000
vn 0.000000 -100.000000 -0.000000
vn 0.000000 -100.000000 -0.000000
vn 0.000000 -100.000000 -0.000000
vn 0.000000 -100.000000 -0.000000
vn 0.000000 -100.000000 -0.000000
vn 0.000000 -100.000000 -0.000000
vn 0.000000 -100.000000 -0.000000
vn -99.999982 -0.000000 0.059376
vn -90.104470 -0.000000 -43.372623
vn -99.999982 -0.000000 0.059376
vn -90.104470 -0.000000 -43.372623
vn -62.344571 -0.000000 -78.186664
vn -62.344571 -0.000000 -78.186664
vn -22.246877 -0.000000 -97.493982
vn -22.246877 -0.000000 -97.493982
vn 22.246877 0.000000 -97.493982
vn 22.246877 0.000000 -97.493982
vn 62.344571 0.000000 -78.186664
vn 62.344571 0.000000 -78.186664
vn 90.104470 0.000000 -43.372623
vn 90.104470 0.000000 -43.372623
vn 99.999982 0.000000 0.059376
vn 99.999982 0.000000 0.059376
vn 0.000000 0.000000 -100.000000
vn 0.000000 0.000000 -100.000000
vn 0.000000 0.000000 -100.000000
vn 0.000000 0.000000 -100.000000
vn 0.000000 0.000000 -100.000000
vn 0.000000 0.000000 -100.000000
vn 0.000000 0.000000 -100.000000
vn 0.000000 0.000000 -100.000000
vn -0.000000 100.000000 0.000000
vn -0.000000 100.000000 0.000000
vn -0.000000 100.000000 0.000000
vn -0.000000 100.000000 0.000000
vn -0.000000 100.000000 0.000000
vn -0.000000 100.000000 0.000000
vn -0.000000 100.000000 0.000000
vn -0.000000 100.000000 0.000000
vn -0.000000 100.000000 0.000000
vn -0.000000 100.000000 0.000000
vn -0.000000 100.000000 0.000000
vn -0.000000 100.000000 0.000000
vn -99.999982 -0.000000 -0.059376
vn -90.104470 -0.000000 43.372623
vn -99.999982 -0.000000 -0.059376
vn -90.104470 -0.000000 43.372623
vn -62.344571 -0.000000 78.186664
vn -62.344571 -0.000000 78.186664
vn -22.246877 -0.000000 97.493982
vn -22.246877 -0.000000 97.493982
vn 22.246877 0.000000 97.493982
vn 22.246877 0.000000 97.493982
vn 62.344571 0.000000 78.186664
vn 62.344571 0.000000 78.186664
vn 90.104470 0.000000 43.372623
vn 90.104470 0.000000 43.372623
vn 99.999982 0.000000 -0.059376
vn 99.999982 0.000000 -0.059376
vn -0.000000 -0.000000 100.000000
vn -0.000000 -0.000000 100.000000
vn -0.000000 -0.000000 100.000000
vn -0.000000 -0.000000 100.000000
vn -0.000000 -0.000000 100.000000
vn -0.000000 -0.000000 100.000000
vn -0.000000 -0.000000 100.000000
vn -0.000000 -0.000000 100.000000
vn -0.000000 100.000000 0.000000
vn -0.000000 100.000000 0.000000
vn -0.000000 100.000000 0.000000
vn -0.000000 100.000000 0.000000
vn -0.000000 100.000000 0.000000
vn -0.000000 100.000000 0.000000
vn -0.000000 100.000000 0.000000
vn -0.000000 100.000000 0.000000
vn -0.000000 100.000000 0.000000
vn -0.000000 100.000000 0.000000
vn -0.000000 100.000000 0.000000
vn -0.000000 100.000000 0.000000
vn -0.000000 100.000000 0.000000
vn -0.000000 100.000000 0.000000
vn -0.000000 100.000000 0.000000
vn -0.000000 100.000000 0.000000
vn 0.000000 -100.000000 -0.000000
vn 0.000000 -100.000000 -0.000000
vn 0.000000 -100.000000 -0.000000
vn 0.000000 -100.000000 -0.000000
vn 0.000000 -100.000000 -0.000000
vn 0.000000 -100.000000 -0.000000
vn 0.000000 -100.000000 -0.000000
vn 0.000000 -100.000000 -0.000000
vn 0.000000 -100.000000 -0.000000
vn 0.000000 -100.000000 -0.000000
vn 0.000000 -100.000000 -0.000000
vn 0.000000 -100.000000 -0.000000
vn 0.000000 -100.000000 -0.000000
vn 0.000000 -100.000000 -0.000000
vn 0.000000 -100.000000 -0.000000
vn 0.000000 -100.000000 -0.000000
usemtl Opaque(230,230,230)
f 1/1/1 2/2/2 4/3/3
f 4/3/3 2/2/2 3/4/4
f 5/5/5 6/6/6 8/7/7
f 8/7/7 6/6/6 7/8/8
f 7/9/9 9/10/10 8/11/11
f 8/11/11 9/10/10 10/12/12
f 11/13/13 12/14/14 4/15/15
f 4/15/15 12/14/14 1/16/16
f 13/17/17 21/18/18 5/19/19
f 5/19/19 21/18/18 22/20/20
f 5/19/19 22/20/20 23/21/21
f 14/22/22 19/23/23 13/17/17
f 13/17/17 19/23/23 20/24/24
f 13/17/17 20/24/24 21/18/18
f 19/23/23 14/22/22 18/25/25
f 18/25/25 14/22/22 15/26/26
f 18/25/25 15/26/26 17/27/27
f 17/27/27 15/26/26 16/28/28
f 23/29/29 22/30/30 24/31/31
f 24/31/31 22/30/30 31/32/32
f 31/32/32 22/30/30 21/33/33
f 31/32/32 21/33/33 30/34/34
f 30/34/34 21/33/33 20/35/35
f 30/34/34 20/35/35 29/36/36
f 29/36/36 20/35/35 19/37/37
f 29/36/36 19/37/37 28/38/38
f 28/38/38 19/37/37 18/39/39
f 28/38/38 18/39/39 27/40/40
f 27/40/40 18/39/39 17/41/41
f 27/40/40 17/41/41 26/42/42
f 26/42/42 17/41/41 16/43/43
f 26/42/42 16/43/43 25/44/44
f 3/45/45 2/46/46 15/47/47
f 15/47/47 2/46/46 32/48/48
f 16/49/49 15/50/47 25/51/50
f 25/51/50 15/50/47 32/52/48
f 5/53/5 23/54/51 6/55/6
f 6/55/6 23/54/51 24/56/52
f 25/57/53 32/58/54 26/59/55
f 26/59/55 32/58/54 33/60/56
f 26/59/55 33/60/56 27/61/57
f 27/61/57 33/60/56 28/62/58
f 28/62/58 33/60/56 34/63/59
f 28/62/58 34/63/59 29/64/60
f 29/64/60 34/63/59 30/65/61
f 30/65/61 34/63/59 31/66/62
f 31/66/62 34/63/59 6/67/63
f 31/66/62 6/67/63 24/68/64
f 35/69/65 36/70/66 50/71/67
f 50/71/67 36/70/66 49/72/68
f 49/72/68 36/70/66 37/73/69
f 49/72/68 37/73/69 48/74/70
f 48/74/70 37/73/69 38/75/71
f 48/74/70 38/75/71 47/76/72
f 47/76/72 38/75/71 39/77/73
f 47/76/72 39/77/73 46/78/74
f 46/78/74 39/77/73 40/79/75
f 46/78/74 40/79/75 45/80/76
f 45/80/76 40/79/75 41/81/77
f 45/80/76 41/81/77 44/82/78
f 44/82/78 41/81/77 42/83/79
f 44/82/78 42/83/79 43/84/80
f 43/85/81 42/86/82 11/87/13
f 11/87/13 42/86/82 12/88/14
f 51/89/83 52/90/84 50/91/85
f 50/91/85 52/90/84 35/92/86
f 10/93/87 9/94/88 51/95/83
f 51/95/83 9/94/88 52/96/84
f 12/97/89 53/98/90 1/99/91
f 1/99/91 53/98/90 2/100/92
f 2/100/92 53/98/90 33/101/56
f 2/100/92 33/101/56 32/102/54
f 53/98/90 54/103/93 33/101/56
f 33/101/56 54/103/93 34/104/59
f 34/104/59 54/103/93 7/105/94
f 34/104/59 7/105/94 6/106/63
f 52/107/95 9/108/96 54/103/93
f 54/103/93 9/108/96 7/105/94
f 42/109/97 41/110/98 12/111/89
f 12/111/89 41/110/98 53/112/90
f 53/112/90 41/110/98 40/113/99
f 53/112/90 40/113/99 39/114/100
f 53/112/90 39/114/100 54/115/93
f 54/115/93 39/114/100 38/116/101
f 54/115/93 38/116/101 37/117/102
f 37/117/102 36/118/103 54/115/93
f 54/115/93 36/118/103 52/119/95
f 52/119/95 36/118/103 35/120/104
f 51/121/105 55/122/106 10/123/107
f 10/123/107 55/122/106 8/124/108
f 8/124/108 55/122/106 13/125/17
f 8/124/108 13/125/17 5/126/19
f 55/122/106 56/127/109 13/125/17
f 13/125/17 56/127/109 14/128/22
f 14/128/22 56/127/109 3/129/110
f 14/128/22 3/129/110 15/130/26
f 11/131/111 4/132/112 56/127/109
f 56/127/109 4/132/112 3/129/110
f 50/133/113 49/134/114 51/135/105
f 51/135/105 49/134/114 48/136/115
f 51/135/105 48/136/115 55/137/106
f 55/137/106 48/136/115 47/138/116
f 55/137/106 47/138/116 46/139/117
f 55/137/106 46/139/117 56/140/109
f 56/140/109 46/139/117 45/141/118
f 56/140/109 45/141/118 11/142/111
f 11/142/111 45/141/118 44/143/119
f 11/142/111 44/143/119 43/144/120
# 56 vertices
# 144 texture params
# 120 normals
# 108 facets

# 1 groups
