# WaveFront *.obj file (generated by Autodesk ATF)

mtllib hambot_Pillars & Battery v1_4646 BNO055 Stemma v1_1_BNO055_1_Body31.mtl

g Body31

v -0.007778 0.067250 0.023108
v -0.007832 0.067250 0.023094
v -0.007871 0.067250 0.023054
v -0.007885 0.067250 0.023001
v -0.007871 0.067250 0.022947
v -0.007832 0.067250 0.022908
v -0.007778 0.067250 0.022893
v -0.007725 0.067250 0.022908
v -0.007685 0.067250 0.022947
v -0.007671 0.067250 0.023001
v -0.007685 0.067250 0.023054
v -0.007725 0.067250 0.023094
v -0.007778 0.067248 0.023108
v -0.007725 0.067248 0.023094
v -0.007685 0.067248 0.023054
v -0.007671 0.067248 0.023001
v -0.007685 0.067248 0.022947
v -0.007725 0.067248 0.022908
v -0.007778 0.067248 0.022893
v -0.007832 0.067248 0.022908
v -0.007871 0.067248 0.022947
v -0.007885 0.067248 0.023001
v -0.007871 0.067248 0.023054
v -0.007832 0.067248 0.023094
vt -0.000000 -0.028061 0.000000
vt -0.000200 -0.033673 0.000000
vt -0.000000 -0.033673 0.000000
vt -0.000000 0.033673 0.000000
vt -0.000200 0.033673 0.000000
vt -0.000200 0.028061 0.000000
vt -0.000000 0.028061 0.000000
vt -0.000200 0.022449 0.000000
vt -0.000000 0.022449 0.000000
vt -0.000200 0.016837 0.000000
vt -0.000000 0.016837 0.000000
vt -0.000200 0.011224 0.000000
vt -0.000000 0.011224 0.000000
vt -0.000200 0.005612 0.000000
vt 0.000000 0.005612 0.000000
vt -0.000200 0.000000 0.000000
vt -0.000000 0.000000 0.000000
vt -0.000200 -0.005612 0.000000
vt -0.000000 -0.005612 0.000000
vt -0.000200 -0.011224 0.000000
vt -0.000000 -0.011224 0.000000
vt -0.000200 -0.016837 0.000000
vt -0.000000 -0.016837 0.000000
vt -0.000200 -0.022449 0.000000
vt -0.000000 -0.022449 0.000000
vt -0.000200 -0.028061 0.000000
vt 0.009282 0.005359 0.000000
vt -0.009282 0.005359 0.000000
vt 0.010718 0.000000 0.000000
vt -0.010718 0.000000 0.000000
vt 0.009282 -0.005359 0.000000
vt -0.009282 -0.005359 0.000000
vt 0.005359 -0.009282 0.000000
vt -0.005359 -0.009282 0.000000
vt 0.000000 -0.010718 0.000000
vt -0.005359 0.009282 0.000000
vt 0.005359 0.009282 0.000000
vt 0.000000 0.010718 0.000000
vt -0.009282 -0.005359 0.000000
vt 0.009282 -0.005359 0.000000
vt -0.010718 0.000000 0.000000
vt 0.010718 0.000000 0.000000
vt -0.009282 0.005359 0.000000
vt 0.009282 0.005359 0.000000
vt -0.005359 0.009282 0.000000
vt 0.005359 0.009282 0.000000
vt -0.000000 0.010718 0.000000
vt 0.005359 -0.009282 0.000000
vt -0.005359 -0.009282 0.000000
vt -0.000000 -0.010718 0.000000
vn -50.000000 -0.000000 86.602540
vn -0.000000 -0.000000 100.000000
vn -0.000000 -0.000000 100.000000
vn 50.000000 0.000000 86.602540
vn 50.000000 0.000000 86.602540
vn 86.602540 0.000000 50.000000
vn 86.602540 0.000000 50.000000
vn 100.000000 0.000000 -0.000000
vn 100.000000 0.000000 -0.000000
vn 86.602540 0.000000 -50.000000
vn 86.602540 0.000000 -50.000000
vn 50.000000 0.000000 -86.602540
vn 50.000000 0.000000 -86.602540
vn 0.000000 0.000000 -100.000000
vn 0.000000 0.000000 -100.000000
vn -50.000000 -0.000000 -86.602540
vn -50.000000 -0.000000 -86.602540
vn -86.602540 -0.000000 -50.000000
vn -86.602540 -0.000000 -50.000000
vn -100.000000 -0.000000 -0.000000
vn -100.000000 -0.000000 -0.000000
vn -86.602540 -0.000000 50.000000
vn -86.602540 -0.000000 50.000000
vn -50.000000 -0.000000 86.602540
vn -0.000000 100.000000 0.000000
vn -0.000000 100.000000 0.000000
vn -0.000000 100.000000 0.000000
vn -0.000000 100.000000 0.000000
vn -0.000000 100.000000 0.000000
vn -0.000000 100.000000 0.000000
vn -0.000000 100.000000 0.000000
vn -0.000000 100.000000 0.000000
vn -0.000000 100.000000 0.000000
vn -0.000000 100.000000 0.000000
vn -0.000000 100.000000 0.000000
vn -0.000000 100.000000 0.000000
vn 0.000000 -100.000000 -0.000000
vn 0.000000 -100.000000 -0.000000
vn 0.000000 -100.000000 -0.000000
vn 0.000000 -100.000000 -0.000000
vn 0.000000 -100.000000 -0.000000
vn 0.000000 -100.000000 -0.000000
vn 0.000000 -100.000000 -0.000000
vn 0.000000 -100.000000 -0.000000
vn 0.000000 -100.000000 -0.000000
vn 0.000000 -100.000000 -0.000000
vn 0.000000 -100.000000 -0.000000
vn 0.000000 -100.000000 -0.000000
usemtl Opaque(255,255,255)
f 2/1/1 13/2/2 1/3/3
f 1/4/3 13/5/2 14/6/4
f 1/4/3 14/6/4 12/7/5
f 12/7/5 14/6/4 15/8/6
f 12/7/5 15/8/6 11/9/7
f 11/9/7 15/8/6 16/10/8
f 11/9/7 16/10/8 10/11/9
f 10/11/9 16/10/8 17/12/10
f 10/11/9 17/12/10 9/13/11
f 9/13/11 17/12/10 18/14/12
f 9/13/11 18/14/12 8/15/13
f 8/15/13 18/14/12 19/16/14
f 8/15/13 19/16/14 7/17/15
f 7/17/15 19/16/14 20/18/16
f 7/17/15 20/18/16 6/19/17
f 6/19/17 20/18/16 21/20/18
f 6/19/17 21/20/18 5/21/19
f 5/21/19 21/20/18 22/22/20
f 5/21/19 22/22/20 4/23/21
f 4/23/21 22/22/20 23/24/22
f 4/23/21 23/24/22 3/25/23
f 3/25/23 23/24/22 24/26/24
f 3/25/23 24/26/24 2/1/1
f 2/1/1 24/26/24 13/2/2
f 12/27/25 8/28/26 1/29/27
f 1/29/27 8/28/26 7/30/28
f 1/29/27 7/30/28 2/31/29
f 2/31/29 7/30/28 6/32/30
f 2/31/29 6/32/30 3/33/31
f 3/33/31 6/32/30 5/34/32
f 3/33/31 5/34/32 4/35/33
f 8/28/26 12/27/25 9/36/34
f 9/36/34 12/27/25 11/37/35
f 9/36/34 11/37/35 10/38/36
f 24/39/37 20/40/38 13/41/39
f 13/41/39 20/40/38 19/42/40
f 13/41/39 19/42/40 14/43/41
f 14/43/41 19/42/40 18/44/42
f 14/43/41 18/44/42 15/45/43
f 15/45/43 18/44/42 17/46/44
f 15/45/43 17/46/44 16/47/45
f 20/40/38 24/39/37 21/48/46
f 21/48/46 24/39/37 23/49/47
f 21/48/46 23/49/47 22/50/48
# 24 vertices
# 50 texture params
# 48 normals
# 44 facets

# 1 groups
