# WaveFront *.obj file (generated by Autodesk ATF)

mtllib hambot_Pillars & Battery v1_4646 BNO055 Stemma v1_1_CHIPLED_0603_NOOUTLINE_1_Body3.mtl

g Body3

v -0.004716 0.066370 0.011842
v -0.004716 0.066078 0.011842
v -0.004913 0.066078 0.011842
v -0.004913 0.066370 0.011842
v -0.004151 0.066376 0.011848
v -0.004354 0.066376 0.011848
v -0.004354 0.066071 0.011848
v -0.004151 0.066071 0.011848
v -0.004709 0.066376 0.011848
v -0.004913 0.066376 0.011848
v -0.004913 0.066071 0.011848
v -0.004709 0.066071 0.011848
v -0.004354 0.066376 0.011842
v -0.004354 0.066071 0.011842
v -0.004709 0.066376 0.011842
v -0.004709 0.066071 0.011842
v -0.004685 0.066071 0.011753
v -0.004620 0.066071 0.011688
v -0.004532 0.066071 0.011664
v -0.004443 0.066071 0.011688
v -0.004378 0.066071 0.011753
v -0.004378 0.066376 0.011753
v -0.004443 0.066376 0.011688
v -0.004532 0.066376 0.011664
v -0.004620 0.066376 0.011688
v -0.004685 0.066376 0.011753
v -0.004913 0.066071 0.011404
v -0.004151 0.066071 0.011404
v -0.004151 0.066376 0.011594
v -0.004913 0.066376 0.011594
v -0.004347 0.066078 0.011842
v -0.004347 0.066370 0.011842
v -0.004151 0.066370 0.011842
v -0.004151 0.066078 0.011842
v -0.004151 0.066078 0.011404
v -0.004913 0.066078 0.011404
v -0.004697 0.066078 0.011762
v -0.004646 0.066078 0.011698
v -0.004572 0.066078 0.011662
v -0.004491 0.066078 0.011662
v -0.004417 0.066078 0.011698
v -0.004366 0.066078 0.011762
v -0.004697 0.066370 0.011762
v -0.004646 0.066370 0.011698
v -0.004572 0.066370 0.011662
v -0.004491 0.066370 0.011662
v -0.004417 0.066370 0.011698
v -0.004366 0.066370 0.011762
v -0.004913 0.066370 0.011594
v -0.004151 0.066370 0.011594
vt 0.030455 -0.021209 0.000000
vt 0.030455 -0.001524 0.000000
vt 0.001245 -0.021209 0.000000
vt 0.001245 -0.001524 0.000000
vt -0.000610 -0.057404 0.000000
vt -0.031090 -0.057404 0.000000
vt -0.000610 -0.077724 0.000000
vt -0.031090 -0.077724 0.000000
vt -0.000610 -0.001524 0.000000
vt -0.031090 -0.001524 0.000000
vt -0.000610 -0.021844 0.000000
vt -0.031090 -0.021844 0.000000
vt -0.000928 -0.031090 0.000000
vt -0.000293 -0.031090 0.000000
vt -0.000928 -0.000610 0.000000
vt -0.000293 -0.000610 0.000000
vt 0.031090 0.027929 0.000000
vt 0.000610 0.027929 0.000000
vt 0.031090 0.018619 0.000000
vt 0.000610 0.018619 0.000000
vt 0.031090 0.009310 0.000000
vt 0.000610 0.009310 0.000000
vt 0.031090 -0.000000 0.000000
vt 0.000610 -0.000000 0.000000
vt 0.031090 -0.009310 0.000000
vt 0.000610 -0.009310 0.000000
vt 0.031090 -0.018619 0.000000
vt 0.000610 -0.018619 0.000000
vt 0.031090 -0.027929 0.000000
vt 0.000610 -0.027929 0.000000
vt -0.000928 -0.031090 0.000000
vt -0.000293 -0.031090 0.000000
vt -0.000928 -0.000610 0.000000
vt -0.000293 -0.000610 0.000000
vt 0.021844 -0.000889 0.000000
vt 0.001524 -0.000889 0.000000
vt 0.021844 -0.001524 0.000000
vt 0.024226 -0.010414 0.000000
vt 0.001524 -0.045339 0.000000
vt 0.030734 -0.016922 0.000000
vt 0.039624 -0.019304 0.000000
vt 0.077724 -0.045339 0.000000
vt 0.048514 -0.016922 0.000000
vt 0.055022 -0.010414 0.000000
vt 0.077724 -0.000889 0.000000
vt 0.057404 -0.001524 0.000000
vt 0.057404 -0.000889 0.000000
vt -0.021844 0.025908 0.000000
vt -0.021844 0.025273 0.000000
vt -0.001524 0.025908 0.000000
vt -0.024226 0.016383 0.000000
vt -0.001524 0.000508 0.000000
vt -0.030734 0.009875 0.000000
vt -0.039624 0.007493 0.000000
vt -0.077724 0.000508 0.000000
vt -0.048514 0.009875 0.000000
vt -0.055022 0.016383 0.000000
vt -0.077724 0.025908 0.000000
vt -0.057404 0.025273 0.000000
vt -0.057404 0.025908 0.000000
vt 0.001245 -0.058039 0.000000
vt 0.001245 -0.077724 0.000000
vt 0.030455 -0.058039 0.000000
vt 0.030455 -0.077724 0.000000
vt -0.058039 -0.001524 0.000000
vt -0.077724 -0.001524 0.000000
vt -0.056219 -0.009513 0.000000
vt -0.051109 -0.015920 0.000000
vt -0.077724 -0.045339 0.000000
vt -0.043723 -0.019476 0.000000
vt -0.035525 -0.019476 0.000000
vt -0.001524 -0.045339 0.000000
vt -0.028139 -0.015920 0.000000
vt -0.001524 -0.001524 0.000000
vt -0.023029 -0.009513 0.000000
vt -0.021209 -0.001524 0.000000
vt 0.052082 0.000000 0.000000
vt 0.059770 0.000000 0.000000
vt 0.052082 0.029210 0.000000
vt 0.059770 0.029210 0.000000
vt 0.066883 0.000000 0.000000
vt 0.066883 0.029210 0.000000
vt 0.074179 0.000000 0.000000
vt 0.074179 0.029210 0.000000
vt 0.082114 0.000000 0.000000
vt 0.082114 0.029210 0.000000
vt 0.089411 0.000000 0.000000
vt 0.089411 0.029210 0.000000
vt 0.096523 0.000000 0.000000
vt 0.096523 0.029210 0.000000
vt 0.104209 0.000000 0.000000
vt 0.104209 0.029210 0.000000
vt 0.058039 0.025273 0.000000
vt 0.056219 0.017284 0.000000
vt 0.077724 0.025273 0.000000
vt 0.077724 0.000508 0.000000
vt 0.051109 0.010877 0.000000
vt 0.043723 0.007321 0.000000
vt 0.035525 0.007321 0.000000
vt 0.001524 0.000508 0.000000
vt 0.028139 0.010877 0.000000
vt 0.023029 0.017284 0.000000
vt 0.021209 0.025273 0.000000
vt 0.001524 0.025273 0.000000
vt 0.045339 -0.001245 0.000000
vt 0.045339 -0.000610 0.000000
vt 0.001524 -0.001245 0.000000
vt 0.000889 -0.000610 0.000000
vt 0.000889 -0.031090 0.000000
vt 0.001524 -0.030455 0.000000
vt 0.026289 -0.031090 0.000000
vt 0.026289 -0.030455 0.000000
vt -0.045339 -0.001245 0.000000
vt -0.001524 -0.001245 0.000000
vt -0.045339 -0.000610 0.000000
vt -0.000889 -0.000610 0.000000
vt -0.000889 -0.031090 0.000000
vt -0.001524 -0.030455 0.000000
vt -0.026289 -0.031090 0.000000
vt -0.026289 -0.030455 0.000000
vt -0.000293 -0.001524 0.000000
vt -0.000928 -0.001524 0.000000
vt -0.000293 -0.077724 0.000000
vt -0.000928 -0.077724 0.000000
vt -0.000928 -0.077724 0.000000
vt -0.000293 -0.077724 0.000000
vt -0.000928 -0.001524 0.000000
vt -0.000293 -0.001524 0.000000
vn 0.000000 0.000000 -100.000000
vn 0.000000 0.000000 -100.000000
vn 0.000000 0.000000 -100.000000
vn 0.000000 0.000000 -100.000000
vn -0.000000 -0.000000 100.000000
vn -0.000000 -0.000000 100.000000
vn -0.000000 -0.000000 100.000000
vn -0.000000 -0.000000 100.000000
vn -0.000000 -0.000000 100.000000
vn -0.000000 -0.000000 100.000000
vn -0.000000 -0.000000 100.000000
vn -0.000000 -0.000000 100.000000
vn -100.000000 -0.000000 0.000000
vn -100.000000 -0.000000 0.000000
vn -100.000000 -0.000000 0.000000
vn -100.000000 -0.000000 0.000000
vn 100.000000 0.000000 0.000000
vn 100.000000 0.000000 0.000000
vn 86.602540 0.000000 50.000000
vn 86.602540 0.000000 50.000000
vn 50.000000 0.000000 86.602540
vn 50.000000 0.000000 86.602540
vn 0.000000 0.000000 100.000000
vn 0.000000 0.000000 100.000000
vn -50.000000 -0.000000 86.602540
vn -50.000000 -0.000000 86.602540
vn -86.602540 -0.000000 50.000000
vn -86.602540 -0.000000 50.000000
vn 100.000000 0.000000 -0.000000
vn 100.000000 0.000000 -0.000000
vn 0.000000 -100.000000 -0.000000
vn 0.000000 -100.000000 -0.000000
vn 0.000000 -100.000000 -0.000000
vn 0.000000 -100.000000 -0.000000
vn 0.000000 -100.000000 -0.000000
vn 0.000000 -100.000000 -0.000000
vn 0.000000 -100.000000 -0.000000
vn 0.000000 -100.000000 -0.000000
vn 0.000000 -100.000000 -0.000000
vn 0.000000 -100.000000 -0.000000
vn 0.000000 -100.000000 -0.000000
vn 0.000000 -100.000000 -0.000000
vn 0.000000 -100.000000 -0.000000
vn -0.000000 100.000000 0.000000
vn -0.000000 100.000000 0.000000
vn -0.000000 100.000000 0.000000
vn -0.000000 100.000000 0.000000
vn -0.000000 100.000000 0.000000
vn -0.000000 100.000000 0.000000
vn -0.000000 100.000000 0.000000
vn -0.000000 100.000000 0.000000
vn -0.000000 100.000000 0.000000
vn -0.000000 100.000000 0.000000
vn -0.000000 100.000000 0.000000
vn -0.000000 100.000000 0.000000
vn -0.000000 100.000000 0.000000
vn 0.000000 0.000000 -100.000000
vn 0.000000 0.000000 -100.000000
vn 0.000000 0.000000 -100.000000
vn 0.000000 0.000000 -100.000000
vn -0.000000 100.000000 0.000000
vn -0.000000 100.000000 0.000000
vn -0.000000 100.000000 0.000000
vn -0.000000 100.000000 0.000000
vn -0.000000 100.000000 0.000000
vn -0.000000 100.000000 0.000000
vn -0.000000 100.000000 0.000000
vn -0.000000 100.000000 0.000000
vn -0.000000 100.000000 0.000000
vn -0.000000 100.000000 0.000000
vn -0.000000 100.000000 0.000000
vn -0.000000 100.000000 0.000000
vn 99.999982 0.000000 0.059376
vn 90.104470 0.000000 -43.372623
vn 99.999982 0.000000 0.059376
vn 90.104470 0.000000 -43.372623
vn 62.344571 0.000000 -78.186664
vn 62.344571 0.000000 -78.186664
vn 22.246877 0.000000 -97.493982
vn 22.246877 0.000000 -97.493982
vn -22.246877 -0.000000 -97.493982
vn -22.246877 -0.000000 -97.493982
vn -62.344571 -0.000000 -78.186664
vn -62.344571 -0.000000 -78.186664
vn -90.104470 -0.000000 -43.372623
vn -90.104470 -0.000000 -43.372623
vn -99.999982 -0.000000 0.059376
vn -99.999982 -0.000000 0.059376
vn 0.000000 -100.000000 -0.000000
vn 0.000000 -100.000000 -0.000000
vn 0.000000 -100.000000 -0.000000
vn 0.000000 -100.000000 -0.000000
vn 0.000000 -100.000000 -0.000000
vn 0.000000 -100.000000 -0.000000
vn 0.000000 -100.000000 -0.000000
vn 0.000000 -100.000000 -0.000000
vn 0.000000 -100.000000 -0.000000
vn 0.000000 -100.000000 -0.000000
vn 0.000000 -100.000000 -0.000000
vn 0.000000 -100.000000 -0.000000
vn -100.000000 -0.000000 0.000000
vn -100.000000 -0.000000 0.000000
vn -100.000000 -0.000000 0.000000
vn -100.000000 -0.000000 0.000000
vn -100.000000 -0.000000 0.000000
vn -100.000000 -0.000000 0.000000
vn -100.000000 -0.000000 0.000000
vn -100.000000 -0.000000 0.000000
vn 100.000000 0.000000 -0.000000
vn 100.000000 0.000000 -0.000000
vn 100.000000 0.000000 -0.000000
vn 100.000000 0.000000 -0.000000
vn 100.000000 0.000000 -0.000000
vn 100.000000 0.000000 -0.000000
vn 100.000000 0.000000 -0.000000
vn 100.000000 0.000000 -0.000000
vn 0.000000 0.000000 -100.000000
vn 0.000000 0.000000 -100.000000
vn 0.000000 0.000000 -100.000000
vn 0.000000 0.000000 -100.000000
vn 0.000000 0.000000 -100.000000
vn 0.000000 0.000000 -100.000000
vn 0.000000 0.000000 -100.000000
vn 0.000000 0.000000 -100.000000
usemtl Opaque(209,204,192)
f 2/1/1 3/2/2 1/3/3
f 1/3/3 3/2/2 4/4/4
f 6/5/5 7/6/6 5/7/7
f 5/7/7 7/6/6 8/8/8
f 10/9/9 11/10/10 9/11/11
f 9/11/11 11/10/10 12/12/12
f 6/13/13 13/14/14 7/15/15
f 7/15/15 13/14/14 14/16/16
f 15/17/17 16/18/18 26/19/19
f 26/19/19 16/18/18 17/20/20
f 26/19/19 17/20/20 25/21/21
f 25/21/21 17/20/20 18/22/22
f 25/21/21 18/22/22 24/23/23
f 24/23/23 18/22/22 19/24/24
f 24/23/23 19/24/24 23/25/25
f 23/25/25 19/24/24 20/26/26
f 23/25/25 20/26/26 22/27/27
f 22/27/27 20/26/26 21/28/28
f 22/27/27 21/28/28 13/29/14
f 13/29/14 21/28/28 14/30/16
f 15/31/17 9/32/29 16/33/18
f 16/33/18 9/32/29 12/34/30
f 12/35/31 11/36/32 16/37/33
f 16/37/33 11/36/32 17/38/34
f 17/38/34 11/36/32 27/39/35
f 17/38/34 27/39/35 18/40/36
f 18/40/36 27/39/35 19/41/37
f 19/41/37 27/39/35 28/42/38
f 19/41/37 28/42/38 20/43/39
f 20/43/39 28/42/38 21/44/40
f 21/44/40 28/42/38 8/45/41
f 21/44/40 8/45/41 14/46/42
f 14/46/42 8/45/41 7/47/43
f 9/48/44 15/49/45 10/50/46
f 10/50/46 15/49/45 26/51/47
f 10/50/46 26/51/47 30/52/48
f 30/52/48 26/51/47 25/53/49
f 30/52/48 25/53/49 24/54/50
f 30/52/48 24/54/50 29/55/51
f 29/55/51 24/54/50 23/56/52
f 29/55/51 23/56/52 22/57/53
f 29/55/51 22/57/53 5/58/54
f 5/58/54 22/57/53 13/59/55
f 5/58/54 13/59/55 6/60/56
f 32/61/57 33/62/58 31/63/59
f 31/63/59 33/62/58 34/64/60
f 31/65/61 34/66/62 42/67/63
f 42/67/63 34/66/62 41/68/64
f 41/68/64 34/66/62 35/69/65
f 41/68/64 35/69/65 40/70/66
f 40/70/66 35/69/65 39/71/67
f 39/71/67 35/69/65 36/72/68
f 39/71/67 36/72/68 38/73/69
f 38/73/69 36/72/68 3/74/70
f 38/73/69 3/74/70 37/75/71
f 37/75/71 3/74/70 2/76/72
f 31/77/73 42/78/74 32/79/75
f 32/79/75 42/78/74 48/80/76
f 48/80/76 42/78/74 41/81/77
f 48/80/76 41/81/77 47/82/78
f 47/82/78 41/81/77 40/83/79
f 47/82/78 40/83/79 46/84/80
f 46/84/80 40/83/79 39/85/81
f 46/84/80 39/85/81 45/86/82
f 45/86/82 39/85/81 38/87/83
f 45/86/82 38/87/83 44/88/84
f 44/88/84 38/87/83 37/89/85
f 44/88/84 37/89/85 43/90/86
f 43/90/86 37/89/85 2/91/87
f 43/90/86 2/91/87 1/92/88
f 32/93/89 48/94/90 33/95/91
f 33/95/91 48/94/90 50/96/92
f 50/96/92 48/94/90 47/97/93
f 50/96/92 47/97/93 46/98/94
f 46/98/94 45/99/95 50/96/92
f 50/96/92 45/99/95 49/100/96
f 49/100/96 45/99/95 44/101/97
f 49/100/96 44/101/97 43/102/98
f 1/103/99 4/104/100 43/102/98
f 43/102/98 4/104/100 49/100/96
f 36/105/101 27/106/102 3/107/103
f 3/107/103 27/106/102 11/108/104
f 3/107/103 11/108/104 10/109/105
f 3/107/103 10/109/105 4/110/106
f 4/110/106 10/109/105 30/111/107
f 4/110/106 30/111/107 49/112/108
f 35/113/109 34/114/110 28/115/111
f 28/115/111 34/114/110 8/116/112
f 8/116/112 34/114/110 5/117/113
f 5/117/113 34/114/110 33/118/114
f 5/117/113 33/118/114 29/119/115
f 29/119/115 33/118/114 50/120/116
f 49/121/117 30/122/118 50/123/119
f 50/123/119 30/122/118 29/124/120
f 35/125/121 28/126/122 36/127/123
f 36/127/123 28/126/122 27/128/124
# 50 vertices
# 128 texture params
# 124 normals
# 96 facets

# 1 groups
