# WaveFront *.obj file (generated by Autodesk ATF)

mtllib hambot_Pillars & Battery v1_Adafruit 0.91in 128x32 OLED STEMMA QT v1_1_RESC-0603 v1 (1)_1_Body3.mtl

g Body3

v -0.043846 -0.055566 0.077900
v -0.042746 -0.055566 0.077900
v -0.042496 -0.055566 0.077900
v -0.042486 -0.055566 0.077903
v -0.042478 -0.055566 0.077910
v -0.042476 -0.055566 0.077920
v -0.042476 -0.055566 0.078350
v -0.042478 -0.055566 0.078360
v -0.042486 -0.055566 0.078367
v -0.042496 -0.055566 0.078370
v -0.044096 -0.055566 0.078370
v -0.044106 -0.055566 0.078367
v -0.044113 -0.055566 0.078360
v -0.044116 -0.055566 0.078350
v -0.044116 -0.055566 0.077920
v -0.044113 -0.055566 0.077910
v -0.044106 -0.055566 0.077903
v -0.044096 -0.055566 0.077900
v -0.042746 -0.054666 0.077900
v -0.043846 -0.054666 0.077900
v -0.044096 -0.054666 0.077900
v -0.044106 -0.054666 0.077903
v -0.044113 -0.054666 0.077910
v -0.044116 -0.054666 0.077920
v -0.044116 -0.054666 0.078350
v -0.044113 -0.054666 0.078360
v -0.044106 -0.054666 0.078367
v -0.044096 -0.054666 0.078370
v -0.042496 -0.054666 0.078370
v -0.042486 -0.054666 0.078367
v -0.042478 -0.054666 0.078360
v -0.042476 -0.054666 0.078350
v -0.042476 -0.054666 0.077920
v -0.042478 -0.054666 0.077910
v -0.042486 -0.054666 0.077903
v -0.042496 -0.054666 0.077900
v -0.043796 -0.054716 0.077850
v -0.043796 -0.055516 0.077850
v -0.042796 -0.055516 0.077850
v -0.042796 -0.054716 0.077850
v -0.042478 -0.055341 0.077910
v -0.042478 -0.055116 0.077910
v -0.042478 -0.054891 0.077910
v -0.042486 -0.055341 0.077903
v -0.042486 -0.055116 0.077903
v -0.042486 -0.054891 0.077903
v -0.042486 -0.055341 0.078367
v -0.042486 -0.055116 0.078367
v -0.042486 -0.054891 0.078367
v -0.042478 -0.055341 0.078360
v -0.042478 -0.055116 0.078360
v -0.042478 -0.054891 0.078360
v -0.044113 -0.055341 0.078360
v -0.044113 -0.055116 0.078360
v -0.044113 -0.054891 0.078360
v -0.044106 -0.055341 0.078367
v -0.044106 -0.055116 0.078367
v -0.044106 -0.054891 0.078367
v -0.044106 -0.055341 0.077903
v -0.044106 -0.055116 0.077903
v -0.044106 -0.054891 0.077903
v -0.044113 -0.055341 0.077910
v -0.044113 -0.055116 0.077910
v -0.044113 -0.054891 0.077910
vt 0.055000 -0.050000 0.000000
vt 0.082000 -0.005000 0.000000
vt -0.055000 -0.050000 0.000000
vt -0.082000 -0.005000 0.000000
vt -0.082000 -0.048000 0.000000
vt 0.082000 -0.048000 0.000000
vt 0.080000 -0.050000 0.000000
vt 0.081732 -0.049000 0.000000
vt 0.081000 -0.049732 0.000000
vt 0.081732 -0.004000 0.000000
vt 0.080000 -0.003000 0.000000
vt -0.080000 -0.003000 0.000000
vt -0.081732 -0.004000 0.000000
vt -0.081000 -0.003268 0.000000
vt 0.081000 -0.003268 0.000000
vt -0.080000 -0.050000 0.000000
vt -0.081732 -0.049000 0.000000
vt -0.081000 -0.049732 0.000000
vt 0.055000 -0.050000 0.000000
vt -0.082000 -0.005000 0.000000
vt -0.055000 -0.050000 0.000000
vt -0.082000 -0.048000 0.000000
vt -0.080000 -0.050000 0.000000
vt -0.081732 -0.049000 0.000000
vt -0.081000 -0.049732 0.000000
vt 0.080000 -0.050000 0.000000
vt 0.082000 -0.048000 0.000000
vt 0.082000 -0.005000 0.000000
vt -0.080000 -0.003000 0.000000
vt -0.081732 -0.004000 0.000000
vt -0.081000 -0.003268 0.000000
vt 0.081000 -0.049732 0.000000
vt 0.081732 -0.049000 0.000000
vt 0.080000 -0.003000 0.000000
vt 0.081732 -0.004000 0.000000
vt 0.081000 -0.003268 0.000000
vt 0.025000 0.090000 0.000000
vt 0.000000 0.090000 0.000000
vt 0.025000 0.000000 0.000000
vt 0.000000 0.000000 0.000000
vt 0.135000 0.000000 0.000000
vt 0.160000 0.000000 0.000000
vt 0.135000 0.090000 0.000000
vt 0.160000 0.090000 0.000000
vt 0.000000 0.000000 0.000000
vt 0.090000 0.000000 0.000000
vt 0.005000 0.007071 0.000000
vt 0.085000 0.007071 0.000000
vt 0.000000 0.000000 0.000000
vt 0.110000 0.000000 0.000000
vt 0.005000 0.007071 0.000000
vt 0.105000 0.007071 0.000000
vt 0.000000 0.000000 0.000000
vt 0.090000 0.000000 0.000000
vt 0.005000 0.007071 0.000000
vt 0.085000 0.007071 0.000000
vt 0.000000 0.000000 0.000000
vt 0.110000 -0.000000 0.000000
vt 0.005000 0.007071 0.000000
vt 0.105000 0.007071 0.000000
vt -0.000000 0.001047 0.000000
vt -0.022500 0.001047 0.000000
vt -0.000000 -0.000000 0.000000
vt -0.045000 0.001047 0.000000
vt -0.090000 -0.000000 0.000000
vt -0.067500 0.001047 0.000000
vt -0.090000 0.001047 0.000000
vt -0.090000 0.002094 0.000000
vt -0.067500 0.002094 0.000000
vt -0.090000 0.003142 0.000000
vt -0.045000 0.002094 0.000000
vt -0.000000 0.003142 0.000000
vt -0.022500 0.002094 0.000000
vt -0.000000 0.002094 0.000000
vt 0.000000 0.000000 0.000000
vt 0.043000 0.000000 0.000000
vt 0.000000 0.090000 0.000000
vt 0.043000 0.090000 0.000000
vt -0.000000 0.001047 0.000000
vt -0.022500 0.001047 0.000000
vt -0.000000 -0.000000 0.000000
vt -0.045000 0.001047 0.000000
vt -0.090000 -0.000000 0.000000
vt -0.067500 0.001047 0.000000
vt -0.090000 0.001047 0.000000
vt -0.090000 0.002094 0.000000
vt -0.067500 0.002094 0.000000
vt -0.090000 0.003142 0.000000
vt -0.045000 0.002094 0.000000
vt -0.000000 0.003142 0.000000
vt -0.022500 0.002094 0.000000
vt -0.000000 0.002094 0.000000
vt 0.000000 0.000000 0.000000
vt 0.160000 0.000000 0.000000
vt 0.000000 0.090000 0.000000
vt 0.160000 0.090000 0.000000
vt -0.000000 0.001047 0.000000
vt -0.022500 0.001047 0.000000
vt -0.000000 0.000000 0.000000
vt -0.045000 0.001047 0.000000
vt -0.090000 0.000000 0.000000
vt -0.067500 0.001047 0.000000
vt -0.090000 0.001047 0.000000
vt -0.090000 0.002094 0.000000
vt -0.067500 0.002094 0.000000
vt -0.090000 0.003142 0.000000
vt -0.045000 0.002094 0.000000
vt -0.000000 0.003142 0.000000
vt -0.022500 0.002094 0.000000
vt -0.000000 0.002094 0.000000
vt 0.000000 0.000000 0.000000
vt 0.043000 0.000000 0.000000
vt 0.000000 0.090000 0.000000
vt 0.043000 0.090000 0.000000
vt -0.000000 0.001047 0.000000
vt -0.022500 0.001047 0.000000
vt -0.000000 -0.000000 0.000000
vt -0.045000 0.001047 0.000000
vt -0.090000 -0.000000 0.000000
vt -0.067500 0.001047 0.000000
vt -0.090000 0.001047 0.000000
vt -0.090000 0.002094 0.000000
vt -0.067500 0.002094 0.000000
vt -0.090000 0.003142 0.000000
vt -0.045000 0.002094 0.000000
vt -0.000000 0.003142 0.000000
vt -0.022500 0.002094 0.000000
vt -0.000000 0.002094 0.000000
vt 0.050000 0.040000 0.000000
vt -0.050000 0.040000 0.000000
vt 0.050000 -0.040000 0.000000
vt -0.050000 -0.040000 0.000000
vn 0.000000 -100.000000 0.000000
vn 0.000000 -100.000000 0.000000
vn 0.000000 -100.000000 0.000000
vn 0.000000 -100.000000 0.000000
vn 0.000000 -100.000000 0.000000
vn 0.000000 -100.000000 0.000000
vn 0.000000 -100.000000 0.000000
vn 0.000000 -100.000000 0.000000
vn 0.000000 -100.000000 0.000000
vn 0.000000 -100.000000 0.000000
vn 0.000000 -100.000000 0.000000
vn 0.000000 -100.000000 0.000000
vn 0.000000 -100.000000 0.000000
vn 0.000000 -100.000000 0.000000
vn 0.000000 -100.000000 0.000000
vn 0.000000 -100.000000 0.000000
vn 0.000000 -100.000000 0.000000
vn 0.000000 -100.000000 0.000000
vn -0.000000 100.000000 -0.000000
vn -0.000000 100.000000 -0.000000
vn -0.000000 100.000000 -0.000000
vn -0.000000 100.000000 -0.000000
vn -0.000000 100.000000 -0.000000
vn -0.000000 100.000000 -0.000000
vn -0.000000 100.000000 -0.000000
vn -0.000000 100.000000 -0.000000
vn -0.000000 100.000000 -0.000000
vn -0.000000 100.000000 -0.000000
vn -0.000000 100.000000 -0.000000
vn -0.000000 100.000000 -0.000000
vn -0.000000 100.000000 -0.000000
vn -0.000000 100.000000 -0.000000
vn -0.000000 100.000000 -0.000000
vn -0.000000 100.000000 -0.000000
vn -0.000000 100.000000 -0.000000
vn -0.000000 100.000000 -0.000000
vn -0.000000 -0.000000 -100.000000
vn -0.000000 -0.000000 -100.000000
vn -0.000000 -0.000000 -100.000000
vn -0.000000 -0.000000 -100.000000
vn -0.000000 -0.000000 -100.000000
vn -0.000000 -0.000000 -100.000000
vn -0.000000 -0.000000 -100.000000
vn -0.000000 -0.000000 -100.000000
vn -70.710678 -0.000000 -70.710678
vn -70.710678 -0.000000 -70.710678
vn -70.710678 -0.000000 -70.710678
vn -70.710678 -0.000000 -70.710678
vn -0.000000 -70.710678 -70.710678
vn -0.000000 -70.710678 -70.710678
vn -0.000000 -70.710678 -70.710678
vn -0.000000 -70.710678 -70.710678
vn 70.710678 -0.000000 -70.710678
vn 70.710678 -0.000000 -70.710678
vn 70.710678 -0.000000 -70.710678
vn 70.710678 -0.000000 -70.710678
vn -0.000000 70.710678 -70.710678
vn -0.000000 70.710678 -70.710678
vn -0.000000 70.710678 -70.710678
vn -0.000000 70.710678 -70.710678
vn 86.602540 -0.000000 -50.000000
vn 86.602540 -0.000000 -50.000000
vn 100.000000 -0.000000 -0.000000
vn 86.602540 -0.000000 -50.000000
vn 100.000000 -0.000000 -0.000000
vn 86.602540 -0.000000 -50.000000
vn 86.602540 -0.000000 -50.000000
vn 50.000000 -0.000000 -86.602540
vn 50.000000 -0.000000 -86.602540
vn 50.000000 -0.000000 -86.602540
vn 50.000000 -0.000000 -86.602540
vn 50.000000 -0.000000 -86.602540
vn 100.000000 -0.000000 -0.000000
vn 100.000000 -0.000000 -0.000000
vn 50.000000 0.000000 86.602540
vn 50.000000 0.000000 86.602540
vn 0.000000 0.000000 100.000000
vn 50.000000 0.000000 86.602540
vn 0.000000 0.000000 100.000000
vn 50.000000 0.000000 86.602540
vn 50.000000 0.000000 86.602540
vn 86.602540 0.000000 50.000000
vn 86.602540 0.000000 50.000000
vn 86.602540 0.000000 50.000000
vn 86.602540 0.000000 50.000000
vn 86.602540 0.000000 50.000000
vn 0.000000 0.000000 100.000000
vn 0.000000 0.000000 100.000000
vn -86.602540 0.000000 50.000000
vn -86.602540 0.000000 50.000000
vn -100.000000 0.000000 -0.000000
vn -86.602540 0.000000 50.000000
vn -100.000000 0.000000 -0.000000
vn -86.602540 0.000000 50.000000
vn -86.602540 0.000000 50.000000
vn -50.000000 0.000000 86.602540
vn -50.000000 0.000000 86.602540
vn -50.000000 0.000000 86.602540
vn -50.000000 0.000000 86.602540
vn -50.000000 0.000000 86.602540
vn -100.000000 0.000000 0.000000
vn -100.000000 0.000000 0.000000
vn -100.000000 0.000000 0.000000
vn -100.000000 0.000000 0.000000
vn -50.000000 -0.000000 -86.602540
vn -50.000000 -0.000000 -86.602540
vn -50.000000 -0.000000 -86.602540
vn -50.000000 -0.000000 -86.602540
vn -50.000000 -0.000000 -86.602540
vn -86.602540 -0.000000 -50.000000
vn -86.602540 -0.000000 -50.000000
vn -86.602540 -0.000000 -50.000000
vn -86.602540 -0.000000 -50.000000
vn -86.602540 -0.000000 -50.000000
vn -0.000000 -0.000000 -100.000000
vn -0.000000 -0.000000 -100.000000
vn -0.000000 -0.000000 -100.000000
vn -0.000000 -0.000000 -100.000000
usemtl Opaque(255,255,255)
f 2/1/1 7/2/2 1/3/3
f 1/3/3 7/2/2 14/4/4
f 1/3/3 14/4/4 15/5/5
f 7/2/2 2/1/1 6/6/6
f 6/6/6 2/1/1 3/7/7
f 6/6/6 3/7/7 5/8/8
f 5/8/8 3/7/7 4/9/9
f 8/10/10 10/11/11 7/2/2
f 7/2/2 10/11/11 11/12/12
f 7/2/2 11/12/12 14/4/4
f 14/4/4 11/12/12 13/13/13
f 13/13/13 11/12/12 12/14/14
f 8/10/10 9/15/15 10/11/11
f 1/3/3 15/5/5 18/16/16
f 18/16/16 15/5/5 16/17/17
f 18/16/16 16/17/17 17/18/18
f 20/19/19 32/20/20 19/21/21
f 19/21/21 32/20/20 33/22/22
f 19/21/21 33/22/22 36/23/23
f 36/23/23 33/22/22 34/24/24
f 36/23/23 34/24/24 35/25/25
f 21/26/26 24/27/27 20/19/19
f 20/19/19 24/27/27 25/28/28
f 20/19/19 25/28/28 32/20/20
f 32/20/20 25/28/28 29/29/29
f 32/20/20 29/29/29 31/30/30
f 31/30/30 29/29/29 30/31/31
f 22/32/32 23/33/33 21/26/26
f 21/26/26 23/33/33 24/27/27
f 29/29/29 25/28/28 28/34/34
f 28/34/34 25/28/28 26/35/35
f 28/34/34 26/35/35 27/36/36
f 19/37/37 36/38/38 2/39/39
f 2/39/39 36/38/38 3/40/40
f 1/41/41 18/42/42 20/43/43
f 20/43/43 18/42/42 21/44/44
usemtl Opaque(30,30,30)
f 1/45/45 20/46/46 38/47/47
f 38/47/47 20/46/46 37/48/48
f 2/49/49 1/50/50 39/51/51
f 39/51/51 1/50/50 38/52/52
f 19/53/53 2/54/54 40/55/55
f 40/55/55 2/54/54 39/56/56
f 20/57/57 19/58/58 37/59/59
f 37/59/59 19/58/58 40/60/60
usemtl Opaque(255,255,255)
f 5/61/61 41/62/62 6/63/63
f 6/63/63 41/62/62 42/64/64
f 6/63/63 42/64/64 33/65/65
f 33/65/65 42/64/64 43/66/66
f 33/65/65 43/66/66 34/67/67
f 34/67/67 43/66/66 35/68/68
f 35/68/68 43/66/66 46/69/69
f 35/68/68 46/69/69 36/70/38
f 36/70/38 46/69/69 45/71/70
f 36/70/38 45/71/70 3/72/40
f 3/72/40 45/71/70 44/73/71
f 3/72/40 44/73/71 4/74/72
f 4/74/72 44/73/71 5/61/61
f 5/61/61 44/73/71 41/62/62
f 46/69/69 43/66/66 42/64/64
f 44/73/71 45/71/70 41/62/62
f 41/62/62 45/71/70 42/64/64
f 45/71/70 46/69/69 42/64/64
f 7/75/73 6/76/63 32/77/74
f 32/77/74 6/76/63 33/78/65
f 9/79/75 47/80/76 10/81/77
f 10/81/77 47/80/76 48/82/78
f 10/81/77 48/82/78 29/83/79
f 29/83/79 48/82/78 49/84/80
f 29/83/79 49/84/80 30/85/81
f 30/85/81 49/84/80 31/86/82
f 31/86/82 49/84/80 52/87/83
f 31/86/82 52/87/83 32/88/74
f 32/88/74 52/87/83 51/89/84
f 32/88/74 51/89/84 7/90/73
f 7/90/73 51/89/84 50/91/85
f 7/90/73 50/91/85 8/92/86
f 8/92/86 50/91/85 9/79/75
f 9/79/75 50/91/85 47/80/76
f 52/87/83 49/84/80 48/82/78
f 50/91/85 51/89/84 47/80/76
f 47/80/76 51/89/84 48/82/78
f 51/89/84 52/87/83 48/82/78
f 11/93/87 10/94/77 28/95/88
f 28/95/88 10/94/77 29/96/79
f 13/97/89 53/98/90 14/99/91
f 14/99/91 53/98/90 54/100/92
f 14/99/91 54/100/92 25/101/93
f 25/101/93 54/100/92 55/102/94
f 25/101/93 55/102/94 26/103/95
f 26/103/95 55/102/94 27/104/96
f 27/104/96 55/102/94 58/105/97
f 27/104/96 58/105/97 28/106/88
f 28/106/88 58/105/97 57/107/98
f 28/106/88 57/107/98 11/108/87
f 11/108/87 57/107/98 56/109/99
f 11/108/87 56/109/99 12/110/100
f 12/110/100 56/109/99 13/97/89
f 13/97/89 56/109/99 53/98/90
f 58/105/97 55/102/94 54/100/92
f 56/109/99 57/107/98 53/98/90
f 53/98/90 57/107/98 54/100/92
f 57/107/98 58/105/97 54/100/92
f 15/111/101 14/112/102 24/113/103
f 24/113/103 14/112/102 25/114/104
f 17/115/105 59/116/106 18/117/42
f 18/117/42 59/116/106 60/118/107
f 18/117/42 60/118/107 21/119/44
f 21/119/44 60/118/107 61/120/108
f 21/119/44 61/120/108 22/121/109
f 22/121/109 61/120/108 23/122/110
f 23/122/110 61/120/108 64/123/111
f 23/122/110 64/123/111 24/124/103
f 24/124/103 64/123/111 63/125/112
f 24/124/103 63/125/112 15/126/101
f 15/126/101 63/125/112 62/127/113
f 15/126/101 62/127/113 16/128/114
f 16/128/114 62/127/113 17/115/105
f 17/115/105 62/127/113 59/116/106
f 64/123/111 61/120/108 60/118/107
f 62/127/113 63/125/112 59/116/106
f 59/116/106 63/125/112 60/118/107
f 63/125/112 64/123/111 60/118/107
usemtl Opaque(30,30,30)
f 37/129/115 40/130/116 38/131/117
f 38/131/117 40/130/116 39/132/118
# 64 vertices
# 132 texture params
# 118 normals
# 124 facets

# 1 groups
