# WaveFront *.obj file (generated by Autodesk ATF)

mtllib hambot_Pillars & Battery v1_Adafruit 0.91in 128x32 OLED STEMMA QT v1_1_LED 0603 single color v1_1_Body1.mtl

g Body1

v -0.021043 -0.048100 0.078392
v -0.021043 -0.048686 0.078392
v -0.021551 -0.048393 0.078392
v -0.021043 -0.048100 0.078400
v -0.021551 -0.048393 0.078400
v -0.021043 -0.048686 0.078400
vt -0.001000 0.051800 0.000000
vt -0.059659 0.051800 0.000000
vt -0.030329 0.001000 0.000000
vt 0.001173 -0.001016 0.000000
vt 0.030503 -0.051816 0.000000
vt 0.059832 -0.001016 0.000000
vt 0.059832 0.000996 0.000000
vt 0.001173 0.000996 0.000000
vt 0.059832 0.000234 0.000000
vt 0.001173 0.000234 0.000000
vt 0.059832 0.000996 0.000000
vt 0.001173 0.000996 0.000000
vt 0.059832 0.000234 0.000000
vt 0.001173 0.000234 0.000000
vt -0.000234 0.059832 0.000000
vt -0.000996 0.059832 0.000000
vt -0.000234 0.001173 0.000000
vt -0.000996 0.001173 0.000000
vn 0.000000 0.000000 -100.000000
vn 0.000000 0.000000 -100.000000
vn 0.000000 0.000000 -100.000000
vn -0.000000 -0.000000 100.000000
vn -0.000000 -0.000000 100.000000
vn -0.000000 -0.000000 100.000000
vn -50.000000 86.602540 -0.000000
vn -50.000000 86.602540 -0.000000
vn -50.000000 86.602540 -0.000000
vn -50.000000 86.602540 -0.000000
vn -50.000000 -86.602540 -0.000000
vn -50.000000 -86.602540 -0.000000
vn -50.000000 -86.602540 -0.000000
vn -50.000000 -86.602540 -0.000000
vn 100.000000 -0.000000 0.000000
vn 100.000000 -0.000000 0.000000
vn 100.000000 -0.000000 0.000000
vn 100.000000 -0.000000 0.000000
usemtl Opaque(0,127,0)
f 1/1/1 2/2/2 3/3/3
f 4/4/4 5/5/5 6/6/6
f 5/7/7 4/8/8 3/9/9
f 3/9/9 4/8/8 1/10/10
f 6/11/11 5/12/12 2/13/13
f 2/13/13 5/12/12 3/14/14
f 1/15/15 4/16/16 2/17/17
f 2/17/17 4/16/16 6/18/18
# 6 vertices
# 18 texture params
# 18 normals
# 8 facets

# 1 groups
