# WaveFront *.obj file (generated by Autodesk ATF)

mtllib hambot_Pillars & Battery v1_Adafruit 0.91in 128x32 OLED STEMMA QT v1_1_SOT23-6 v3_1_Body4.mtl

g Body4

v -0.029627 -0.050329 0.077776
v -0.029545 -0.050329 0.077780
v -0.029469 -0.050329 0.077812
v -0.029416 -0.050329 0.077875
v -0.029391 -0.050329 0.077953
v -0.029377 -0.050329 0.078119
v -0.029368 -0.050329 0.078199
v -0.029359 -0.050329 0.078241
v -0.029350 -0.050329 0.078260
v -0.029336 -0.050329 0.078275
v -0.029336 -0.050679 0.078275
v -0.029350 -0.050679 0.078260
v -0.029359 -0.050679 0.078241
v -0.029368 -0.050679 0.078199
v -0.029377 -0.050679 0.078119
v -0.029391 -0.050679 0.077953
v -0.029416 -0.050679 0.077875
v -0.029469 -0.050679 0.077812
v -0.029545 -0.050679 0.077780
v -0.029627 -0.050679 0.077776
v -0.029257 -0.050329 0.078295
v -0.029172 -0.050329 0.078295
v -0.029172 -0.050679 0.078295
v -0.029257 -0.050679 0.078295
v -0.029174 -0.050329 0.078400
v -0.029174 -0.050679 0.078400
v -0.029328 -0.050329 0.078390
v -0.029402 -0.050329 0.078357
v -0.029449 -0.050329 0.078294
v -0.029473 -0.050329 0.078213
v -0.029493 -0.050329 0.077977
v -0.029503 -0.050329 0.077936
v -0.029522 -0.050329 0.077905
v -0.029550 -0.050329 0.077886
v -0.029627 -0.050329 0.077881
v -0.029627 -0.050679 0.077881
v -0.029550 -0.050679 0.077886
v -0.029522 -0.050679 0.077905
v -0.029503 -0.050679 0.077936
v -0.029493 -0.050679 0.077977
v -0.029473 -0.050679 0.078213
v -0.029449 -0.050679 0.078294
v -0.029402 -0.050679 0.078357
v -0.029328 -0.050679 0.078390
vt -0.187830 0.000000 0.000000
vt -0.179516 0.000000 0.000000
vt -0.187830 0.035000 0.000000
vt -0.179516 0.035000 0.000000
vt -0.171202 0.000000 0.000000
vt -0.171202 0.035000 0.000000
vt -0.162889 0.000000 0.000000
vt -0.162889 0.035000 0.000000
vt -0.154575 0.000000 0.000000
vt -0.154575 0.035000 0.000000
vt -0.137947 0.000000 0.000000
vt -0.137947 0.035000 0.000000
vt -0.129633 0.000000 0.000000
vt -0.129633 0.035000 0.000000
vt -0.125477 0.000000 0.000000
vt -0.125477 0.035000 0.000000
vt -0.123398 0.000000 0.000000
vt -0.123398 0.035000 0.000000
vt -0.121320 0.000000 0.000000
vt -0.121320 0.035000 0.000000
vt -0.113776 0.000000 0.000000
vt -0.122209 0.035000 0.000000
vt -0.113776 0.035000 0.000000
vt -0.105342 0.000000 0.000000
vt -0.105342 0.035000 0.000000
vt -0.005250 0.000000 0.000000
vt 0.005250 0.000000 0.000000
vt -0.005250 0.035000 0.000000
vt 0.005250 0.035000 0.000000
vt -0.088923 0.000000 0.000000
vt -0.079054 0.000000 0.000000
vt -0.088923 0.035000 0.000000
vt -0.079054 0.035000 0.000000
vt -0.069185 0.000000 0.000000
vt -0.069185 0.035000 0.000000
vt -0.059316 0.000000 0.000000
vt -0.059316 0.035000 0.000000
vt -0.049448 0.000000 0.000000
vt -0.049448 0.035000 0.000000
vt -0.029710 0.000000 0.000000
vt -0.029710 0.035000 0.000000
vt -0.024775 0.000000 0.000000
vt -0.024775 0.035000 0.000000
vt -0.019841 0.000000 0.000000
vt -0.019841 0.035000 0.000000
vt -0.014907 0.000000 0.000000
vt -0.014907 0.035000 0.000000
vt -0.009972 0.000000 0.000000
vt -0.009972 0.035000 0.000000
vt -0.005250 0.000000 0.000000
vt 0.005250 0.000000 0.000000
vt -0.005250 0.035000 0.000000
vt 0.005250 0.035000 0.000000
vt 0.070113 -0.005686 0.000000
vt 0.059613 -0.005686 0.000000
vt 0.069760 -0.013947 0.000000
vt 0.059133 -0.013379 0.000000
vt 0.066547 -0.021500 0.000000
vt 0.057266 -0.016252 0.000000
vt 0.054183 -0.018116 0.000000
vt 0.060300 -0.026819 0.000000
vt 0.050070 -0.019114 0.000000
vt 0.052462 -0.029350 0.000000
vt 0.035867 -0.030679 0.000000
vt 0.026496 -0.021117 0.000000
vt 0.027825 -0.031630 0.000000
vt 0.018338 -0.023541 0.000000
vt 0.023630 -0.032546 0.000000
vt 0.021724 -0.033402 0.000000
vt 0.012032 -0.028248 0.000000
vt 0.020253 -0.034780 0.000000
vt 0.008770 -0.035638 0.000000
vt 0.018232 -0.042678 0.000000
vt 0.007792 -0.050993 0.000000
vt 0.018290 -0.051172 0.000000
vt -0.070113 -0.005686 0.000000
vt -0.069760 -0.013947 0.000000
vt -0.059613 -0.005686 0.000000
vt -0.059133 -0.013379 0.000000
vt -0.066547 -0.021500 0.000000
vt -0.057266 -0.016252 0.000000
vt -0.054183 -0.018116 0.000000
vt -0.060300 -0.026819 0.000000
vt -0.050070 -0.019114 0.000000
vt -0.052462 -0.029350 0.000000
vt -0.035867 -0.030679 0.000000
vt -0.026496 -0.021117 0.000000
vt -0.027825 -0.031630 0.000000
vt -0.018338 -0.023541 0.000000
vt -0.023630 -0.032546 0.000000
vt -0.021724 -0.033402 0.000000
vt -0.012032 -0.028248 0.000000
vt -0.020253 -0.034780 0.000000
vt -0.008770 -0.035638 0.000000
vt -0.018232 -0.042678 0.000000
vt -0.007792 -0.050993 0.000000
vt -0.018290 -0.051172 0.000000
vn -0.000000 0.000000 -100.000000
vn 16.837130 0.000000 -98.572364
vn -0.000000 0.000000 -100.000000
vn 16.837130 0.000000 -98.572364
vn 58.858639 0.000000 -80.843433
vn 58.858639 0.000000 -80.843433
vn 87.940664 0.000000 -47.607138
vn 87.940664 0.000000 -47.607138
vn 98.714102 0.000000 -15.985180
vn 98.714102 0.000000 -15.985180
vn 99.876634 0.000000 -4.965676
vn 99.876634 0.000000 -4.965676
vn 98.445738 0.000000 -17.562367
vn 98.445738 0.000000 -17.562367
vn 95.178055 0.000000 -30.677970
vn 95.178055 0.000000 -30.677970
vn 84.679864 0.000000 -53.191359
vn 84.679864 0.000000 -53.191359
vn 56.765776 0.000000 -82.326464
vn 56.765776 0.000000 -82.326464
vn 51.576244 0.000000 -85.673164
vn 4.292245 0.000000 -99.907841
vn 51.576244 0.000000 -85.673164
vn 4.292245 0.000000 -99.907841
vn 1.709152 0.000000 -99.985393
vn 1.709152 0.000000 -99.985393
vn 99.985393 0.000000 1.709152
vn 99.985393 0.000000 1.709152
vn 99.985393 0.000000 1.709152
vn 99.985393 0.000000 1.709152
vn -1.709152 -0.000000 99.985393
vn -24.317465 -0.000000 96.998252
vn -1.709152 -0.000000 99.985393
vn -24.317465 -0.000000 96.998252
vn -62.138713 -0.000000 78.350369
vn -62.138713 -0.000000 78.350369
vn -91.679784 -0.000000 39.935163
vn -91.679784 -0.000000 39.935163
vn -98.891499 -0.000000 14.848282
vn -98.891499 -0.000000 14.848282
vn -99.007829 -0.000000 14.051682
vn -99.007829 -0.000000 14.051682
vn -93.515394 -0.000000 35.424159
vn -93.515394 -0.000000 35.424159
vn -72.137171 -0.000000 69.254809
vn -72.137171 -0.000000 69.254809
vn -33.916561 -0.000000 94.072668
vn -33.916561 -0.000000 94.072668
vn 0.000000 -0.000000 100.000000
vn 0.000000 -0.000000 100.000000
vn -100.000000 -0.000000 -0.000000
vn -100.000000 -0.000000 -0.000000
vn -100.000000 -0.000000 -0.000000
vn -100.000000 -0.000000 -0.000000
vn -0.000000 100.000000 0.000000
vn -0.000000 100.000000 0.000000
vn -0.000000 100.000000 0.000000
vn -0.000000 100.000000 0.000000
vn -0.000000 100.000000 0.000000
vn -0.000000 100.000000 0.000000
vn -0.000000 100.000000 0.000000
vn -0.000000 100.000000 0.000000
vn -0.000000 100.000000 0.000000
vn -0.000000 100.000000 0.000000
vn -0.000000 100.000000 0.000000
vn -0.000000 100.000000 0.000000
vn -0.000000 100.000000 0.000000
vn -0.000000 100.000000 0.000000
vn -0.000000 100.000000 0.000000
vn -0.000000 100.000000 0.000000
vn -0.000000 100.000000 0.000000
vn -0.000000 100.000000 0.000000
vn -0.000000 100.000000 0.000000
vn -0.000000 100.000000 0.000000
vn -0.000000 100.000000 0.000000
vn -0.000000 100.000000 0.000000
vn 0.000000 -100.000000 -0.000000
vn 0.000000 -100.000000 -0.000000
vn 0.000000 -100.000000 -0.000000
vn 0.000000 -100.000000 -0.000000
vn 0.000000 -100.000000 -0.000000
vn 0.000000 -100.000000 -0.000000
vn 0.000000 -100.000000 -0.000000
vn 0.000000 -100.000000 -0.000000
vn 0.000000 -100.000000 -0.000000
vn 0.000000 -100.000000 -0.000000
vn 0.000000 -100.000000 -0.000000
vn 0.000000 -100.000000 -0.000000
vn 0.000000 -100.000000 -0.000000
vn 0.000000 -100.000000 -0.000000
vn 0.000000 -100.000000 -0.000000
vn 0.000000 -100.000000 -0.000000
vn 0.000000 -100.000000 -0.000000
vn 0.000000 -100.000000 -0.000000
vn 0.000000 -100.000000 -0.000000
vn 0.000000 -100.000000 -0.000000
vn 0.000000 -100.000000 -0.000000
vn 0.000000 -100.000000 -0.000000
usemtl Opaque(230,230,230)
f 1/1/1 2/2/2 20/3/3
f 20/3/3 2/2/2 19/4/4
f 19/4/4 2/2/2 3/5/5
f 19/4/4 3/5/5 18/6/6
f 18/6/6 3/5/5 4/7/7
f 18/6/6 4/7/7 17/8/8
f 17/8/8 4/7/7 5/9/9
f 17/8/8 5/9/9 16/10/10
f 16/10/10 5/9/9 6/11/11
f 16/10/10 6/11/11 15/12/12
f 15/12/12 6/11/11 7/13/13
f 15/12/12 7/13/13 14/14/14
f 14/14/14 7/13/13 8/15/15
f 14/14/14 8/15/15 13/16/16
f 13/16/16 8/15/15 9/17/17
f 13/16/16 9/17/17 12/18/18
f 12/18/18 9/17/17 10/19/19
f 12/18/18 10/19/19 11/20/20
f 10/19/21 21/21/22 11/22/23
f 11/22/23 21/21/22 24/23/24
f 24/23/24 21/21/22 22/24/25
f 24/23/24 22/24/25 23/25/26
f 22/26/27 25/27/28 23/28/29
f 23/28/29 25/27/28 26/29/30
f 25/30/31 27/31/32 26/32/33
f 26/32/33 27/31/32 44/33/34
f 44/33/34 27/31/32 28/34/35
f 44/33/34 28/34/35 43/35/36
f 43/35/36 28/34/35 29/36/37
f 43/35/36 29/36/37 42/37/38
f 42/37/38 29/36/37 30/38/39
f 42/37/38 30/38/39 41/39/40
f 41/39/40 30/38/39 31/40/41
f 41/39/40 31/40/41 40/41/42
f 40/41/42 31/40/41 32/42/43
f 40/41/42 32/42/43 39/43/44
f 39/43/44 32/42/43 33/44/45
f 39/43/44 33/44/45 38/45/46
f 38/45/46 33/44/45 34/46/47
f 38/45/46 34/46/47 37/47/48
f 37/47/48 34/46/47 35/48/49
f 37/47/48 35/48/49 36/49/50
f 35/50/51 1/51/52 36/52/53
f 36/52/53 1/51/52 20/53/54
f 1/54/55 35/55/56 2/56/57
f 2/56/57 35/55/56 34/57/58
f 2/56/57 34/57/58 3/58/59
f 3/58/59 34/57/58 33/59/60
f 3/58/59 33/59/60 32/60/61
f 3/58/59 32/60/61 4/61/62
f 4/61/62 32/60/61 31/62/63
f 4/61/62 31/62/63 5/63/64
f 5/63/64 31/62/63 6/64/65
f 6/64/65 31/62/63 30/65/66
f 6/64/65 30/65/66 7/66/67
f 7/66/67 30/65/66 29/67/68
f 7/66/67 29/67/68 8/68/69
f 8/68/69 29/67/68 9/69/70
f 9/69/70 29/67/68 28/70/71
f 9/69/70 28/70/71 10/71/72
f 10/71/72 28/70/71 27/72/73
f 10/71/72 27/72/73 21/73/74
f 21/73/74 27/72/73 25/74/75
f 21/73/74 25/74/75 22/75/76
f 20/76/77 19/77/78 36/78/79
f 36/78/79 19/77/78 37/79/80
f 37/79/80 19/77/78 18/80/81
f 37/79/80 18/80/81 38/81/82
f 38/81/82 18/80/81 39/82/83
f 39/82/83 18/80/81 17/83/84
f 39/82/83 17/83/84 40/84/85
f 40/84/85 17/83/84 16/85/86
f 40/84/85 16/85/86 15/86/87
f 40/84/85 15/86/87 41/87/88
f 41/87/88 15/86/87 14/88/89
f 41/87/88 14/88/89 42/89/90
f 42/89/90 14/88/89 13/90/91
f 42/89/90 13/90/91 12/91/92
f 42/89/90 12/91/92 43/92/93
f 43/92/93 12/91/92 11/93/94
f 43/92/93 11/93/94 44/94/95
f 44/94/95 11/93/94 24/95/96
f 44/94/95 24/95/96 26/96/97
f 26/96/97 24/95/96 23/97/98
# 44 vertices
# 97 texture params
# 98 normals
# 84 facets

# 1 groups
