# WaveFront *.obj file (generated by Autodesk ATF)

mtllib hambot_Pillars & Battery v1_Adafruit 0.91in 128x32 OLED STEMMA QT v1_1_SOT23-5 v1_1_Body4.mtl

g Body4

v -0.040304 -0.053193 0.077506
v -0.040304 -0.053193 0.077656
v -0.040804 -0.053193 0.077656
v -0.040804 -0.053193 0.077506
v -0.040304 -0.053083 0.077663
v -0.040304 -0.053042 0.077690
v -0.040304 -0.053015 0.077734
v -0.040304 -0.053001 0.077793
v -0.040304 -0.052973 0.078130
v -0.040304 -0.052938 0.078246
v -0.040304 -0.052871 0.078336
v -0.040304 -0.052765 0.078383
v -0.040304 -0.052546 0.078397
v -0.040804 -0.052546 0.078397
v -0.040804 -0.052765 0.078383
v -0.040804 -0.052871 0.078336
v -0.040804 -0.052938 0.078246
v -0.040804 -0.052973 0.078130
v -0.040804 -0.053001 0.077793
v -0.040804 -0.053015 0.077734
v -0.040804 -0.053042 0.077690
v -0.040804 -0.053083 0.077663
v -0.040304 -0.052543 0.078247
v -0.040804 -0.052543 0.078247
v -0.040304 -0.052665 0.078248
v -0.040304 -0.052777 0.078219
v -0.040804 -0.052777 0.078219
v -0.040804 -0.052665 0.078248
v -0.040304 -0.052797 0.078198
v -0.040304 -0.052809 0.078171
v -0.040304 -0.052822 0.078111
v -0.040304 -0.052836 0.077996
v -0.040304 -0.052855 0.077759
v -0.040304 -0.052891 0.077647
v -0.040304 -0.052967 0.077557
v -0.040304 -0.053075 0.077511
v -0.040804 -0.053075 0.077511
v -0.040804 -0.052967 0.077557
v -0.040804 -0.052891 0.077647
v -0.040804 -0.052855 0.077759
v -0.040804 -0.052836 0.077996
v -0.040804 -0.052822 0.078111
v -0.040804 -0.052809 0.078171
v -0.040804 -0.052797 0.078198
vt -0.007500 0.000000 0.000000
vt 0.007500 0.000000 0.000000
vt -0.007500 0.050000 0.000000
vt 0.007500 0.050000 0.000000
vt -0.239414 0.000000 0.000000
vt -0.232368 0.000000 0.000000
vt -0.239414 0.050000 0.000000
vt -0.232368 0.050000 0.000000
vt -0.225321 0.000000 0.000000
vt -0.225321 0.050000 0.000000
vt -0.218275 0.000000 0.000000
vt -0.218275 0.050000 0.000000
vt -0.211228 0.000000 0.000000
vt -0.211228 0.050000 0.000000
vt -0.183043 0.000000 0.000000
vt -0.183043 0.050000 0.000000
vt -0.168950 0.000000 0.000000
vt -0.168950 0.050000 0.000000
vt -0.154857 0.000000 0.000000
vt -0.154857 0.050000 0.000000
vt -0.140764 0.000000 0.000000
vt -0.140764 0.050000 0.000000
vt -0.126671 0.000000 0.000000
vt -0.126671 0.050000 0.000000
vt -0.007500 0.000000 0.000000
vt 0.007500 0.000000 0.000000
vt -0.007500 0.050000 0.000000
vt 0.007500 0.050000 0.000000
vt -0.119800 0.000000 0.000000
vt -0.107753 0.000000 0.000000
vt -0.119800 0.050000 0.000000
vt -0.107753 0.050000 0.000000
vt -0.095706 0.000000 0.000000
vt -0.095706 0.050000 0.000000
vt -0.092045 0.000000 0.000000
vt -0.095014 0.050000 0.000000
vt -0.092045 0.050000 0.000000
vt -0.089076 0.000000 0.000000
vt -0.089076 0.050000 0.000000
vt -0.083138 0.000000 0.000000
vt -0.083138 0.050000 0.000000
vt -0.071261 0.000000 0.000000
vt -0.071261 0.050000 0.000000
vt -0.047507 0.000000 0.000000
vt -0.047507 0.050000 0.000000
vt -0.035630 0.000000 0.000000
vt -0.035630 0.050000 0.000000
vt -0.023754 0.000000 0.000000
vt -0.023754 0.050000 0.000000
vt -0.011877 0.000000 0.000000
vt -0.011877 0.050000 0.000000
vt 0.000000 0.000000 0.000000
vt 0.000000 0.050000 0.000000
vt -0.011147 0.008123 0.000000
vt -0.011650 0.019925 0.000000
vt -0.026147 0.008123 0.000000
vt -0.026833 0.019112 0.000000
vt -0.016240 0.030714 0.000000
vt -0.029499 0.023217 0.000000
vt -0.033904 0.025880 0.000000
vt -0.025166 0.038312 0.000000
vt -0.039779 0.027306 0.000000
vt -0.036363 0.041928 0.000000
vt -0.060069 0.043828 0.000000
vt -0.073457 0.030168 0.000000
vt -0.071558 0.045185 0.000000
vt -0.085110 0.033631 0.000000
vt -0.077552 0.046494 0.000000
vt -0.080274 0.047716 0.000000
vt -0.094120 0.040355 0.000000
vt -0.082375 0.049685 0.000000
vt -0.098780 0.050912 0.000000
vt -0.085262 0.060968 0.000000
vt -0.100177 0.072847 0.000000
vt -0.085180 0.073103 0.000000
vt 0.011147 0.008123 0.000000
vt 0.026147 0.008123 0.000000
vt 0.011650 0.019925 0.000000
vt 0.026833 0.019112 0.000000
vt 0.016240 0.030714 0.000000
vt 0.029499 0.023217 0.000000
vt 0.033904 0.025880 0.000000
vt 0.025166 0.038312 0.000000
vt 0.039779 0.027306 0.000000
vt 0.036363 0.041928 0.000000
vt 0.060069 0.043828 0.000000
vt 0.073457 0.030168 0.000000
vt 0.071558 0.045185 0.000000
vt 0.085110 0.033631 0.000000
vt 0.077552 0.046494 0.000000
vt 0.080274 0.047716 0.000000
vt 0.094120 0.040355 0.000000
vt 0.082375 0.049685 0.000000
vt 0.098780 0.050912 0.000000
vt 0.085262 0.060968 0.000000
vt 0.100177 0.072847 0.000000
vt 0.085180 0.073103 0.000000
vn -0.000000 -100.000000 -0.000000
vn -0.000000 -100.000000 -0.000000
vn -0.000000 -100.000000 -0.000000
vn -0.000000 -100.000000 -0.000000
vn -0.000000 0.000000 100.000000
vn -0.000000 -33.916561 94.072668
vn -0.000000 0.000000 100.000000
vn -0.000000 -33.916561 94.072668
vn -0.000000 -72.137171 69.254809
vn -0.000000 -72.137171 69.254809
vn -0.000000 -93.515394 35.424159
vn -0.000000 -93.515394 35.424159
vn -0.000000 -99.007829 14.051682
vn -0.000000 -99.007829 14.051682
vn -0.000000 -98.891499 14.848282
vn -0.000000 -98.891499 14.848282
vn -0.000000 -91.679784 39.935163
vn -0.000000 -91.679784 39.935163
vn -0.000000 -62.138713 78.350369
vn -0.000000 -62.138713 78.350369
vn -0.000000 -24.317465 96.998252
vn -0.000000 -24.317465 96.998252
vn -0.000000 -1.709152 99.985393
vn -0.000000 -1.709152 99.985393
vn -0.000000 99.985393 1.709152
vn -0.000000 99.985393 1.709152
vn -0.000000 99.985393 1.709152
vn -0.000000 99.985393 1.709152
vn 0.000000 1.709152 -99.985393
vn 0.000000 4.292245 -99.907841
vn 0.000000 1.709152 -99.985393
vn 0.000000 4.292245 -99.907841
vn 0.000000 51.576244 -85.673164
vn 0.000000 51.576244 -85.673164
vn 0.000000 56.765776 -82.326464
vn 0.000000 84.679864 -53.191359
vn 0.000000 56.765776 -82.326464
vn 0.000000 84.679864 -53.191359
vn 0.000000 95.178055 -30.677970
vn 0.000000 95.178055 -30.677970
vn 0.000000 98.445738 -17.562367
vn 0.000000 98.445738 -17.562367
vn 0.000000 99.876634 -4.965676
vn 0.000000 99.876634 -4.965676
vn 0.000000 98.714102 -15.985180
vn 0.000000 98.714102 -15.985180
vn 0.000000 87.940664 -47.607138
vn 0.000000 87.940664 -47.607138
vn 0.000000 58.858639 -80.843433
vn 0.000000 58.858639 -80.843433
vn 0.000000 16.837130 -98.572364
vn 0.000000 16.837130 -98.572364
vn 0.000000 -0.000000 -100.000000
vn 0.000000 -0.000000 -100.000000
vn 100.000000 -0.000000 0.000000
vn 100.000000 -0.000000 0.000000
vn 100.000000 -0.000000 0.000000
vn 100.000000 -0.000000 0.000000
vn 100.000000 -0.000000 0.000000
vn 100.000000 -0.000000 0.000000
vn 100.000000 -0.000000 0.000000
vn 100.000000 -0.000000 0.000000
vn 100.000000 -0.000000 0.000000
vn 100.000000 -0.000000 0.000000
vn 100.000000 -0.000000 0.000000
vn 100.000000 -0.000000 0.000000
vn 100.000000 -0.000000 0.000000
vn 100.000000 -0.000000 0.000000
vn 100.000000 -0.000000 0.000000
vn 100.000000 -0.000000 0.000000
vn 100.000000 -0.000000 0.000000
vn 100.000000 -0.000000 0.000000
vn 100.000000 -0.000000 0.000000
vn 100.000000 -0.000000 0.000000
vn 100.000000 -0.000000 0.000000
vn 100.000000 -0.000000 0.000000
vn -100.000000 0.000000 -0.000000
vn -100.000000 0.000000 -0.000000
vn -100.000000 0.000000 -0.000000
vn -100.000000 0.000000 -0.000000
vn -100.000000 0.000000 -0.000000
vn -100.000000 0.000000 -0.000000
vn -100.000000 0.000000 -0.000000
vn -100.000000 0.000000 -0.000000
vn -100.000000 0.000000 -0.000000
vn -100.000000 0.000000 -0.000000
vn -100.000000 0.000000 -0.000000
vn -100.000000 0.000000 -0.000000
vn -100.000000 0.000000 -0.000000
vn -100.000000 0.000000 -0.000000
vn -100.000000 0.000000 -0.000000
vn -100.000000 0.000000 -0.000000
vn -100.000000 0.000000 -0.000000
vn -100.000000 0.000000 -0.000000
vn -100.000000 0.000000 -0.000000
vn -100.000000 0.000000 -0.000000
vn -100.000000 0.000000 -0.000000
vn -100.000000 0.000000 -0.000000
usemtl Opaque(230,230,230)
f 1/1/1 2/2/2 4/3/3
f 4/3/3 2/2/2 3/4/4
f 2/5/5 5/6/6 3/7/7
f 3/7/7 5/6/6 22/8/8
f 22/8/8 5/6/6 6/9/9
f 22/8/8 6/9/9 21/10/10
f 21/10/10 6/9/9 7/11/11
f 21/10/10 7/11/11 20/12/12
f 20/12/12 7/11/11 8/13/13
f 20/12/12 8/13/13 19/14/14
f 19/14/14 8/13/13 9/15/15
f 19/14/14 9/15/15 18/16/16
f 18/16/16 9/15/15 10/17/17
f 18/16/16 10/17/17 17/18/18
f 17/18/18 10/17/17 11/19/19
f 17/18/18 11/19/19 16/20/20
f 16/20/20 11/19/19 12/21/21
f 16/20/20 12/21/21 15/22/22
f 15/22/22 12/21/21 13/23/23
f 15/22/22 13/23/23 14/24/24
f 13/25/25 23/26/26 14/27/27
f 14/27/27 23/26/26 24/28/28
f 23/29/29 25/30/30 24/31/31
f 24/31/31 25/30/30 28/32/32
f 28/32/32 25/30/30 26/33/33
f 28/32/32 26/33/33 27/34/34
f 26/33/35 29/35/36 27/36/37
f 27/36/37 29/35/36 44/37/38
f 44/37/38 29/35/36 30/38/39
f 44/37/38 30/38/39 43/39/40
f 43/39/40 30/38/39 31/40/41
f 43/39/40 31/40/41 42/41/42
f 42/41/42 31/40/41 32/42/43
f 42/41/42 32/42/43 41/43/44
f 41/43/44 32/42/43 33/44/45
f 41/43/44 33/44/45 40/45/46
f 40/45/46 33/44/45 34/46/47
f 40/45/46 34/46/47 39/47/48
f 39/47/48 34/46/47 35/48/49
f 39/47/48 35/48/49 38/49/50
f 38/49/50 35/48/49 36/50/51
f 38/49/50 36/50/51 37/51/52
f 37/51/52 36/50/51 1/52/53
f 37/51/52 1/52/53 4/53/54
f 1/54/55 36/55/56 2/56/57
f 2/56/57 36/55/56 5/57/58
f 5/57/58 36/55/56 35/58/59
f 5/57/58 35/58/59 6/59/60
f 6/59/60 35/58/59 7/60/61
f 7/60/61 35/58/59 34/61/62
f 7/60/61 34/61/62 8/62/63
f 8/62/63 34/61/62 33/63/64
f 8/62/63 33/63/64 32/64/65
f 8/62/63 32/64/65 9/65/66
f 9/65/66 32/64/65 31/66/67
f 9/65/66 31/66/67 10/67/68
f 10/67/68 31/66/67 30/68/69
f 10/67/68 30/68/69 29/69/70
f 10/67/68 29/69/70 11/70/71
f 11/70/71 29/69/70 26/71/72
f 11/70/71 26/71/72 12/72/73
f 12/72/73 26/71/72 25/73/74
f 12/72/73 25/73/74 13/74/75
f 13/74/75 25/73/74 23/75/76
f 4/76/77 3/77/78 37/78/79
f 37/78/79 3/77/78 22/79/80
f 37/78/79 22/79/80 38/80/81
f 38/80/81 22/79/80 21/81/82
f 38/80/81 21/81/82 20/82/83
f 38/80/81 20/82/83 39/83/84
f 39/83/84 20/82/83 19/84/85
f 39/83/84 19/84/85 40/85/86
f 40/85/86 19/84/85 41/86/87
f 41/86/87 19/84/85 18/87/88
f 41/86/87 18/87/88 42/88/89
f 42/88/89 18/87/88 17/89/90
f 42/88/89 17/89/90 43/90/91
f 43/90/91 17/89/90 44/91/92
f 44/91/92 17/89/90 16/92/93
f 44/91/92 16/92/93 27/93/94
f 27/93/94 16/92/93 15/94/95
f 27/93/94 15/94/95 28/95/96
f 28/95/96 15/94/95 14/96/97
f 28/95/96 14/96/97 24/97/98
# 44 vertices
# 97 texture params
# 98 normals
# 84 facets

# 1 groups
