# WaveFront *.obj file (generated by Autodesk ATF)

mtllib hambot_Pillars & Battery v1_Adafruit 0.91in 128x32 OLED STEMMA QT v1_1_qwicc v1_1_Body1.mtl

g Body1

v -0.020439 -0.050507 0.077150
v -0.020439 -0.050507 0.077800
v -0.020439 -0.050307 0.077800
v -0.020439 -0.050307 0.077150
v -0.020039 -0.050507 0.077150
v -0.020039 -0.050307 0.077150
v -0.019939 -0.050507 0.077250
v -0.019939 -0.050307 0.077250
v -0.019939 -0.050507 0.077400
v -0.019939 -0.050307 0.077400
v -0.019989 -0.050507 0.077400
v -0.019989 -0.050307 0.077400
v -0.020039 -0.050507 0.077450
v -0.020033 -0.050507 0.077425
v -0.020014 -0.050507 0.077407
v -0.020014 -0.050307 0.077407
v -0.020033 -0.050307 0.077425
v -0.020039 -0.050307 0.077450
v -0.020039 -0.050507 0.077563
v -0.020039 -0.050307 0.077563
v -0.020014 -0.050507 0.077607
v -0.020028 -0.050507 0.077596
v -0.020036 -0.050507 0.077580
v -0.020036 -0.050307 0.077580
v -0.020028 -0.050307 0.077596
v -0.020014 -0.050307 0.077607
v -0.019989 -0.050507 0.077650
v -0.019992 -0.050507 0.077633
v -0.020001 -0.050507 0.077618
v -0.020001 -0.050307 0.077618
v -0.019992 -0.050307 0.077633
v -0.019989 -0.050307 0.077650
v -0.019989 -0.050507 0.077750
v -0.019989 -0.050307 0.077750
v -0.020014 -0.050507 0.077793
v -0.020001 -0.050507 0.077782
v -0.019992 -0.050507 0.077767
v -0.019992 -0.050307 0.077767
v -0.020001 -0.050307 0.077782
v -0.020014 -0.050307 0.077793
v -0.020039 -0.050507 0.077837
v -0.020036 -0.050507 0.077820
v -0.020028 -0.050507 0.077804
v -0.020028 -0.050307 0.077804
v -0.020036 -0.050307 0.077820
v -0.020039 -0.050307 0.077837
v -0.020039 -0.050507 0.077950
v -0.020039 -0.050307 0.077950
v -0.019989 -0.050507 0.078000
v -0.020014 -0.050507 0.077993
v -0.020033 -0.050507 0.077975
v -0.020033 -0.050307 0.077975
v -0.020014 -0.050307 0.077993
v -0.019989 -0.050307 0.078000
v -0.019939 -0.050507 0.078000
v -0.019939 -0.050307 0.078000
v -0.019939 -0.050507 0.078235
v -0.019939 -0.050307 0.078235
v -0.020075 -0.050507 0.078371
v -0.020075 -0.050307 0.078371
v -0.020146 -0.050507 0.078400
v -0.020120 -0.050507 0.078397
v -0.020096 -0.050507 0.078387
v -0.020096 -0.050307 0.078387
v -0.020120 -0.050307 0.078397
v -0.020146 -0.050307 0.078400
v -0.021233 -0.050507 0.078400
v -0.021233 -0.050307 0.078400
v -0.021304 -0.050507 0.078371
v -0.021283 -0.050507 0.078387
v -0.021259 -0.050507 0.078397
v -0.021259 -0.050307 0.078397
v -0.021283 -0.050307 0.078387
v -0.021304 -0.050307 0.078371
v -0.021439 -0.050507 0.078235
v -0.021439 -0.050307 0.078235
v -0.021439 -0.050507 0.077800
v -0.021439 -0.050307 0.077800
vt 0.020000 0.000000 0.000000
vt -0.000000 0.000000 0.000000
vt 0.020000 -0.065000 0.000000
vt -0.000000 -0.065000 0.000000
vt 0.040000 0.020000 0.000000
vt -0.000000 0.020000 0.000000
vt 0.040000 0.000000 0.000000
vt -0.000000 0.000000 0.000000
vt 0.014142 0.020000 0.000000
vt 0.000000 0.020000 0.000000
vt 0.014142 0.000000 0.000000
vt -0.000000 0.000000 0.000000
vt -0.020000 0.000000 0.000000
vt -0.000000 0.000000 0.000000
vt -0.020000 0.015000 0.000000
vt -0.000000 0.015000 0.000000
vt 0.005000 0.020000 0.000000
vt -0.000000 0.020000 0.000000
vt 0.005000 0.000000 0.000000
vt -0.000000 0.000000 0.000000
vt -0.000000 -0.015708 0.000000
vt 0.020000 -0.015708 0.000000
vt 0.000000 -0.013090 0.000000
vt 0.020000 -0.013090 0.000000
vt -0.000000 -0.010472 0.000000
vt 0.020000 -0.010472 0.000000
vt 0.000000 -0.007854 0.000000
vt 0.020000 -0.007854 0.000000
vt -0.020000 0.000000 0.000000
vt -0.000000 0.000000 0.000000
vt -0.020000 0.011340 0.000000
vt -0.000000 0.011340 0.000000
vt -0.000000 0.010472 0.000000
vt 0.020000 0.010472 0.000000
vt -0.000000 0.012217 0.000000
vt 0.020000 0.012217 0.000000
vt 0.020000 0.013963 0.000000
vt 0.020000 0.015708 0.000000
vt -0.000000 0.015708 0.000000
vt 0.000000 0.013963 0.000000
vt -0.000000 0.000000 0.000000
vt -0.020000 0.000000 0.000000
vt 0.000000 -0.001745 0.000000
vt -0.020000 -0.001745 0.000000
vt -0.020000 -0.003491 0.000000
vt -0.020000 -0.005236 0.000000
vt -0.000000 -0.005236 0.000000
vt -0.000000 -0.003491 0.000000
vt -0.020000 0.000000 0.000000
vt -0.000000 0.000000 0.000000
vt -0.020000 0.010000 0.000000
vt -0.000000 0.010000 0.000000
vt -0.000000 0.005236 0.000000
vt -0.020000 0.005236 0.000000
vt -0.000000 0.003491 0.000000
vt -0.020000 0.003491 0.000000
vt -0.020000 0.001745 0.000000
vt -0.020000 0.000000 0.000000
vt -0.000000 0.000000 0.000000
vt 0.000000 0.001745 0.000000
vt -0.000000 -0.015708 0.000000
vt 0.020000 -0.015708 0.000000
vt 0.000000 -0.013963 0.000000
vt 0.020000 -0.013963 0.000000
vt 0.020000 -0.012217 0.000000
vt 0.020000 -0.010472 0.000000
vt -0.000000 -0.010472 0.000000
vt -0.000000 -0.012217 0.000000
vt -0.020000 -0.011340 0.000000
vt -0.000000 -0.011340 0.000000
vt -0.020000 0.000000 0.000000
vt -0.000000 0.000000 0.000000
vt 0.000000 0.007854 0.000000
vt 0.020000 0.007854 0.000000
vt -0.000000 0.010472 0.000000
vt 0.020000 0.010472 0.000000
vt 0.000000 0.013090 0.000000
vt 0.020000 0.013090 0.000000
vt -0.000000 0.015708 0.000000
vt 0.020000 0.015708 0.000000
vt -0.000000 0.020000 0.000000
vt -0.005000 0.020000 0.000000
vt -0.000000 0.000000 0.000000
vt -0.005000 0.000000 0.000000
vt -0.020000 0.000000 0.000000
vt -0.000000 0.000000 0.000000
vt -0.020000 0.023500 0.000000
vt -0.000000 0.023500 0.000000
vt 0.019192 0.020000 0.000000
vt -0.000000 0.020000 0.000000
vt 0.019192 0.000000 0.000000
vt -0.000000 0.000000 0.000000
vt -0.000000 0.015708 0.000000
vt -0.020000 0.015708 0.000000
vt -0.000000 0.013090 0.000000
vt -0.020000 0.013090 0.000000
vt -0.020000 0.010472 0.000000
vt -0.020000 0.007854 0.000000
vt -0.000000 0.007854 0.000000
vt 0.000000 0.010472 0.000000
vt 0.108716 0.020000 0.000000
vt 0.000000 0.020000 0.000000
vt 0.108716 0.000000 0.000000
vt 0.000000 0.000000 0.000000
vt 0.000000 0.023562 0.000000
vt -0.020000 0.023562 0.000000
vt -0.000000 0.020944 0.000000
vt -0.020000 0.020944 0.000000
vt -0.020000 0.018326 0.000000
vt -0.020000 0.015708 0.000000
vt -0.000000 0.015708 0.000000
vt 0.000000 0.018326 0.000000
vt 0.019192 0.020000 0.000000
vt -0.000000 0.020000 0.000000
vt 0.019192 -0.000000 0.000000
vt -0.000000 0.000000 0.000000
vt 0.020000 -0.000000 0.000000
vt -0.000000 0.000000 0.000000
vt 0.020000 -0.043500 0.000000
vt 0.000000 -0.043500 0.000000
vt 0.100000 0.020000 0.000000
vt -0.000000 0.020000 0.000000
vt 0.100000 -0.000000 0.000000
vt -0.000000 0.000000 0.000000
vt 0.045000 0.035000 0.000000
vt 0.005000 0.000000 0.000000
vt 0.045000 -0.030000 0.000000
vt 0.004330 -0.002500 0.000000
vt 0.005000 -0.030000 0.000000
vt 0.002500 -0.004330 0.000000
vt -0.005000 -0.020000 0.000000
vt -0.000000 -0.005000 0.000000
vt -0.005000 -0.005000 0.000000
vt 0.145000 0.035000 0.000000
vt 0.145000 0.078500 0.000000
vt 0.124358 0.095000 0.000000
vt 0.015642 0.095000 0.000000
vt 0.131429 0.092071 0.000000
vt 0.129358 0.093660 0.000000
vt 0.126946 0.094659 0.000000
vt 0.013054 0.094659 0.000000
vt 0.010642 0.093660 0.000000
vt 0.008571 0.092071 0.000000
vt 0.002500 0.054330 0.000000
vt -0.005000 0.078500 0.000000
vt -0.000000 0.055000 0.000000
vt -0.005000 0.055000 0.000000
vt 0.004330 0.052500 0.000000
vt 0.005000 0.050000 0.000000
vt 0.005000 0.038660 0.000000
vt 0.004698 0.036950 0.000000
vt 0.003830 0.035446 0.000000
vt 0.003830 0.014554 0.000000
vt 0.004698 0.013050 0.000000
vt 0.002500 0.034330 0.000000
vt -0.000000 0.030000 0.000000
vt -0.000000 0.020000 0.000000
vt 0.002500 0.015670 0.000000
vt 0.000302 0.018290 0.000000
vt 0.001170 0.016786 0.000000
vt 0.001170 0.033214 0.000000
vt 0.000302 0.031710 0.000000
vt 0.005000 0.011340 0.000000
vt -0.045000 -0.030000 0.000000
vt -0.005000 0.000000 0.000000
vt -0.045000 0.035000 0.000000
vt -0.005000 0.011340 0.000000
vt -0.004698 0.013050 0.000000
vt -0.004330 -0.002500 0.000000
vt -0.005000 -0.030000 0.000000
vt -0.002500 -0.004330 0.000000
vt 0.005000 -0.020000 0.000000
vt 0.000000 -0.005000 0.000000
vt 0.005000 -0.005000 0.000000
vt -0.003830 0.014554 0.000000
vt -0.003830 0.035446 0.000000
vt -0.004698 0.036950 0.000000
vt 0.000000 0.020000 0.000000
vt -0.002500 0.015670 0.000000
vt -0.000302 0.018290 0.000000
vt -0.001170 0.016786 0.000000
vt 0.000000 0.030000 0.000000
vt -0.002500 0.034330 0.000000
vt -0.000302 0.031710 0.000000
vt -0.001170 0.033214 0.000000
vt -0.005000 0.038660 0.000000
vt -0.005000 0.050000 0.000000
vt -0.004330 0.052500 0.000000
vt -0.015642 0.095000 0.000000
vt -0.002500 0.054330 0.000000
vt -0.008571 0.092071 0.000000
vt 0.005000 0.078500 0.000000
vt 0.000000 0.055000 0.000000
vt 0.005000 0.055000 0.000000
vt -0.010642 0.093660 0.000000
vt -0.013054 0.094659 0.000000
vt -0.124358 0.095000 0.000000
vt -0.145000 0.078500 0.000000
vt -0.145000 0.035000 0.000000
vt -0.126946 0.094659 0.000000
vt -0.129358 0.093660 0.000000
vt -0.131429 0.092071 0.000000
vn -100.000000 -0.000000 -0.000000
vn -100.000000 -0.000000 -0.000000
vn -100.000000 -0.000000 -0.000000
vn -100.000000 -0.000000 -0.000000
vn 0.000000 -0.000000 -100.000000
vn 0.000000 -0.000000 -100.000000
vn 0.000000 -0.000000 -100.000000
vn 0.000000 -0.000000 -100.000000
vn 70.710678 0.000000 -70.710678
vn 70.710678 0.000000 -70.710678
vn 70.710678 0.000000 -70.710678
vn 70.710678 0.000000 -70.710678
vn 100.000000 0.000000 0.000000
vn 100.000000 0.000000 0.000000
vn 100.000000 0.000000 0.000000
vn 100.000000 0.000000 0.000000
vn -0.000000 0.000000 100.000000
vn -0.000000 0.000000 100.000000
vn -0.000000 0.000000 100.000000
vn -0.000000 0.000000 100.000000
vn 100.000000 0.000000 0.000000
vn 100.000000 0.000000 0.000000
vn 86.602540 0.000000 50.000000
vn 86.602540 0.000000 50.000000
vn 50.000000 0.000000 86.602540
vn 50.000000 0.000000 86.602540
vn 100.000000 0.000000 0.000000
vn 100.000000 0.000000 0.000000
vn 50.000000 0.000000 -86.602540
vn 50.000000 0.000000 -86.602540
vn 76.604444 0.000000 -64.278761
vn 76.604444 0.000000 -64.278761
vn 93.969262 0.000000 -34.202014
vn 93.969262 0.000000 -34.202014
vn 100.000000 0.000000 0.000000
vn 100.000000 0.000000 0.000000
vn 93.969262 0.000000 -34.202014
vn 93.969262 0.000000 -34.202014
vn 76.604444 0.000000 -64.278761
vn 76.604444 0.000000 -64.278761
vn 100.000000 0.000000 0.000000
vn 100.000000 0.000000 0.000000
vn 50.000000 0.000000 86.602540
vn 50.000000 0.000000 86.602540
vn 76.604444 0.000000 64.278761
vn 76.604444 0.000000 64.278761
vn 93.969262 0.000000 34.202014
vn 93.969262 0.000000 34.202014
vn 100.000000 0.000000 0.000000
vn 100.000000 0.000000 0.000000
vn 93.969262 0.000000 34.202014
vn 93.969262 0.000000 34.202014
vn 76.604444 0.000000 64.278761
vn 76.604444 0.000000 64.278761
vn 100.000000 0.000000 0.000000
vn 100.000000 0.000000 0.000000
vn 0.000000 -0.000000 -100.000000
vn 0.000000 -0.000000 -100.000000
vn 50.000000 0.000000 -86.602540
vn 50.000000 0.000000 -86.602540
vn 86.602540 0.000000 -50.000000
vn 86.602540 0.000000 -50.000000
vn 0.000000 -0.000000 -100.000000
vn 0.000000 -0.000000 -100.000000
vn 100.000000 0.000000 0.000000
vn 100.000000 0.000000 0.000000
vn 100.000000 0.000000 0.000000
vn 100.000000 0.000000 0.000000
vn 70.710678 0.000000 70.710678
vn 70.710678 0.000000 70.710678
vn 70.710678 0.000000 70.710678
vn 70.710678 0.000000 70.710678
vn -0.000000 0.000000 100.000000
vn -0.000000 0.000000 100.000000
vn 25.881905 0.000000 96.592583
vn 25.881905 0.000000 96.592583
vn 50.000000 0.000000 86.602540
vn 50.000000 0.000000 86.602540
vn -0.000000 0.000000 100.000000
vn -0.000000 0.000000 100.000000
vn -70.710678 -0.000000 70.710678
vn -70.710678 -0.000000 70.710678
vn -50.000000 -0.000000 86.602540
vn -50.000000 -0.000000 86.602540
vn -25.881905 -0.000000 96.592583
vn -25.881905 -0.000000 96.592583
vn -70.710678 -0.000000 70.710678
vn -70.710678 -0.000000 70.710678
vn -100.000000 -0.000000 -0.000000
vn -100.000000 -0.000000 -0.000000
vn -100.000000 -0.000000 -0.000000
vn -100.000000 -0.000000 -0.000000
vn 0.000000 -0.000000 -100.000000
vn 0.000000 -0.000000 -100.000000
vn 0.000000 -0.000000 -100.000000
vn 0.000000 -0.000000 -100.000000
vn -0.000000 100.000000 -0.000000
vn -0.000000 100.000000 -0.000000
vn -0.000000 100.000000 -0.000000
vn -0.000000 100.000000 -0.000000
vn -0.000000 100.000000 -0.000000
vn -0.000000 100.000000 -0.000000
vn -0.000000 100.000000 -0.000000
vn -0.000000 100.000000 -0.000000
vn -0.000000 100.000000 -0.000000
vn -0.000000 100.000000 -0.000000
vn -0.000000 100.000000 -0.000000
vn -0.000000 100.000000 -0.000000
vn -0.000000 100.000000 -0.000000
vn -0.000000 100.000000 -0.000000
vn -0.000000 100.000000 -0.000000
vn -0.000000 100.000000 -0.000000
vn -0.000000 100.000000 -0.000000
vn -0.000000 100.000000 -0.000000
vn -0.000000 100.000000 -0.000000
vn -0.000000 100.000000 -0.000000
vn -0.000000 100.000000 -0.000000
vn -0.000000 100.000000 -0.000000
vn -0.000000 100.000000 -0.000000
vn -0.000000 100.000000 -0.000000
vn -0.000000 100.000000 -0.000000
vn -0.000000 100.000000 -0.000000
vn -0.000000 100.000000 -0.000000
vn -0.000000 100.000000 -0.000000
vn -0.000000 100.000000 -0.000000
vn -0.000000 100.000000 -0.000000
vn -0.000000 100.000000 -0.000000
vn -0.000000 100.000000 -0.000000
vn -0.000000 100.000000 -0.000000
vn -0.000000 100.000000 -0.000000
vn -0.000000 100.000000 -0.000000
vn -0.000000 100.000000 -0.000000
vn -0.000000 100.000000 -0.000000
vn -0.000000 100.000000 -0.000000
vn -0.000000 100.000000 -0.000000
vn 0.000000 -100.000000 0.000000
vn 0.000000 -100.000000 0.000000
vn 0.000000 -100.000000 0.000000
vn 0.000000 -100.000000 0.000000
vn 0.000000 -100.000000 0.000000
vn 0.000000 -100.000000 0.000000
vn 0.000000 -100.000000 0.000000
vn 0.000000 -100.000000 0.000000
vn 0.000000 -100.000000 0.000000
vn 0.000000 -100.000000 0.000000
vn 0.000000 -100.000000 0.000000
vn 0.000000 -100.000000 0.000000
vn 0.000000 -100.000000 0.000000
vn 0.000000 -100.000000 0.000000
vn 0.000000 -100.000000 0.000000
vn 0.000000 -100.000000 0.000000
vn 0.000000 -100.000000 0.000000
vn 0.000000 -100.000000 0.000000
vn 0.000000 -100.000000 0.000000
vn 0.000000 -100.000000 0.000000
vn 0.000000 -100.000000 0.000000
vn 0.000000 -100.000000 0.000000
vn 0.000000 -100.000000 0.000000
vn 0.000000 -100.000000 0.000000
vn 0.000000 -100.000000 0.000000
vn 0.000000 -100.000000 0.000000
vn 0.000000 -100.000000 0.000000
vn 0.000000 -100.000000 0.000000
vn 0.000000 -100.000000 0.000000
vn 0.000000 -100.000000 0.000000
vn 0.000000 -100.000000 0.000000
vn 0.000000 -100.000000 0.000000
vn 0.000000 -100.000000 0.000000
vn 0.000000 -100.000000 0.000000
vn 0.000000 -100.000000 0.000000
vn 0.000000 -100.000000 0.000000
vn 0.000000 -100.000000 0.000000
vn 0.000000 -100.000000 0.000000
vn 0.000000 -100.000000 0.000000
usemtl Opaque(245,245,246)
f 2/1/1 3/2/2 1/3/3
f 1/3/3 3/2/2 4/4/4
f 5/5/5 1/6/6 6/7/7
f 6/7/7 1/6/6 4/8/8
f 7/9/9 5/10/10 8/11/11
f 8/11/11 5/10/10 6/12/12
f 7/13/13 8/14/14 9/15/15
f 9/15/15 8/14/14 10/16/16
f 11/17/17 9/18/18 12/19/19
f 12/19/19 9/18/18 10/20/20
f 18/21/21 13/22/22 17/23/23
f 17/23/23 13/22/22 14/24/24
f 17/23/23 14/24/24 16/25/25
f 16/25/25 14/24/24 15/26/26
f 16/25/25 15/26/26 12/27/19
f 12/27/19 15/26/26 11/28/17
f 13/29/22 18/30/21 19/31/27
f 19/31/27 18/30/21 20/32/28
f 26/33/29 21/34/30 25/35/31
f 25/35/31 21/34/30 22/36/32
f 25/35/31 22/36/32 23/37/33
f 19/38/27 20/39/28 23/37/33
f 23/37/33 20/39/28 24/40/34
f 23/37/33 24/40/34 25/35/31
f 32/41/35 27/42/36 31/43/37
f 31/43/37 27/42/36 28/44/38
f 31/43/37 28/44/38 29/45/39
f 21/46/30 26/47/29 29/45/39
f 29/45/39 26/47/29 30/48/40
f 29/45/39 30/48/40 31/43/37
f 27/49/36 32/50/35 33/51/41
f 33/51/41 32/50/35 34/52/42
f 40/53/43 35/54/44 39/55/45
f 39/55/45 35/54/44 36/56/46
f 39/55/45 36/56/46 37/57/47
f 33/58/41 34/59/42 37/57/47
f 37/57/47 34/59/42 38/60/48
f 37/57/47 38/60/48 39/55/45
f 46/61/49 41/62/50 45/63/51
f 45/63/51 41/62/50 42/64/52
f 45/63/51 42/64/52 43/65/53
f 35/66/44 40/67/43 43/65/53
f 43/65/53 40/67/43 44/68/54
f 43/65/53 44/68/54 45/63/51
f 41/69/50 46/70/49 47/71/55
f 47/71/55 46/70/49 48/72/56
f 54/73/57 49/74/58 53/75/59
f 53/75/59 49/74/58 50/76/60
f 53/75/59 50/76/60 52/77/61
f 52/77/61 50/76/60 51/78/62
f 52/77/61 51/78/62 48/79/56
f 48/79/56 51/78/62 47/80/55
f 55/81/63 49/82/58 56/83/64
f 56/83/64 49/82/58 54/84/57
f 55/85/65 56/86/66 57/87/67
f 57/87/67 56/86/66 58/88/68
f 59/89/69 57/90/70 60/91/71
f 60/91/71 57/90/70 58/92/72
f 66/93/73 61/94/74 65/95/75
f 65/95/75 61/94/74 62/96/76
f 65/95/75 62/96/76 63/97/77
f 59/98/69 60/99/71 63/97/77
f 63/97/77 60/99/71 64/100/78
f 63/97/77 64/100/78 65/95/75
f 67/101/79 61/102/74 68/103/80
f 68/103/80 61/102/74 66/104/73
f 74/105/81 69/106/82 73/107/83
f 73/107/83 69/106/82 70/108/84
f 73/107/83 70/108/84 71/109/85
f 67/110/79 68/111/80 71/109/85
f 71/109/85 68/111/80 72/112/86
f 71/109/85 72/112/86 73/107/83
f 75/113/87 69/114/82 76/115/88
f 76/115/88 69/114/82 74/116/81
f 75/117/89 76/118/90 77/119/91
f 77/119/91 76/118/90 78/120/92
f 2/121/93 77/122/94 3/123/95
f 3/123/95 77/122/94 78/124/96
f 3/125/97 18/126/98 4/127/99
f 4/127/99 18/126/98 17/128/100
f 4/127/99 17/128/100 6/129/101
f 6/129/101 17/128/100 16/130/102
f 6/129/101 16/130/102 8/131/103
f 8/131/103 16/130/102 12/132/104
f 8/131/103 12/132/104 10/133/105
f 78/134/106 76/135/107 3/125/97
f 3/125/97 76/135/107 68/136/108
f 3/125/97 68/136/108 66/137/109
f 76/135/107 74/138/110 68/136/108
f 68/136/108 74/138/110 73/139/111
f 68/136/108 73/139/111 72/140/112
f 65/141/113 64/142/114 66/137/109
f 66/137/109 64/142/114 60/143/115
f 66/137/109 60/143/115 53/144/116
f 53/144/116 60/143/115 58/145/117
f 53/144/116 58/145/117 54/146/118
f 54/146/118 58/145/117 56/147/119
f 53/144/116 52/148/120 66/137/109
f 66/137/109 52/148/120 3/125/97
f 52/148/120 48/149/121 3/125/97
f 3/125/97 48/149/121 46/150/122
f 3/125/97 46/150/122 45/151/123
f 45/151/123 44/152/124 3/125/97
f 3/125/97 44/152/124 25/153/125
f 3/125/97 25/153/125 24/154/126
f 40/155/127 34/156/128 44/152/124
f 44/152/124 34/156/128 32/157/129
f 44/152/124 32/157/129 25/153/125
f 25/153/125 32/157/129 26/158/130
f 26/158/130 32/157/129 31/159/131
f 26/158/130 31/159/131 30/160/132
f 39/161/133 38/162/134 40/155/127
f 40/155/127 38/162/134 34/156/128
f 24/154/126 20/163/135 3/125/97
f 3/125/97 20/163/135 18/126/98
f 1/164/136 13/165/137 2/166/138
f 2/166/138 13/165/137 19/167/139
f 2/166/138 19/167/139 23/168/140
f 13/165/137 1/164/136 14/169/141
f 14/169/141 1/164/136 5/170/142
f 14/169/141 5/170/142 15/171/143
f 15/171/143 5/170/142 7/172/144
f 15/171/143 7/172/144 11/173/145
f 11/173/145 7/172/144 9/174/146
f 23/168/140 22/175/147 2/166/138
f 2/166/138 22/175/147 43/176/148
f 2/166/138 43/176/148 42/177/149
f 43/176/148 22/175/147 27/178/150
f 27/178/150 22/175/147 21/179/151
f 27/178/150 21/179/151 28/180/152
f 28/180/152 21/179/151 29/181/153
f 27/178/150 33/182/154 43/176/148
f 43/176/148 33/182/154 35/183/155
f 35/183/155 33/182/154 37/184/156
f 35/183/155 37/184/156 36/185/157
f 42/177/149 41/186/158 2/166/138
f 2/166/138 41/186/158 47/187/159
f 2/166/138 47/187/159 51/188/160
f 2/166/138 51/188/160 61/189/161
f 61/189/161 51/188/160 50/190/162
f 61/189/161 50/190/162 59/191/163
f 59/191/163 50/190/162 57/192/164
f 57/192/164 50/190/162 49/193/165
f 57/192/164 49/193/165 55/194/166
f 59/191/163 63/195/167 61/189/161
f 61/189/161 63/195/167 62/196/168
f 61/189/161 67/197/169 2/166/138
f 2/166/138 67/197/169 75/198/170
f 2/166/138 75/198/170 77/199/171
f 71/200/172 70/201/173 67/197/169
f 67/197/169 70/201/173 69/202/174
f 67/197/169 69/202/174 75/198/170
# 78 vertices
# 202 texture params
# 174 normals
# 152 facets

# 1 groups
