# WaveFront *.obj file (generated by Autodesk ATF)

mtllib hambot_Pillars & Battery v1_Adafruit 0.91in 128x32 OLED STEMMA QT v1_1_LED 0603 single color v1_1_Body2.mtl

g Body2

v -0.022091 -0.048209 0.078100
v -0.022091 -0.048012 0.078100
v -0.022091 -0.048012 0.078392
v -0.022091 -0.048209 0.078392
v -0.022097 -0.048774 0.078094
v -0.022097 -0.048774 0.078399
v -0.022097 -0.048571 0.078399
v -0.022097 -0.048571 0.078094
v -0.022097 -0.048215 0.078094
v -0.022097 -0.048215 0.078399
v -0.022097 -0.048012 0.078399
v -0.022097 -0.048012 0.078094
v -0.022091 -0.048571 0.078399
v -0.022091 -0.048571 0.078094
v -0.022091 -0.048215 0.078094
v -0.022002 -0.048239 0.078094
v -0.021937 -0.048304 0.078094
v -0.021913 -0.048393 0.078094
v -0.021937 -0.048482 0.078094
v -0.022002 -0.048547 0.078094
v -0.022002 -0.048547 0.078399
v -0.021937 -0.048482 0.078399
v -0.021913 -0.048393 0.078399
v -0.021937 -0.048304 0.078399
v -0.022002 -0.048239 0.078399
v -0.022091 -0.048215 0.078399
v -0.021653 -0.048774 0.078399
v -0.021653 -0.048012 0.078399
v -0.021843 -0.048012 0.078094
v -0.021843 -0.048774 0.078094
v -0.022091 -0.048577 0.078392
v -0.022091 -0.048774 0.078392
v -0.022091 -0.048774 0.078100
v -0.022091 -0.048577 0.078100
v -0.022011 -0.048559 0.078392
v -0.021947 -0.048508 0.078392
v -0.021911 -0.048434 0.078392
v -0.021911 -0.048352 0.078392
v -0.021947 -0.048278 0.078392
v -0.022011 -0.048227 0.078392
v -0.021653 -0.048012 0.078392
v -0.021653 -0.048774 0.078392
v -0.022011 -0.048559 0.078100
v -0.021947 -0.048508 0.078100
v -0.021911 -0.048434 0.078100
v -0.021911 -0.048352 0.078100
v -0.021947 -0.048278 0.078100
v -0.022011 -0.048227 0.078100
v -0.021843 -0.048774 0.078100
v -0.021843 -0.048012 0.078100
vt -0.001245 -0.001524 0.000000
vt -0.030455 -0.001524 0.000000
vt -0.001245 -0.021209 0.000000
vt -0.030455 -0.021209 0.000000
vt 0.000610 -0.077724 0.000000
vt 0.031090 -0.077724 0.000000
vt 0.000610 -0.057404 0.000000
vt 0.031090 -0.057404 0.000000
vt 0.000610 -0.021844 0.000000
vt 0.031090 -0.021844 0.000000
vt 0.000610 -0.001524 0.000000
vt 0.031090 -0.001524 0.000000
vt 0.000928 -0.000610 0.000000
vt 0.000293 -0.000610 0.000000
vt 0.000928 -0.031090 0.000000
vt 0.000293 -0.031090 0.000000
vt -0.015240 0.001117 0.000000
vt 0.015240 0.001117 0.000000
vt -0.015240 0.010427 0.000000
vt 0.015240 0.010427 0.000000
vt -0.015240 0.019736 0.000000
vt 0.015240 0.019736 0.000000
vt -0.015240 0.029046 0.000000
vt 0.015240 0.029046 0.000000
vt -0.015240 0.038355 0.000000
vt 0.015240 0.038355 0.000000
vt -0.015240 0.047665 0.000000
vt 0.015240 0.047665 0.000000
vt -0.015240 0.056975 0.000000
vt 0.015240 0.056975 0.000000
vt 0.000928 -0.000610 0.000000
vt 0.000293 -0.000610 0.000000
vt 0.000928 -0.031090 0.000000
vt 0.000293 -0.031090 0.000000
vt 0.021844 0.000889 0.000000
vt 0.021844 0.001524 0.000000
vt 0.001524 0.000889 0.000000
vt 0.024226 0.010414 0.000000
vt 0.001524 0.045339 0.000000
vt 0.030734 0.016922 0.000000
vt 0.039624 0.019304 0.000000
vt 0.077724 0.045339 0.000000
vt 0.048514 0.016922 0.000000
vt 0.055022 0.010414 0.000000
vt 0.077724 0.000889 0.000000
vt 0.057404 0.001524 0.000000
vt 0.057404 0.000889 0.000000
vt -0.001524 -0.000508 0.000000
vt -0.024226 -0.016383 0.000000
vt -0.001524 -0.025908 0.000000
vt -0.021844 -0.025273 0.000000
vt -0.021844 -0.025908 0.000000
vt -0.077724 -0.000508 0.000000
vt -0.039624 -0.007493 0.000000
vt -0.030734 -0.009875 0.000000
vt -0.077724 -0.025908 0.000000
vt -0.055022 -0.016383 0.000000
vt -0.048514 -0.009875 0.000000
vt -0.057404 -0.025908 0.000000
vt -0.057404 -0.025273 0.000000
vt -0.030455 -0.077724 0.000000
vt -0.001245 -0.077724 0.000000
vt -0.030455 -0.058039 0.000000
vt -0.001245 -0.058039 0.000000
vt -0.058039 0.001524 0.000000
vt -0.056219 0.009513 0.000000
vt -0.077724 0.001524 0.000000
vt -0.051109 0.015920 0.000000
vt -0.077724 0.045339 0.000000
vt -0.043723 0.019476 0.000000
vt -0.035525 0.019476 0.000000
vt -0.001524 0.045339 0.000000
vt -0.028139 0.015920 0.000000
vt -0.001524 0.001524 0.000000
vt -0.023029 0.009513 0.000000
vt -0.021209 0.001524 0.000000
vt -0.052082 0.029210 0.000000
vt -0.059770 0.029210 0.000000
vt -0.052082 0.000000 0.000000
vt -0.059770 0.000000 0.000000
vt -0.066883 0.029210 0.000000
vt -0.066883 0.000000 0.000000
vt -0.074179 0.029210 0.000000
vt -0.074179 0.000000 0.000000
vt -0.082114 0.029210 0.000000
vt -0.082114 0.000000 0.000000
vt -0.089411 0.029210 0.000000
vt -0.089411 0.000000 0.000000
vt -0.096523 0.029210 0.000000
vt -0.096523 0.000000 0.000000
vt -0.104209 0.029210 0.000000
vt -0.104209 0.000000 0.000000
vt 0.058039 -0.025273 0.000000
vt 0.077724 -0.025273 0.000000
vt 0.056219 -0.017284 0.000000
vt 0.077724 -0.000508 0.000000
vt 0.051109 -0.010877 0.000000
vt 0.043723 -0.007321 0.000000
vt 0.035525 -0.007321 0.000000
vt 0.001524 -0.000508 0.000000
vt 0.028139 -0.010877 0.000000
vt 0.023029 -0.017284 0.000000
vt 0.001524 -0.025273 0.000000
vt 0.021209 -0.025273 0.000000
vt -0.001524 -0.030455 0.000000
vt -0.000889 -0.031090 0.000000
vt -0.001524 -0.001245 0.000000
vt -0.000889 -0.000610 0.000000
vt -0.045339 -0.000610 0.000000
vt -0.026289 -0.030455 0.000000
vt -0.026289 -0.031090 0.000000
vt -0.045339 -0.001245 0.000000
vt 0.045339 -0.001245 0.000000
vt 0.045339 -0.000610 0.000000
vt 0.001524 -0.001245 0.000000
vt 0.000889 -0.000610 0.000000
vt 0.000889 -0.031090 0.000000
vt 0.001524 -0.030455 0.000000
vt 0.026289 -0.031090 0.000000
vt 0.026289 -0.030455 0.000000
vt 0.000293 -0.077724 0.000000
vt 0.000928 -0.077724 0.000000
vt 0.000293 -0.001524 0.000000
vt 0.000928 -0.001524 0.000000
vt 0.000928 -0.001524 0.000000
vt 0.000293 -0.001524 0.000000
vt 0.000928 -0.077724 0.000000
vt 0.000293 -0.077724 0.000000
vn 100.000000 -0.000000 0.000000
vn 100.000000 -0.000000 0.000000
vn 100.000000 -0.000000 0.000000
vn 100.000000 -0.000000 0.000000
vn -100.000000 0.000000 -0.000000
vn -100.000000 0.000000 -0.000000
vn -100.000000 0.000000 -0.000000
vn -100.000000 0.000000 -0.000000
vn -100.000000 0.000000 -0.000000
vn -100.000000 0.000000 -0.000000
vn -100.000000 0.000000 -0.000000
vn -100.000000 0.000000 -0.000000
vn 0.000000 100.000000 0.000000
vn 0.000000 100.000000 0.000000
vn 0.000000 100.000000 0.000000
vn 0.000000 100.000000 0.000000
vn -0.000000 -100.000000 -0.000000
vn -0.000000 -100.000000 -0.000000
vn -50.000000 -86.602540 -0.000000
vn -50.000000 -86.602540 -0.000000
vn -86.602540 -50.000000 -0.000000
vn -86.602540 -50.000000 -0.000000
vn -100.000000 -0.000000 -0.000000
vn -100.000000 -0.000000 -0.000000
vn -86.602540 50.000000 -0.000000
vn -86.602540 50.000000 -0.000000
vn -50.000000 86.602540 -0.000000
vn -50.000000 86.602540 -0.000000
vn -0.000000 -100.000000 -0.000000
vn -0.000000 -100.000000 -0.000000
vn -0.000000 -0.000000 100.000000
vn -0.000000 -0.000000 100.000000
vn -0.000000 -0.000000 100.000000
vn -0.000000 -0.000000 100.000000
vn -0.000000 -0.000000 100.000000
vn -0.000000 -0.000000 100.000000
vn -0.000000 -0.000000 100.000000
vn -0.000000 -0.000000 100.000000
vn -0.000000 -0.000000 100.000000
vn -0.000000 -0.000000 100.000000
vn -0.000000 -0.000000 100.000000
vn -0.000000 -0.000000 100.000000
vn -0.000000 -0.000000 100.000000
vn 0.000000 0.000000 -100.000000
vn 0.000000 0.000000 -100.000000
vn 0.000000 0.000000 -100.000000
vn 0.000000 0.000000 -100.000000
vn 0.000000 0.000000 -100.000000
vn 0.000000 0.000000 -100.000000
vn 0.000000 0.000000 -100.000000
vn 0.000000 0.000000 -100.000000
vn 0.000000 0.000000 -100.000000
vn 0.000000 0.000000 -100.000000
vn 0.000000 0.000000 -100.000000
vn 0.000000 0.000000 -100.000000
vn 0.000000 0.000000 -100.000000
vn 100.000000 -0.000000 0.000000
vn 100.000000 -0.000000 0.000000
vn 100.000000 -0.000000 0.000000
vn 100.000000 -0.000000 0.000000
vn 0.000000 0.000000 -100.000000
vn 0.000000 0.000000 -100.000000
vn 0.000000 0.000000 -100.000000
vn 0.000000 0.000000 -100.000000
vn 0.000000 0.000000 -100.000000
vn 0.000000 0.000000 -100.000000
vn 0.000000 0.000000 -100.000000
vn 0.000000 0.000000 -100.000000
vn 0.000000 0.000000 -100.000000
vn 0.000000 0.000000 -100.000000
vn 0.000000 0.000000 -100.000000
vn 0.000000 0.000000 -100.000000
vn -0.059376 -99.999982 -0.000000
vn 43.372623 -90.104470 0.000000
vn -0.059376 -99.999982 -0.000000
vn 43.372623 -90.104470 0.000000
vn 78.186664 -62.344571 0.000000
vn 78.186664 -62.344571 0.000000
vn 97.493982 -22.246877 0.000000
vn 97.493982 -22.246877 0.000000
vn 97.493982 22.246877 0.000000
vn 97.493982 22.246877 0.000000
vn 78.186664 62.344571 0.000000
vn 78.186664 62.344571 0.000000
vn 43.372623 90.104470 0.000000
vn 43.372623 90.104470 0.000000
vn -0.059376 99.999982 0.000000
vn -0.059376 99.999982 0.000000
vn -0.000000 -0.000000 100.000000
vn -0.000000 -0.000000 100.000000
vn -0.000000 -0.000000 100.000000
vn -0.000000 -0.000000 100.000000
vn -0.000000 -0.000000 100.000000
vn -0.000000 -0.000000 100.000000
vn -0.000000 -0.000000 100.000000
vn -0.000000 -0.000000 100.000000
vn -0.000000 -0.000000 100.000000
vn -0.000000 -0.000000 100.000000
vn -0.000000 -0.000000 100.000000
vn -0.000000 -0.000000 100.000000
vn 0.000000 100.000000 0.000000
vn 0.000000 100.000000 0.000000
vn 0.000000 100.000000 0.000000
vn 0.000000 100.000000 0.000000
vn 0.000000 100.000000 0.000000
vn 0.000000 100.000000 0.000000
vn 0.000000 100.000000 0.000000
vn 0.000000 100.000000 0.000000
vn -0.000000 -100.000000 -0.000000
vn -0.000000 -100.000000 -0.000000
vn -0.000000 -100.000000 -0.000000
vn -0.000000 -100.000000 -0.000000
vn -0.000000 -100.000000 -0.000000
vn -0.000000 -100.000000 -0.000000
vn -0.000000 -100.000000 -0.000000
vn -0.000000 -100.000000 -0.000000
vn 100.000000 -0.000000 0.000000
vn 100.000000 -0.000000 0.000000
vn 100.000000 -0.000000 0.000000
vn 100.000000 -0.000000 0.000000
vn 100.000000 -0.000000 0.000000
vn 100.000000 -0.000000 0.000000
vn 100.000000 -0.000000 0.000000
vn 100.000000 -0.000000 0.000000
usemtl Opaque(255,191,0)
f 2/1/1 3/2/2 1/3/3
f 1/3/3 3/2/2 4/4/4
f 5/5/5 6/6/6 8/7/7
f 8/7/7 6/6/6 7/8/8
f 9/9/9 10/10/10 12/11/11
f 12/11/11 10/10/10 11/12/12
f 7/13/13 13/14/14 8/15/15
f 8/15/15 13/14/14 14/16/16
f 26/17/17 15/18/18 25/19/19
f 25/19/19 15/18/18 16/20/20
f 25/19/19 16/20/20 24/21/21
f 24/21/21 16/20/20 17/22/22
f 24/21/21 17/22/22 23/23/23
f 23/23/23 17/22/22 18/24/24
f 23/23/23 18/24/24 22/25/25
f 22/25/25 18/24/24 19/26/26
f 22/25/25 19/26/26 21/27/27
f 21/27/27 19/26/26 20/28/28
f 21/27/27 20/28/28 13/29/14
f 13/29/14 20/28/28 14/30/16
f 26/31/17 10/32/29 15/33/18
f 15/33/18 10/32/29 9/34/30
f 10/35/31 26/36/32 11/37/33
f 11/37/33 26/36/32 25/38/34
f 11/37/33 25/38/34 28/39/35
f 28/39/35 25/38/34 24/40/36
f 28/39/35 24/40/36 23/41/37
f 28/39/35 23/41/37 27/42/38
f 27/42/38 23/41/37 22/43/39
f 27/42/38 22/43/39 21/44/40
f 27/42/38 21/44/40 6/45/41
f 6/45/41 21/44/40 13/46/42
f 6/45/41 13/46/42 7/47/43
f 29/48/44 16/49/45 12/50/46
f 12/50/46 16/49/45 15/51/47
f 12/50/46 15/51/47 9/52/48
f 30/53/49 18/54/50 29/48/44
f 29/48/44 18/54/50 17/55/51
f 29/48/44 17/55/51 16/49/45
f 5/56/52 20/57/53 30/53/49
f 30/53/49 20/57/53 19/58/54
f 30/53/49 19/58/54 18/54/50
f 8/59/55 14/60/56 5/56/52
f 5/56/52 14/60/56 20/57/53
f 32/61/57 33/62/58 31/63/59
f 31/63/59 33/62/58 34/64/60
f 31/65/61 35/66/62 32/67/63
f 32/67/63 35/66/62 36/68/64
f 32/67/63 36/68/64 42/69/65
f 42/69/65 36/68/64 37/70/66
f 42/69/65 37/70/66 38/71/67
f 42/69/65 38/71/67 41/72/68
f 41/72/68 38/71/67 39/73/69
f 41/72/68 39/73/69 3/74/70
f 3/74/70 39/73/69 40/75/71
f 3/74/70 40/75/71 4/76/72
f 34/77/73 43/78/74 31/79/75
f 31/79/75 43/78/74 35/80/76
f 35/80/76 43/78/74 44/81/77
f 35/80/76 44/81/77 36/82/78
f 36/82/78 44/81/77 45/83/79
f 36/82/78 45/83/79 37/84/80
f 37/84/80 45/83/79 46/85/81
f 37/84/80 46/85/81 38/86/82
f 38/86/82 46/85/81 47/87/83
f 38/86/82 47/87/83 39/88/84
f 39/88/84 47/87/83 48/89/85
f 39/88/84 48/89/85 40/90/86
f 40/90/86 48/89/85 1/91/87
f 40/90/86 1/91/87 4/92/88
f 34/93/89 33/94/90 43/95/91
f 43/95/91 33/94/90 49/96/92
f 43/95/91 49/96/92 44/97/93
f 44/97/93 49/96/92 45/98/94
f 45/98/94 49/96/92 46/99/95
f 46/99/95 49/96/92 50/100/96
f 46/99/95 50/100/96 47/101/97
f 47/101/97 50/100/96 48/102/98
f 48/102/98 50/100/96 2/103/99
f 48/102/98 2/103/99 1/104/100
f 2/105/101 12/106/102 3/107/103
f 3/107/103 12/106/102 11/108/104
f 3/107/103 11/108/104 28/109/105
f 50/110/106 29/111/107 2/105/101
f 2/105/101 29/111/107 12/106/102
f 28/109/105 41/112/108 3/107/103
f 42/113/109 27/114/110 32/115/111
f 32/115/111 27/114/110 6/116/112
f 32/115/111 6/116/112 5/117/113
f 32/115/111 5/117/113 33/118/114
f 33/118/114 5/117/113 30/119/115
f 33/118/114 30/119/115 49/120/116
f 49/121/117 30/122/118 50/123/119
f 50/123/119 30/122/118 29/124/120
f 41/125/121 28/126/122 42/127/123
f 42/127/123 28/126/122 27/128/124
# 50 vertices
# 128 texture params
# 124 normals
# 96 facets

# 1 groups
