# WaveFront *.obj file (generated by Autodesk ATF)

mtllib hambot_Pillars & Battery v1_Adafruit 0.91in 128x32 OLED STEMMA QT v1_1_SOD-323 v1_1_SOD-323_1_Cathode_1_Body1.mtl

g Body1

v -0.033681 -0.057840 0.078400
v -0.033681 -0.057840 0.078250
v -0.033681 -0.057190 0.078250
v -0.033681 -0.057190 0.078400
v -0.033881 -0.057840 0.078400
v -0.033881 -0.057190 0.078400
v -0.034081 -0.057840 0.077900
v -0.034081 -0.057840 0.078200
v -0.034081 -0.057190 0.078200
v -0.034081 -0.057190 0.077900
v -0.034131 -0.057190 0.077850
v -0.035081 -0.057190 0.077850
v -0.035081 -0.057840 0.077850
v -0.034131 -0.057840 0.077850
v -0.035081 -0.057840 0.077700
v -0.035081 -0.057190 0.077700
v -0.034131 -0.057840 0.077700
v -0.034131 -0.057190 0.077700
v -0.033931 -0.057840 0.078200
v -0.033931 -0.057840 0.077900
v -0.033931 -0.057190 0.077900
v -0.033931 -0.057190 0.078200
v -0.033881 -0.057190 0.078250
v -0.033881 -0.057840 0.078250
v -0.034106 -0.057190 0.077857
v -0.034088 -0.057190 0.077875
v -0.034054 -0.057190 0.078300
v -0.033981 -0.057190 0.078373
v -0.033906 -0.057190 0.078243
v -0.033925 -0.057190 0.078225
v -0.033958 -0.057190 0.077800
v -0.034031 -0.057190 0.077727
v -0.033981 -0.057840 0.078373
v -0.034054 -0.057840 0.078300
v -0.034088 -0.057840 0.077875
v -0.034106 -0.057840 0.077857
v -0.034031 -0.057840 0.077727
v -0.033958 -0.057840 0.077800
v -0.033925 -0.057840 0.078225
v -0.033906 -0.057840 0.078243
v -0.034088 -0.057515 0.077875
v -0.034106 -0.057515 0.077857
v -0.033925 -0.057515 0.078225
v -0.033906 -0.057515 0.078243
vt -0.007500 -0.065000 0.000000
vt 0.007500 -0.065000 0.000000
vt -0.007500 0.000000 0.000000
vt 0.007500 0.000000 0.000000
vt 0.000000 -0.065000 0.000000
vt 0.020000 -0.065000 0.000000
vt 0.000000 0.000000 0.000000
vt 0.020000 0.000000 0.000000
vt -0.022500 -0.065000 0.000000
vt 0.007500 -0.065000 0.000000
vt -0.022500 0.000000 0.000000
vt 0.007500 -0.000000 0.000000
vt 0.045000 0.000000 0.000000
vt -0.050000 -0.000000 0.000000
vt 0.045000 -0.065000 0.000000
vt -0.050000 -0.065000 0.000000
vt -0.007500 -0.065000 0.000000
vt 0.007500 -0.065000 0.000000
vt -0.007500 0.000000 0.000000
vt 0.007500 -0.000000 0.000000
vt -0.037500 -0.065000 0.000000
vt 0.057500 -0.065000 0.000000
vt -0.037500 0.000000 0.000000
vt 0.057500 0.000000 0.000000
vt -0.022500 -0.065000 0.000000
vt 0.007500 -0.065000 0.000000
vt -0.022500 0.000000 0.000000
vt 0.007500 0.000000 0.000000
vt 0.007500 0.000000 0.000000
vt -0.012500 0.000000 0.000000
vt 0.007500 -0.065000 0.000000
vt -0.012500 -0.065000 0.000000
vt -0.035000 -0.032321 0.000000
vt -0.025000 -0.035000 0.000000
vt -0.025000 -0.020000 0.000000
vt 0.070000 -0.035000 0.000000
vt 0.070000 -0.020000 0.000000
vt -0.042321 -0.025000 0.000000
vt -0.027500 -0.019330 0.000000
vt -0.029330 -0.017500 0.000000
vt -0.045000 -0.015000 0.000000
vt -0.030000 -0.015000 0.000000
vt -0.045000 0.015000 0.000000
vt -0.030000 0.015000 0.000000
vt -0.045670 0.017500 0.000000
vt -0.032679 0.025000 0.000000
vt -0.047500 0.019330 0.000000
vt -0.050000 0.020000 0.000000
vt -0.040000 0.032321 0.000000
vt -0.050000 0.035000 0.000000
vt -0.070000 0.035000 0.000000
vt -0.070000 0.020000 0.000000
vt 0.070000 0.020000 0.000000
vt 0.050000 0.035000 0.000000
vt 0.050000 0.020000 0.000000
vt 0.040000 0.032321 0.000000
vt 0.032679 0.025000 0.000000
vt 0.070000 0.035000 0.000000
vt 0.030000 0.015000 0.000000
vt 0.045670 0.017500 0.000000
vt 0.047500 0.019330 0.000000
vt 0.030000 -0.015000 0.000000
vt 0.045000 -0.015000 0.000000
vt 0.045000 0.015000 0.000000
vt 0.029330 -0.017500 0.000000
vt 0.042321 -0.025000 0.000000
vt 0.027500 -0.019330 0.000000
vt 0.025000 -0.020000 0.000000
vt -0.070000 -0.020000 0.000000
vt -0.070000 -0.035000 0.000000
vt 0.025000 -0.035000 0.000000
vt 0.035000 -0.032321 0.000000
vt -0.065000 0.000000 0.000000
vt -0.000000 0.000000 0.000000
vt -0.065000 0.010472 0.000000
vt -0.000000 0.010472 0.000000
vt -0.065000 0.020944 0.000000
vt -0.000000 0.020944 0.000000
vt -0.065000 0.031416 0.000000
vt -0.000000 0.031416 0.000000
vt -0.065000 -0.062832 0.000000
vt -0.000000 -0.062832 0.000000
vt -0.065000 -0.052360 0.000000
vt -0.000000 -0.052360 0.000000
vt -0.065000 -0.041888 0.000000
vt -0.000000 -0.041888 0.000000
vt -0.065000 -0.031416 0.000000
vt -0.000000 -0.031416 0.000000
vt -0.065000 0.007854 0.000000
vt 0.000000 0.007854 0.000000
vt -0.032500 0.010472 0.000000
vt 0.000000 0.010472 0.000000
vt -0.032500 0.013090 0.000000
vt 0.000000 0.013090 0.000000
vt 0.000000 0.015708 0.000000
vt -0.065000 0.015708 0.000000
vt -0.065000 0.013090 0.000000
vt -0.065000 0.010472 0.000000
vt -0.065000 -0.007854 0.000000
vt 0.000000 -0.007854 0.000000
vt -0.032500 -0.005236 0.000000
vt -0.000000 -0.005236 0.000000
vt -0.032500 -0.002618 0.000000
vt 0.000000 -0.002618 0.000000
vt 0.000000 0.000000 0.000000
vt -0.065000 0.000000 0.000000
vt -0.065000 -0.002618 0.000000
vt -0.065000 -0.005236 0.000000
vn 100.000000 -0.000000 0.000000
vn 100.000000 -0.000000 0.000000
vn 100.000000 -0.000000 0.000000
vn 100.000000 -0.000000 0.000000
vn -0.000000 0.000000 100.000000
vn -0.000000 0.000000 100.000000
vn -0.000000 0.000000 100.000000
vn -0.000000 0.000000 100.000000
vn -100.000000 0.000000 -0.000000
vn -100.000000 0.000000 -0.000000
vn -100.000000 0.000000 -0.000000
vn -100.000000 0.000000 -0.000000
vn -0.000000 0.000000 100.000000
vn -0.000000 0.000000 100.000000
vn -0.000000 0.000000 100.000000
vn -0.000000 0.000000 100.000000
vn -100.000000 0.000000 -0.000000
vn -100.000000 0.000000 -0.000000
vn -100.000000 0.000000 -0.000000
vn -100.000000 0.000000 -0.000000
vn 0.000000 -0.000000 -100.000000
vn 0.000000 -0.000000 -100.000000
vn 0.000000 -0.000000 -100.000000
vn 0.000000 -0.000000 -100.000000
vn 100.000000 -0.000000 0.000000
vn 100.000000 -0.000000 0.000000
vn 100.000000 -0.000000 0.000000
vn 100.000000 -0.000000 0.000000
vn 0.000000 -0.000000 -100.000000
vn 0.000000 -0.000000 -100.000000
vn 0.000000 -0.000000 -100.000000
vn 0.000000 -0.000000 -100.000000
vn 0.000000 100.000000 -0.000000
vn 0.000000 100.000000 -0.000000
vn 0.000000 100.000000 -0.000000
vn 0.000000 100.000000 -0.000000
vn 0.000000 100.000000 -0.000000
vn 0.000000 100.000000 -0.000000
vn 0.000000 100.000000 -0.000000
vn 0.000000 100.000000 -0.000000
vn 0.000000 100.000000 -0.000000
vn 0.000000 100.000000 -0.000000
vn 0.000000 100.000000 -0.000000
vn 0.000000 100.000000 -0.000000
vn 0.000000 100.000000 -0.000000
vn 0.000000 100.000000 -0.000000
vn 0.000000 100.000000 -0.000000
vn 0.000000 100.000000 -0.000000
vn 0.000000 100.000000 -0.000000
vn 0.000000 100.000000 -0.000000
vn 0.000000 100.000000 -0.000000
vn 0.000000 100.000000 -0.000000
vn -0.000000 -100.000000 0.000000
vn -0.000000 -100.000000 0.000000
vn -0.000000 -100.000000 0.000000
vn -0.000000 -100.000000 0.000000
vn -0.000000 -100.000000 0.000000
vn -0.000000 -100.000000 0.000000
vn -0.000000 -100.000000 0.000000
vn -0.000000 -100.000000 0.000000
vn -0.000000 -100.000000 0.000000
vn -0.000000 -100.000000 0.000000
vn -0.000000 -100.000000 0.000000
vn -0.000000 -100.000000 0.000000
vn -0.000000 -100.000000 0.000000
vn -0.000000 -100.000000 0.000000
vn -0.000000 -100.000000 0.000000
vn -0.000000 -100.000000 0.000000
vn -0.000000 -100.000000 0.000000
vn -0.000000 -100.000000 0.000000
vn -0.000000 -100.000000 0.000000
vn -0.000000 -100.000000 0.000000
vn 50.000000 -0.000000 -86.602540
vn 50.000000 -0.000000 -86.602540
vn 86.602540 -0.000000 -50.000000
vn 86.602540 -0.000000 -50.000000
vn -50.000000 0.000000 86.602540
vn -50.000000 0.000000 86.602540
vn -86.602540 0.000000 50.000000
vn -86.602540 0.000000 50.000000
vn -86.602540 0.000000 50.000000
vn -86.602540 0.000000 50.000000
vn -50.000000 0.000000 86.602540
vn -50.000000 0.000000 86.602540
vn -50.000000 0.000000 86.602540
vn -86.602540 0.000000 50.000000
vn 86.602540 -0.000000 -50.000000
vn 86.602540 -0.000000 -50.000000
vn 50.000000 -0.000000 -86.602540
vn 50.000000 -0.000000 -86.602540
vn 50.000000 -0.000000 -86.602540
vn 86.602540 -0.000000 -50.000000
usemtl Opaque(230,230,230)
f 1/1/1 2/2/2 4/3/3
f 4/3/3 2/2/2 3/4/4
f 5/5/5 1/6/6 6/7/7
f 6/7/7 1/6/6 4/8/8
f 7/9/9 8/10/10 10/11/11
f 10/11/11 8/10/10 9/12/12
f 11/13/13 12/14/14 14/15/15
f 14/15/15 12/14/14 13/16/16
f 15/17/17 13/18/18 16/19/19
f 16/19/19 13/18/18 12/20/20
f 17/21/21 15/22/22 18/23/23
f 18/23/23 15/22/22 16/24/24
f 19/25/25 20/26/26 22/27/27
f 22/27/27 20/26/26 21/28/28
f 23/29/29 3/30/30 24/31/31
f 24/31/31 3/30/30 2/32/32
f 32/33/33 18/34/34 11/35/35
f 11/35/35 18/34/34 16/36/36
f 11/35/35 16/36/36 12/37/37
f 32/33/33 11/35/35 31/38/38
f 31/38/38 11/35/35 25/39/39
f 31/38/38 25/39/39 26/40/40
f 31/38/38 26/40/40 21/41/41
f 21/41/41 26/40/40 10/42/42
f 21/41/41 10/42/42 22/43/43
f 22/43/43 10/42/42 9/44/44
f 22/43/43 9/44/44 30/45/45
f 30/45/45 9/44/44 27/46/46
f 30/45/45 27/46/46 29/47/47
f 29/47/47 27/46/46 23/48/48
f 23/48/48 27/46/46 28/49/49
f 23/48/48 28/49/49 6/50/50
f 4/51/51 3/52/52 6/50/50
f 6/50/50 3/52/52 23/48/48
f 2/53/53 5/54/54 24/55/55
f 24/55/55 5/54/54 33/56/56
f 24/55/55 33/56/56 34/57/57
f 2/53/53 1/58/58 5/54/54
f 8/59/59 39/60/60 34/57/57
f 34/57/57 39/60/60 40/61/61
f 34/57/57 40/61/61 24/55/55
f 7/62/62 20/63/63 8/59/59
f 8/59/59 20/63/63 19/64/64
f 8/59/59 19/64/64 39/60/60
f 7/62/62 35/65/65 20/63/63
f 20/63/63 35/65/65 38/66/66
f 38/66/66 35/65/65 36/67/67
f 38/66/66 36/67/67 14/68/68
f 13/69/69 15/70/70 14/68/68
f 14/68/68 15/70/70 17/71/71
f 14/68/68 17/71/71 37/72/72
f 37/72/72 38/66/66 14/68/68
f 17/73/21 18/74/23 37/75/73
f 37/75/73 18/74/23 32/76/74
f 37/75/73 32/76/74 38/77/75
f 38/77/75 32/76/74 31/78/76
f 38/77/75 31/78/76 20/79/26
f 20/79/26 31/78/76 21/80/28
f 5/81/5 6/82/7 33/83/77
f 33/83/77 6/82/7 28/84/78
f 33/83/77 28/84/78 34/85/79
f 34/85/79 28/84/78 27/86/80
f 34/85/79 27/86/80 8/87/10
f 8/87/10 27/86/80 9/88/12
f 7/89/9 10/90/11 41/91/81
f 41/91/81 10/90/11 26/92/82
f 41/91/81 26/92/82 42/93/83
f 42/93/83 26/92/82 25/94/84
f 42/93/83 25/94/84 11/95/13
f 11/95/13 14/96/15 42/93/83
f 42/93/83 14/96/15 36/97/85
f 42/93/83 36/97/85 41/91/81
f 41/91/81 36/97/85 35/98/86
f 41/91/81 35/98/86 7/89/9
f 19/99/25 22/100/27 43/101/87
f 43/101/87 22/100/27 30/102/88
f 43/101/87 30/102/88 44/103/89
f 44/103/89 30/102/88 29/104/90
f 44/103/89 29/104/90 23/105/29
f 23/105/29 24/106/31 44/103/89
f 44/103/89 24/106/31 40/107/91
f 44/103/89 40/107/91 43/101/87
f 43/101/87 40/107/91 39/108/92
f 43/101/87 39/108/92 19/99/25
# 44 vertices
# 108 texture params
# 92 normals
# 84 facets

# 1 groups
