# WaveFront *.obj file (generated by Autodesk ATF)

mtllib hambot_Pillars & Battery v1_Adafruit 0.91in 128x32 OLED STEMMA QT v1_1_RESC-0603 v1_1_Body2.mtl

g Body2

v -0.024784 -0.048854 0.077870
v -0.024784 -0.048854 0.077900
v -0.024959 -0.048854 0.077900
v -0.024969 -0.048854 0.077903
v -0.024976 -0.048854 0.077910
v -0.024979 -0.048854 0.077920
v -0.024979 -0.048854 0.078350
v -0.024976 -0.048854 0.078360
v -0.024969 -0.048854 0.078367
v -0.024959 -0.048854 0.078370
v -0.024709 -0.048854 0.078370
v -0.024709 -0.048854 0.078400
v -0.024959 -0.048854 0.078400
v -0.024984 -0.048854 0.078393
v -0.025002 -0.048854 0.078375
v -0.025009 -0.048854 0.078350
v -0.025009 -0.048854 0.077920
v -0.025002 -0.048854 0.077895
v -0.024984 -0.048854 0.077877
v -0.024959 -0.048854 0.077870
v -0.024784 -0.047954 0.077900
v -0.024784 -0.047954 0.077870
v -0.024959 -0.047954 0.077870
v -0.024984 -0.047954 0.077877
v -0.025002 -0.047954 0.077895
v -0.025009 -0.047954 0.077920
v -0.025009 -0.047954 0.078350
v -0.025002 -0.047954 0.078375
v -0.024984 -0.047954 0.078393
v -0.024959 -0.047954 0.078400
v -0.024709 -0.047954 0.078400
v -0.024709 -0.047954 0.078370
v -0.024959 -0.047954 0.078370
v -0.024969 -0.047954 0.078367
v -0.024976 -0.047954 0.078360
v -0.024979 -0.047954 0.078350
v -0.024979 -0.047954 0.077920
v -0.024976 -0.047954 0.077910
v -0.024969 -0.047954 0.077903
v -0.024959 -0.047954 0.077900
v -0.024609 -0.048051 0.077870
v -0.024609 -0.048051 0.077900
v -0.024609 -0.048756 0.077900
v -0.024609 -0.048756 0.077870
v -0.024784 -0.048051 0.077900
v -0.024784 -0.048756 0.077900
v -0.024784 -0.048051 0.077870
v -0.024784 -0.048756 0.077870
v -0.024976 -0.048629 0.077910
v -0.024976 -0.048404 0.077910
v -0.024976 -0.048179 0.077910
v -0.024969 -0.048629 0.077903
v -0.024969 -0.048404 0.077903
v -0.024969 -0.048179 0.077903
v -0.024969 -0.048629 0.078367
v -0.024969 -0.048404 0.078367
v -0.024969 -0.048179 0.078367
v -0.024976 -0.048629 0.078360
v -0.024976 -0.048404 0.078360
v -0.024976 -0.048179 0.078360
v -0.025002 -0.048404 0.078375
v -0.024984 -0.048404 0.078393
v -0.024984 -0.048404 0.077877
v -0.025002 -0.048404 0.077895
vt -0.062500 -0.050000 0.000000
vt -0.080000 -0.050000 0.000000
vt -0.062500 -0.053000 0.000000
vt -0.080000 -0.053000 0.000000
vt -0.081000 -0.049732 0.000000
vt -0.082500 -0.052330 0.000000
vt -0.081732 -0.049000 0.000000
vt -0.084330 -0.050500 0.000000
vt -0.082000 -0.048000 0.000000
vt -0.085000 -0.048000 0.000000
vt -0.085000 -0.005000 0.000000
vt -0.082000 -0.005000 0.000000
vt -0.084330 -0.002500 0.000000
vt -0.081732 -0.004000 0.000000
vt -0.082500 -0.000670 0.000000
vt -0.081000 -0.003268 0.000000
vt -0.080000 0.000000 0.000000
vt -0.080000 -0.003000 0.000000
vt -0.055000 -0.003000 0.000000
vt -0.055000 0.000000 0.000000
vt 0.062500 -0.050000 0.000000
vt 0.062500 -0.053000 0.000000
vt 0.080000 -0.050000 0.000000
vt 0.080000 -0.053000 0.000000
vt 0.081000 -0.049732 0.000000
vt 0.082500 -0.052330 0.000000
vt 0.081732 -0.049000 0.000000
vt 0.084330 -0.050500 0.000000
vt 0.082000 -0.048000 0.000000
vt 0.085000 -0.048000 0.000000
vt 0.082000 -0.005000 0.000000
vt 0.085000 -0.005000 0.000000
vt 0.084330 -0.002500 0.000000
vt 0.081732 -0.004000 0.000000
vt 0.082500 -0.000670 0.000000
vt 0.081000 -0.003268 0.000000
vt 0.080000 0.000000 0.000000
vt 0.080000 -0.003000 0.000000
vt 0.055000 -0.003000 0.000000
vt 0.055000 0.000000 0.000000
vt 0.003000 0.080250 0.000000
vt 0.000000 0.080250 0.000000
vt 0.003000 0.009750 0.000000
vt 0.000000 0.009750 0.000000
vt 0.035000 0.080250 0.000000
vt 0.017500 0.080250 0.000000
vt 0.035000 0.009750 0.000000
vt 0.017500 0.009750 0.000000
vt 0.000000 0.000000 0.000000
vt 0.017500 0.000000 0.000000
vt 0.017500 0.090000 0.000000
vt 0.000000 0.090000 0.000000
vt 0.000000 0.080250 0.000000
vt 0.017500 0.009750 0.000000
vt 0.017500 0.080250 0.000000
vt 0.035000 0.000000 0.000000
vt 0.035000 0.090000 0.000000
vt 0.000000 0.009750 0.000000
vt 0.017500 0.000000 0.000000
vt 0.017500 0.090000 0.000000
vt -0.000000 0.003000 0.000000
vt -0.017500 0.003000 0.000000
vt -0.000000 0.000000 0.000000
vt -0.017500 -0.000000 0.000000
vt -0.000000 0.003000 0.000000
vt -0.009750 0.003000 0.000000
vt -0.000000 0.000000 0.000000
vt -0.009750 0.000000 0.000000
vt -0.000000 0.003000 0.000000
vt -0.009750 0.003000 0.000000
vt -0.000000 0.000000 0.000000
vt -0.009750 0.000000 0.000000
vt -0.107500 0.003000 0.000000
vt -0.125000 0.003000 0.000000
vt -0.107500 0.000000 0.000000
vt -0.125000 0.000000 0.000000
vt 0.000000 0.001047 0.000000
vt -0.022500 0.001047 0.000000
vt 0.000000 0.000000 0.000000
vt -0.045000 0.001047 0.000000
vt -0.090000 0.000000 0.000000
vt -0.067500 0.001047 0.000000
vt -0.090000 0.001047 0.000000
vt -0.090000 0.002094 0.000000
vt -0.067500 0.002094 0.000000
vt -0.090000 0.003142 0.000000
vt -0.045000 0.002094 0.000000
vt 0.000000 0.003142 0.000000
vt -0.022500 0.002094 0.000000
vt 0.000000 0.002094 0.000000
vt 0.000000 0.000000 0.000000
vt 0.043000 0.000000 0.000000
vt 0.000000 0.090000 0.000000
vt 0.043000 0.090000 0.000000
vt 0.000000 0.001047 0.000000
vt -0.022500 0.001047 0.000000
vt 0.000000 0.000000 0.000000
vt -0.045000 0.001047 0.000000
vt -0.090000 0.000000 0.000000
vt -0.067500 0.001047 0.000000
vt -0.090000 0.001047 0.000000
vt -0.090000 0.002094 0.000000
vt -0.067500 0.002094 0.000000
vt -0.090000 0.003142 0.000000
vt -0.045000 0.002094 0.000000
vt 0.000000 0.003142 0.000000
vt -0.022500 0.002094 0.000000
vt 0.000000 0.002094 0.000000
vt 0.000000 0.000000 0.000000
vt 0.025000 0.000000 0.000000
vt 0.000000 0.090000 0.000000
vt 0.025000 0.090000 0.000000
vt 0.000000 0.000000 0.000000
vt 0.003000 0.000000 0.000000
vt 0.000000 0.090000 0.000000
vt 0.003000 0.090000 0.000000
vt 0.000000 0.000000 0.000000
vt 0.025000 0.000000 0.000000
vt 0.000000 0.090000 0.000000
vt 0.025000 0.090000 0.000000
vt -0.090000 0.000000 0.000000
vt -0.000000 0.000000 0.000000
vt -0.045000 0.002618 0.000000
vt -0.000000 0.002618 0.000000
vt -0.045000 0.005236 0.000000
vt -0.000000 0.005236 0.000000
vt -0.000000 0.007854 0.000000
vt -0.090000 0.007854 0.000000
vt -0.090000 0.005236 0.000000
vt -0.090000 0.002618 0.000000
vt 0.000000 0.000000 0.000000
vt 0.043000 0.000000 0.000000
vt 0.000000 0.090000 0.000000
vt 0.043000 0.090000 0.000000
vt -0.090000 0.000000 0.000000
vt -0.000000 0.000000 0.000000
vt -0.045000 0.002618 0.000000
vt -0.000000 0.002618 0.000000
vt -0.045000 0.005236 0.000000
vt -0.000000 0.005236 0.000000
vt -0.000000 0.007854 0.000000
vt -0.090000 0.007854 0.000000
vt -0.090000 0.005236 0.000000
vt -0.090000 0.002618 0.000000
vn 0.000000 -100.000000 0.000000
vn 0.000000 -100.000000 0.000000
vn 0.000000 -100.000000 0.000000
vn 0.000000 -100.000000 0.000000
vn 0.000000 -100.000000 0.000000
vn 0.000000 -100.000000 0.000000
vn 0.000000 -100.000000 0.000000
vn 0.000000 -100.000000 0.000000
vn 0.000000 -100.000000 0.000000
vn 0.000000 -100.000000 0.000000
vn 0.000000 -100.000000 0.000000
vn 0.000000 -100.000000 0.000000
vn 0.000000 -100.000000 0.000000
vn 0.000000 -100.000000 0.000000
vn 0.000000 -100.000000 0.000000
vn 0.000000 -100.000000 0.000000
vn 0.000000 -100.000000 0.000000
vn 0.000000 -100.000000 0.000000
vn 0.000000 -100.000000 0.000000
vn 0.000000 -100.000000 0.000000
vn -0.000000 100.000000 -0.000000
vn -0.000000 100.000000 -0.000000
vn -0.000000 100.000000 -0.000000
vn -0.000000 100.000000 -0.000000
vn -0.000000 100.000000 -0.000000
vn -0.000000 100.000000 -0.000000
vn -0.000000 100.000000 -0.000000
vn -0.000000 100.000000 -0.000000
vn -0.000000 100.000000 -0.000000
vn -0.000000 100.000000 -0.000000
vn -0.000000 100.000000 -0.000000
vn -0.000000 100.000000 -0.000000
vn -0.000000 100.000000 -0.000000
vn -0.000000 100.000000 -0.000000
vn -0.000000 100.000000 -0.000000
vn -0.000000 100.000000 -0.000000
vn -0.000000 100.000000 -0.000000
vn -0.000000 100.000000 -0.000000
vn -0.000000 100.000000 -0.000000
vn -0.000000 100.000000 -0.000000
vn 100.000000 -0.000000 0.000000
vn 100.000000 -0.000000 0.000000
vn 100.000000 -0.000000 0.000000
vn 100.000000 -0.000000 0.000000
vn -0.000000 0.000000 100.000000
vn -0.000000 0.000000 100.000000
vn -0.000000 0.000000 100.000000
vn -0.000000 0.000000 100.000000
vn -0.000000 0.000000 100.000000
vn -0.000000 0.000000 100.000000
vn -0.000000 0.000000 100.000000
vn -0.000000 0.000000 100.000000
vn 0.000000 -0.000000 -100.000000
vn 0.000000 -0.000000 -100.000000
vn 0.000000 -0.000000 -100.000000
vn 0.000000 -0.000000 -100.000000
vn 0.000000 -0.000000 -100.000000
vn 0.000000 -0.000000 -100.000000
vn 0.000000 -0.000000 -100.000000
vn 0.000000 -0.000000 -100.000000
vn 0.000000 -100.000000 0.000000
vn 0.000000 -100.000000 0.000000
vn 0.000000 -100.000000 0.000000
vn 0.000000 -100.000000 0.000000
vn 100.000000 -0.000000 0.000000
vn 100.000000 -0.000000 0.000000
vn 100.000000 -0.000000 0.000000
vn 100.000000 -0.000000 0.000000
vn 100.000000 0.000000 0.000000
vn 100.000000 0.000000 0.000000
vn 100.000000 0.000000 0.000000
vn 100.000000 0.000000 0.000000
vn -0.000000 100.000000 -0.000000
vn -0.000000 100.000000 -0.000000
vn -0.000000 100.000000 -0.000000
vn -0.000000 100.000000 -0.000000
vn 86.602540 0.000000 50.000000
vn 86.602540 0.000000 50.000000
vn 100.000000 -0.000000 0.000000
vn 86.602540 0.000000 50.000000
vn 100.000000 -0.000000 0.000000
vn 86.602540 0.000000 50.000000
vn 86.602540 0.000000 50.000000
vn 50.000000 0.000000 86.602540
vn 50.000000 0.000000 86.602540
vn 50.000000 0.000000 86.602540
vn 50.000000 0.000000 86.602540
vn 50.000000 0.000000 86.602540
vn 100.000000 -0.000000 0.000000
vn 100.000000 -0.000000 0.000000
vn 50.000000 -0.000000 -86.602540
vn 50.000000 -0.000000 -86.602540
vn 0.000000 -0.000000 -100.000000
vn 50.000000 -0.000000 -86.602540
vn 0.000000 -0.000000 -100.000000
vn 50.000000 -0.000000 -86.602540
vn 50.000000 -0.000000 -86.602540
vn 86.602540 -0.000000 -50.000000
vn 86.602540 -0.000000 -50.000000
vn 86.602540 -0.000000 -50.000000
vn 86.602540 -0.000000 -50.000000
vn 86.602540 -0.000000 -50.000000
vn 0.000000 -0.000000 -100.000000
vn 0.000000 -0.000000 -100.000000
vn 100.000000 -0.000000 0.000000
vn 100.000000 -0.000000 0.000000
vn 100.000000 -0.000000 0.000000
vn 100.000000 -0.000000 0.000000
vn -0.000000 0.000000 100.000000
vn -0.000000 0.000000 100.000000
vn -0.000000 0.000000 100.000000
vn -0.000000 0.000000 100.000000
vn -100.000000 0.000000 -0.000000
vn -100.000000 0.000000 -0.000000
vn -86.602540 0.000000 50.000000
vn -86.602540 0.000000 50.000000
vn -50.000000 0.000000 86.602540
vn -50.000000 0.000000 86.602540
vn -50.000000 0.000000 86.602540
vn -86.602540 0.000000 50.000000
vn -100.000000 0.000000 -0.000000
vn -100.000000 0.000000 -0.000000
vn -50.000000 -0.000000 -86.602540
vn -50.000000 -0.000000 -86.602540
vn -86.602540 -0.000000 -50.000000
vn -86.602540 -0.000000 -50.000000
vn -86.602540 -0.000000 -50.000000
vn -50.000000 -0.000000 -86.602540
usemtl Opaque(211,212,213)
f 2/1/1 3/2/2 1/3/3
f 1/3/3 3/2/2 20/4/4
f 20/4/4 3/2/2 4/5/5
f 20/4/4 4/5/5 19/6/6
f 19/6/6 4/5/5 5/7/7
f 19/6/6 5/7/7 18/8/8
f 18/8/8 5/7/7 6/9/9
f 18/8/8 6/9/9 17/10/10
f 17/10/10 6/9/9 16/11/11
f 16/11/11 6/9/9 7/12/12
f 16/11/11 7/12/12 15/13/13
f 15/13/13 7/12/12 8/14/14
f 15/13/13 8/14/14 14/15/15
f 14/15/15 8/14/14 9/16/16
f 14/15/15 9/16/16 13/17/17
f 13/17/17 9/16/16 10/18/18
f 13/17/17 10/18/18 11/19/19
f 11/19/19 12/20/20 13/17/17
f 21/21/21 22/22/22 40/23/23
f 40/23/23 22/22/22 23/24/24
f 40/23/23 23/24/24 39/25/25
f 39/25/25 23/24/24 24/26/26
f 39/25/25 24/26/26 38/27/27
f 38/27/27 24/26/26 25/28/28
f 38/27/27 25/28/28 37/29/29
f 37/29/29 25/28/28 26/30/30
f 37/29/29 26/30/30 36/31/31
f 36/31/31 26/30/30 27/32/32
f 36/31/31 27/32/32 28/33/33
f 36/31/31 28/33/33 35/34/34
f 35/34/34 28/33/33 29/35/35
f 35/34/34 29/35/35 34/36/36
f 34/36/36 29/35/35 30/37/37
f 34/36/36 30/37/37 33/38/38
f 33/38/38 30/37/37 32/39/39
f 32/39/39 30/37/37 31/40/40
f 41/41/41 42/42/42 44/43/43
f 44/43/43 42/42/42 43/44/44
f 42/45/45 45/46/46 43/47/47
f 43/47/47 45/46/46 46/48/48
f 46/48/48 45/46/46 3/49/49
f 46/48/48 3/49/49 2/50/50
f 21/51/51 40/52/52 45/46/46
f 45/46/46 40/52/52 3/49/49
f 41/53/53 48/54/54 47/55/55
f 47/55/55 48/54/54 20/56/56
f 47/55/55 20/56/56 23/57/57
f 41/53/53 44/58/58 48/54/54
f 48/54/54 1/59/59 20/56/56
f 23/57/57 22/60/60 47/55/55
f 48/61/61 44/62/62 46/63/63
f 46/63/63 44/62/62 43/64/64
f 1/65/65 48/66/66 2/67/67
f 2/67/67 48/66/66 46/68/68
f 47/69/69 22/70/70 45/71/71
f 45/71/71 22/70/70 21/72/72
f 41/73/73 47/74/74 42/75/75
f 42/75/75 47/74/74 45/76/76
f 5/77/77 49/78/78 6/79/79
f 6/79/79 49/78/78 50/80/80
f 6/79/79 50/80/80 37/81/81
f 37/81/81 50/80/80 51/82/82
f 37/81/81 51/82/82 38/83/83
f 38/83/83 51/82/82 39/84/84
f 39/84/84 51/82/82 54/85/85
f 39/84/84 54/85/85 40/86/52
f 40/86/52 54/85/85 53/87/86
f 40/86/52 53/87/86 3/88/49
f 3/88/49 53/87/86 52/89/87
f 3/88/49 52/89/87 4/90/88
f 4/90/88 52/89/87 5/77/77
f 5/77/77 52/89/87 49/78/78
f 54/85/85 51/82/82 50/80/80
f 52/89/87 53/87/86 49/78/78
f 49/78/78 53/87/86 50/80/80
f 53/87/86 54/85/85 50/80/80
f 7/91/89 6/92/79 36/93/90
f 36/93/90 6/92/79 37/94/81
f 9/95/91 55/96/92 10/97/93
f 10/97/93 55/96/92 56/98/94
f 10/97/93 56/98/94 33/99/95
f 33/99/95 56/98/94 57/100/96
f 33/99/95 57/100/96 34/101/97
f 34/101/97 57/100/96 35/102/98
f 35/102/98 57/100/96 60/103/99
f 35/102/98 60/103/99 36/104/90
f 36/104/90 60/103/99 59/105/100
f 36/104/90 59/105/100 7/106/89
f 7/106/89 59/105/100 58/107/101
f 7/106/89 58/107/101 8/108/102
f 8/108/102 58/107/101 9/95/91
f 9/95/91 58/107/101 55/96/92
f 60/103/99 57/100/96 56/98/94
f 58/107/101 59/105/100 55/96/92
f 55/96/92 59/105/100 56/98/94
f 59/105/100 60/103/99 56/98/94
f 11/109/103 10/110/93 32/111/104
f 32/111/104 10/110/93 33/112/95
f 12/113/105 11/114/106 31/115/107
f 31/115/107 11/114/106 32/116/108
f 13/117/109 12/118/110 30/119/111
f 30/119/111 12/118/110 31/120/112
f 27/121/113 16/122/114 61/123/115
f 61/123/115 16/122/114 15/124/116
f 61/123/115 15/124/116 62/125/117
f 62/125/117 15/124/116 14/126/118
f 62/125/117 14/126/118 13/127/109
f 13/127/109 30/128/111 62/125/117
f 62/125/117 30/128/111 29/129/119
f 62/125/117 29/129/119 61/123/115
f 61/123/115 29/129/119 28/130/120
f 61/123/115 28/130/120 27/121/113
f 17/131/121 16/132/114 26/133/122
f 26/133/122 16/132/114 27/134/113
f 23/135/57 20/136/56 63/137/123
f 63/137/123 20/136/56 19/138/124
f 63/137/123 19/138/124 64/139/125
f 64/139/125 19/138/124 18/140/126
f 64/139/125 18/140/126 17/141/121
f 17/141/121 26/142/122 64/139/125
f 64/139/125 26/142/122 25/143/127
f 64/139/125 25/143/127 63/137/123
f 63/137/123 25/143/127 24/144/128
f 63/137/123 24/144/128 23/135/57
# 64 vertices
# 144 texture params
# 128 normals
# 124 facets

# 1 groups
