# WaveFront *.obj file (generated by Autodesk ATF)

mtllib hambot_Pillars & Battery v1_Adafruit 0.91in 128x32 OLED STEMMA QT v1_1_SOT23-6 v3_1_Body6.mtl

g Body6

v -0.030702 -0.049629 0.077776
v -0.030702 -0.049629 0.077881
v -0.030702 -0.049979 0.077881
v -0.030702 -0.049979 0.077776
v -0.030779 -0.049629 0.077886
v -0.030808 -0.049629 0.077905
v -0.030827 -0.049629 0.077936
v -0.030837 -0.049629 0.077977
v -0.030857 -0.049629 0.078213
v -0.030881 -0.049629 0.078294
v -0.030928 -0.049629 0.078357
v -0.031002 -0.049629 0.078390
v -0.031156 -0.049629 0.078400
v -0.031156 -0.049979 0.078400
v -0.031002 -0.049979 0.078390
v -0.030928 -0.049979 0.078357
v -0.030881 -0.049979 0.078294
v -0.030857 -0.049979 0.078213
v -0.030837 -0.049979 0.077977
v -0.030827 -0.049979 0.077936
v -0.030808 -0.049979 0.077905
v -0.030779 -0.049979 0.077886
v -0.031157 -0.049629 0.078295
v -0.031157 -0.049979 0.078295
v -0.031072 -0.049629 0.078295
v -0.030993 -0.049629 0.078275
v -0.030993 -0.049979 0.078275
v -0.031072 -0.049979 0.078295
v -0.030980 -0.049629 0.078260
v -0.030971 -0.049629 0.078241
v -0.030962 -0.049629 0.078199
v -0.030952 -0.049629 0.078119
v -0.030939 -0.049629 0.077953
v -0.030914 -0.049629 0.077875
v -0.030861 -0.049629 0.077812
v -0.030785 -0.049629 0.077780
v -0.030785 -0.049979 0.077780
v -0.030861 -0.049979 0.077812
v -0.030914 -0.049979 0.077875
v -0.030939 -0.049979 0.077953
v -0.030952 -0.049979 0.078119
v -0.030962 -0.049979 0.078199
v -0.030971 -0.049979 0.078241
v -0.030980 -0.049979 0.078260
vt -0.005250 0.000000 0.000000
vt 0.005250 0.000000 0.000000
vt -0.005250 0.035000 0.000000
vt 0.005250 0.035000 0.000000
vt -0.167590 0.000000 0.000000
vt -0.162657 0.000000 0.000000
vt -0.167590 0.035000 0.000000
vt -0.162657 0.035000 0.000000
vt -0.157725 0.000000 0.000000
vt -0.157725 0.035000 0.000000
vt -0.152792 0.000000 0.000000
vt -0.152792 0.035000 0.000000
vt -0.147860 0.000000 0.000000
vt -0.147860 0.035000 0.000000
vt -0.128130 0.000000 0.000000
vt -0.128130 0.035000 0.000000
vt -0.118265 0.000000 0.000000
vt -0.118265 0.035000 0.000000
vt -0.108400 0.000000 0.000000
vt -0.108400 0.035000 0.000000
vt -0.098535 0.000000 0.000000
vt -0.098535 0.035000 0.000000
vt -0.088670 0.000000 0.000000
vt -0.088670 0.035000 0.000000
vt -0.005250 0.000000 0.000000
vt 0.005250 0.000000 0.000000
vt -0.005250 0.035000 0.000000
vt 0.005250 0.035000 0.000000
vt -0.083860 0.000000 0.000000
vt -0.075427 0.000000 0.000000
vt -0.083860 0.035000 0.000000
vt -0.075427 0.035000 0.000000
vt -0.066994 0.000000 0.000000
vt -0.066994 0.035000 0.000000
vt -0.064432 0.000000 0.000000
vt -0.066510 0.035000 0.000000
vt -0.064432 0.035000 0.000000
vt -0.062353 0.000000 0.000000
vt -0.062353 0.035000 0.000000
vt -0.058196 0.000000 0.000000
vt -0.058196 0.035000 0.000000
vt -0.049883 0.000000 0.000000
vt -0.049883 0.035000 0.000000
vt -0.033255 0.000000 0.000000
vt -0.033255 0.035000 0.000000
vt -0.024941 0.000000 0.000000
vt -0.024941 0.035000 0.000000
vt -0.016628 0.000000 0.000000
vt -0.016628 0.035000 0.000000
vt -0.008314 0.000000 0.000000
vt -0.008314 0.035000 0.000000
vt 0.000000 0.000000 0.000000
vt 0.000000 0.035000 0.000000
vt -0.007803 0.005686 0.000000
vt -0.008155 0.013947 0.000000
vt -0.018303 0.005686 0.000000
vt -0.018783 0.013379 0.000000
vt -0.011368 0.021500 0.000000
vt -0.020649 0.016252 0.000000
vt -0.023733 0.018116 0.000000
vt -0.017616 0.026819 0.000000
vt -0.027845 0.019114 0.000000
vt -0.025454 0.029350 0.000000
vt -0.042048 0.030679 0.000000
vt -0.051420 0.021117 0.000000
vt -0.050091 0.031630 0.000000
vt -0.059577 0.023541 0.000000
vt -0.054286 0.032546 0.000000
vt -0.056192 0.033402 0.000000
vt -0.065884 0.028248 0.000000
vt -0.057662 0.034780 0.000000
vt -0.069146 0.035638 0.000000
vt -0.059683 0.042678 0.000000
vt -0.070124 0.050993 0.000000
vt -0.059626 0.051172 0.000000
vt 0.007803 0.005686 0.000000
vt 0.018303 0.005686 0.000000
vt 0.008155 0.013947 0.000000
vt 0.018783 0.013379 0.000000
vt 0.011368 0.021500 0.000000
vt 0.020649 0.016252 0.000000
vt 0.023733 0.018116 0.000000
vt 0.017616 0.026819 0.000000
vt 0.027845 0.019114 0.000000
vt 0.025454 0.029350 0.000000
vt 0.042048 0.030679 0.000000
vt 0.051420 0.021117 0.000000
vt 0.050091 0.031630 0.000000
vt 0.059577 0.023541 0.000000
vt 0.054286 0.032546 0.000000
vt 0.056192 0.033402 0.000000
vt 0.065884 0.028248 0.000000
vt 0.057662 0.034780 0.000000
vt 0.069146 0.035638 0.000000
vt 0.059683 0.042678 0.000000
vt 0.070124 0.050993 0.000000
vt 0.059626 0.051172 0.000000
vn 100.000000 0.000000 0.000000
vn 100.000000 0.000000 0.000000
vn 100.000000 0.000000 0.000000
vn 100.000000 0.000000 0.000000
vn 0.000000 -0.000000 100.000000
vn 33.916561 -0.000000 94.072668
vn 0.000000 -0.000000 100.000000
vn 33.916561 -0.000000 94.072668
vn 72.137171 0.000000 69.254809
vn 72.137171 0.000000 69.254809
vn 93.515394 0.000000 35.424159
vn 93.515394 0.000000 35.424159
vn 99.007829 0.000000 14.051682
vn 99.007829 0.000000 14.051682
vn 98.891499 0.000000 14.848282
vn 98.891499 0.000000 14.848282
vn 91.679784 0.000000 39.935163
vn 91.679784 0.000000 39.935163
vn 62.138713 0.000000 78.350369
vn 62.138713 0.000000 78.350369
vn 24.317465 -0.000000 96.998252
vn 24.317465 -0.000000 96.998252
vn 1.709152 -0.000000 99.985393
vn 1.709152 -0.000000 99.985393
vn -99.985393 -0.000000 1.709152
vn -99.985393 -0.000000 1.709152
vn -99.985393 -0.000000 1.709152
vn -99.985393 -0.000000 1.709152
vn -1.709152 0.000000 -99.985393
vn -4.292245 0.000000 -99.907841
vn -1.709152 0.000000 -99.985393
vn -4.292245 0.000000 -99.907841
vn -51.576244 -0.000000 -85.673164
vn -51.576244 -0.000000 -85.673164
vn -56.765776 -0.000000 -82.326464
vn -84.679864 -0.000000 -53.191359
vn -56.765776 -0.000000 -82.326464
vn -84.679864 -0.000000 -53.191359
vn -95.178055 -0.000000 -30.677970
vn -95.178055 -0.000000 -30.677970
vn -98.445738 -0.000000 -17.562367
vn -98.445738 -0.000000 -17.562367
vn -99.876634 -0.000000 -4.965676
vn -99.876634 -0.000000 -4.965676
vn -98.714102 -0.000000 -15.985180
vn -98.714102 -0.000000 -15.985180
vn -87.940664 -0.000000 -47.607138
vn -87.940664 -0.000000 -47.607138
vn -58.858639 -0.000000 -80.843433
vn -58.858639 -0.000000 -80.843433
vn -16.837130 0.000000 -98.572364
vn -16.837130 0.000000 -98.572364
vn -0.000000 0.000000 -100.000000
vn -0.000000 0.000000 -100.000000
vn -0.000000 100.000000 0.000000
vn -0.000000 100.000000 0.000000
vn -0.000000 100.000000 0.000000
vn -0.000000 100.000000 0.000000
vn -0.000000 100.000000 0.000000
vn -0.000000 100.000000 0.000000
vn -0.000000 100.000000 0.000000
vn -0.000000 100.000000 0.000000
vn -0.000000 100.000000 0.000000
vn -0.000000 100.000000 0.000000
vn -0.000000 100.000000 0.000000
vn -0.000000 100.000000 0.000000
vn -0.000000 100.000000 0.000000
vn -0.000000 100.000000 0.000000
vn -0.000000 100.000000 0.000000
vn -0.000000 100.000000 0.000000
vn -0.000000 100.000000 0.000000
vn -0.000000 100.000000 0.000000
vn -0.000000 100.000000 0.000000
vn -0.000000 100.000000 0.000000
vn -0.000000 100.000000 0.000000
vn -0.000000 100.000000 0.000000
vn 0.000000 -100.000000 -0.000000
vn 0.000000 -100.000000 -0.000000
vn 0.000000 -100.000000 -0.000000
vn 0.000000 -100.000000 -0.000000
vn 0.000000 -100.000000 -0.000000
vn 0.000000 -100.000000 -0.000000
vn 0.000000 -100.000000 -0.000000
vn 0.000000 -100.000000 -0.000000
vn 0.000000 -100.000000 -0.000000
vn 0.000000 -100.000000 -0.000000
vn 0.000000 -100.000000 -0.000000
vn 0.000000 -100.000000 -0.000000
vn 0.000000 -100.000000 -0.000000
vn 0.000000 -100.000000 -0.000000
vn 0.000000 -100.000000 -0.000000
vn 0.000000 -100.000000 -0.000000
vn 0.000000 -100.000000 -0.000000
vn 0.000000 -100.000000 -0.000000
vn 0.000000 -100.000000 -0.000000
vn 0.000000 -100.000000 -0.000000
vn 0.000000 -100.000000 -0.000000
vn 0.000000 -100.000000 -0.000000
usemtl Opaque(230,230,230)
f 1/1/1 2/2/2 4/3/3
f 4/3/3 2/2/2 3/4/4
f 2/5/5 5/6/6 3/7/7
f 3/7/7 5/6/6 22/8/8
f 22/8/8 5/6/6 6/9/9
f 22/8/8 6/9/9 21/10/10
f 21/10/10 6/9/9 7/11/11
f 21/10/10 7/11/11 20/12/12
f 20/12/12 7/11/11 8/13/13
f 20/12/12 8/13/13 19/14/14
f 19/14/14 8/13/13 9/15/15
f 19/14/14 9/15/15 18/16/16
f 18/16/16 9/15/15 10/17/17
f 18/16/16 10/17/17 17/18/18
f 17/18/18 10/17/17 11/19/19
f 17/18/18 11/19/19 16/20/20
f 16/20/20 11/19/19 12/21/21
f 16/20/20 12/21/21 15/22/22
f 15/22/22 12/21/21 13/23/23
f 15/22/22 13/23/23 14/24/24
f 13/25/25 23/26/26 14/27/27
f 14/27/27 23/26/26 24/28/28
f 23/29/29 25/30/30 24/31/31
f 24/31/31 25/30/30 28/32/32
f 28/32/32 25/30/30 26/33/33
f 28/32/32 26/33/33 27/34/34
f 26/33/35 29/35/36 27/36/37
f 27/36/37 29/35/36 44/37/38
f 44/37/38 29/35/36 30/38/39
f 44/37/38 30/38/39 43/39/40
f 43/39/40 30/38/39 31/40/41
f 43/39/40 31/40/41 42/41/42
f 42/41/42 31/40/41 32/42/43
f 42/41/42 32/42/43 41/43/44
f 41/43/44 32/42/43 33/44/45
f 41/43/44 33/44/45 40/45/46
f 40/45/46 33/44/45 34/46/47
f 40/45/46 34/46/47 39/47/48
f 39/47/48 34/46/47 35/48/49
f 39/47/48 35/48/49 38/49/50
f 38/49/50 35/48/49 36/50/51
f 38/49/50 36/50/51 37/51/52
f 37/51/52 36/50/51 1/52/53
f 37/51/52 1/52/53 4/53/54
f 1/54/55 36/55/56 2/56/57
f 2/56/57 36/55/56 5/57/58
f 5/57/58 36/55/56 35/58/59
f 5/57/58 35/58/59 6/59/60
f 6/59/60 35/58/59 7/60/61
f 7/60/61 35/58/59 34/61/62
f 7/60/61 34/61/62 8/62/63
f 8/62/63 34/61/62 33/63/64
f 8/62/63 33/63/64 32/64/65
f 8/62/63 32/64/65 9/65/66
f 9/65/66 32/64/65 31/66/67
f 9/65/66 31/66/67 10/67/68
f 10/67/68 31/66/67 30/68/69
f 10/67/68 30/68/69 29/69/70
f 10/67/68 29/69/70 11/70/71
f 11/70/71 29/69/70 26/71/72
f 11/70/71 26/71/72 12/72/73
f 12/72/73 26/71/72 25/73/74
f 12/72/73 25/73/74 13/74/75
f 13/74/75 25/73/74 23/75/76
f 4/76/77 3/77/78 37/78/79
f 37/78/79 3/77/78 22/79/80
f 37/78/79 22/79/80 38/80/81
f 38/80/81 22/79/80 21/81/82
f 38/80/81 21/81/82 20/82/83
f 38/80/81 20/82/83 39/83/84
f 39/83/84 20/82/83 19/84/85
f 39/83/84 19/84/85 40/85/86
f 40/85/86 19/84/85 41/86/87
f 41/86/87 19/84/85 18/87/88
f 41/86/87 18/87/88 42/88/89
f 42/88/89 18/87/88 17/89/90
f 42/88/89 17/89/90 43/90/91
f 43/90/91 17/89/90 44/91/92
f 44/91/92 17/89/90 16/92/93
f 44/91/92 16/92/93 27/93/94
f 27/93/94 16/92/93 15/94/95
f 27/93/94 15/94/95 28/95/96
f 28/95/96 15/94/95 14/96/97
f 28/95/96 14/96/97 24/97/98
# 44 vertices
# 97 texture params
# 98 normals
# 84 facets

# 1 groups
